<svg width="20" height="19" viewBox="0 0 20 19" fill="none" xmlns="http://www.w3.org/2000/svg">
    <path d="M16.8275 7.69382C16.8907 7.71494 16.9489 7.74866 16.9988 7.79291C17.0486 7.83717 17.0889 7.89107 17.1174 7.95134C17.1458 8.01162 17.1618 8.07703 17.1642 8.14363C17.1667 8.21024 17.1557 8.27665 17.1318 8.33888L13.4955 17.8298C12.9175 19.3391 10.8002 19.3887 10.3485 17.9024L8.42739 11.5802C8.278 11.0888 7.90033 10.7111 7.40958 10.5624L1.08772 8.64116C-0.397807 8.18878 -0.350337 6.07209 1.16032 5.49405L4.71846 4.13063C5.14522 3.96716 5.61547 3.9568 6.04901 4.10131L16.8275 7.69382Z" fill="#DA0916"/>
    <path d="M17.3985 7.33416C17.5192 7.37438 17.6507 7.36649 17.7656 7.31212C17.8806 7.25776 17.9702 7.16112 18.0156 7.04235L19.8816 2.17438C20.3933 0.83888 19.1612 -0.393296 17.8257 0.118424L8.84418 3.56014C8.74919 3.59653 8.66777 3.66138 8.61104 3.74582C8.55432 3.83026 8.52506 3.93016 8.52728 4.03186C8.52949 4.13356 8.56307 4.23209 8.62342 4.31398C8.68377 4.39587 8.76794 4.45711 8.86443 4.48933L17.3985 7.33416Z" fill="#ED848B"/>
</svg>

