<svg width="56" height="55" viewBox="0 0 56 55" fill="none" xmlns="http://www.w3.org/2000/svg">
<path d="M18.364 16.9213L17.2155 17.0148L13.3334 17.3311L13.3322 17.3312C12.2772 17.4161 11.2812 17.8523 10.5033 18.57C9.72575 19.2874 9.21109 20.2448 9.04158 21.2892C8.97072 21.7315 8.90422 22.1743 8.84207 22.6175C20.839 28.223 35.1609 28.2232 47.1556 22.6181C47.0944 22.1746 47.0283 21.7318 46.9573 21.2898C46.7879 20.2452 46.2732 19.2876 45.4955 18.57C44.7176 17.8523 43.7216 17.4161 42.6666 17.3312L42.6661 17.3311L38.784 17.0172L37.6348 16.9242V15.7713V12.5171V12.5168C37.635 11.8556 37.3978 11.2164 36.9665 10.7153C36.5352 10.2143 35.9385 9.88467 35.2848 9.78638L18.364 16.9213ZM18.364 16.9213V15.769V12.5152C18.364 12.5151 18.364 12.5149 18.364 12.5148C18.3643 11.8541 18.6016 11.2153 19.0328 10.7147C19.464 10.214 20.0605 9.88463 20.714 9.78638C20.714 9.78638 20.7141 9.78637 20.7141 9.78637C20.7142 9.78636 20.7142 9.78635 20.7143 9.78634L23.5092 9.36711C23.5092 9.3671 23.5093 9.36709 23.5094 9.36708C23.5095 9.36706 23.5097 9.36703 23.5098 9.36701C26.4863 8.92218 29.5124 8.92218 32.489 9.36701C32.489 9.36702 32.4891 9.36703 32.4892 9.36705C32.4893 9.36707 32.4895 9.36709 32.4896 9.36711L35.2845 9.78634L18.364 16.9213ZM8.51153 22.7958L8.22852 22.9511L8.51153 22.7958ZM32.3488 10.2932L32.348 10.2931C29.4649 9.86247 26.5339 9.86247 23.6508 10.2931L23.65 10.2932L20.8546 10.7125C20.8545 10.7125 20.8543 10.7126 20.8542 10.7126C20.4227 10.7773 20.0288 10.9945 19.7439 11.3249L19.7439 11.3249C19.4589 11.6554 19.3019 12.0771 19.3015 12.5136V12.5148V15.5283V16.8518L20.6227 16.7763C25.5365 16.4957 30.4623 16.4957 35.376 16.7763L36.6973 16.8518V15.5283V12.5148V12.5136C36.6969 12.0771 36.5399 11.6554 36.2549 11.3249C35.97 10.9945 35.576 10.7773 35.1446 10.7126C35.1445 10.7126 35.1443 10.7125 35.1442 10.7125L32.3488 10.2932Z" stroke="#FFBD16" stroke-width="2.5"/>
<mask id="path-2-inside-1_315_12960" fill="white">
<path d="M48.8948 27.6604C48.8903 27.5863 48.8678 27.5145 48.8293 27.451C48.7909 27.3875 48.7375 27.3343 48.674 27.296C48.6104 27.2576 48.5385 27.2353 48.4644 27.231C48.3903 27.2266 48.3162 27.2403 48.2486 27.2708C35.4817 32.9244 20.5171 32.9244 7.75023 27.2708C7.68259 27.2403 7.60854 27.2266 7.53443 27.231C7.46033 27.2353 7.3884 27.2576 7.32483 27.296C7.26126 27.3343 7.20794 27.3875 7.16947 27.451C7.131 27.5145 7.10853 27.5863 7.10398 27.6604C6.87188 32.0478 7.10772 36.4474 7.80753 40.7848C8.02113 42.106 8.67166 43.3173 9.65506 44.2251C10.6385 45.1329 11.8979 45.6846 13.2319 45.7921L17.5219 46.1358C24.4954 46.6996 31.5011 46.6996 38.4769 46.1358L42.7669 45.7921C44.1009 45.6846 45.3603 45.1329 46.3437 44.2251C47.3271 43.3173 47.9777 42.106 48.1913 40.7848C48.8925 36.4421 49.1309 32.0421 48.8948 27.6627"/>
</mask>
<path d="M48.2486 27.2708L49.2608 29.5567L49.2696 29.5529L49.2783 29.5489L48.2486 27.2708ZM7.75023 27.2708L6.72054 29.5489L6.72924 29.5529L6.73797 29.5567L7.75023 27.2708ZM7.10398 27.6604L4.60868 27.5073L4.60803 27.5178L4.60747 27.5284L7.10398 27.6604ZM7.80753 40.7848L5.33944 41.183L5.33957 41.1838L7.80753 40.7848ZM13.2319 45.7921L13.0312 48.284L13.0322 48.2841L13.2319 45.7921ZM17.5219 46.1358L17.7233 43.644L17.7216 43.6438L17.5219 46.1358ZM38.4769 46.1358L38.2772 43.6438L38.2755 43.644L38.4769 46.1358ZM42.7669 45.7921L42.9666 48.2841L42.9676 48.284L42.7669 45.7921ZM48.1913 40.7848L50.6592 41.1838L50.6593 41.1833L48.1913 40.7848ZM51.3901 27.5073C51.3608 27.0291 51.2157 26.5651 50.9674 26.1554L46.6912 28.7466C46.5199 28.4638 46.4198 28.1436 46.3995 27.8135L51.3901 27.5073ZM50.9674 26.1554C50.7191 25.7456 50.375 25.4023 49.9647 25.1549L47.3833 29.437C47.1001 29.2663 46.8626 29.0294 46.6912 28.7466L50.9674 26.1554ZM49.9647 25.1549C49.5543 24.9076 49.0901 24.7636 48.6118 24.7353L48.317 29.7266C47.9869 29.7071 47.6665 29.6077 47.3833 29.437L49.9647 25.1549ZM48.6118 24.7353C48.1335 24.7071 47.6555 24.7954 47.2189 24.9927L49.2783 29.5489C48.9769 29.6851 48.647 29.7461 48.317 29.7266L48.6118 24.7353ZM47.2363 24.9849C35.1141 30.353 20.8847 30.353 8.7625 24.9849L6.73797 29.5567C20.1495 35.4958 35.8493 35.4958 49.2608 29.5567L47.2363 24.9849ZM8.77993 24.9927C8.3433 24.7954 7.8653 24.7071 7.38703 24.7353L7.68184 29.7266C7.35177 29.7461 7.02188 29.6851 6.72054 29.5489L8.77993 24.9927ZM7.38703 24.7353C6.90875 24.7636 6.44447 24.9076 6.03413 25.1549L8.61553 29.437C8.33233 29.6077 8.01191 29.7071 7.68184 29.7266L7.38703 24.7353ZM6.03413 25.1549C5.6238 25.4023 5.27969 25.7456 5.03138 26.1554L9.30757 28.7466C9.1362 29.0294 8.89871 29.2663 8.61553 29.437L6.03413 25.1549ZM5.03138 26.1554C4.78308 26.5651 4.63802 27.0291 4.60868 27.5073L9.59929 27.8135C9.57904 28.1436 9.47893 28.4638 9.30757 28.7466L5.03138 26.1554ZM4.60747 27.5284C4.36599 32.093 4.61136 36.6704 5.33944 41.183L10.2756 40.3866C9.60408 36.2244 9.37776 32.0026 9.60049 27.7925L4.60747 27.5284ZM5.33957 41.1838C5.64246 43.0572 6.5649 44.7749 7.95933 46.0621L11.3508 42.3881C10.7784 41.8598 10.3998 41.1547 10.2755 40.3858L5.33957 41.1838ZM7.95933 46.0621C9.35375 47.3493 11.1396 48.1317 13.0312 48.284L13.4326 43.3002C12.6562 43.2376 11.9232 42.9165 11.3508 42.3881L7.95933 46.0621ZM13.0322 48.2841L17.3222 48.6279L17.7216 43.6438L13.4316 43.3001L13.0322 48.2841ZM17.3205 48.6277C24.4281 49.2023 31.5684 49.2023 38.6783 48.6277L38.2755 43.644C31.4337 44.1969 24.5628 44.1969 17.7233 43.644L17.3205 48.6277ZM38.6766 48.6279L42.9666 48.2841L42.5672 43.3001L38.2772 43.6438L38.6766 48.6279ZM42.9676 48.284C44.8592 48.1317 46.6451 47.3493 48.0395 46.0621L44.648 42.3881C44.0756 42.9165 43.3426 43.2376 42.5662 43.3002L42.9676 48.284ZM48.0395 46.0621C49.4339 44.7749 50.3563 43.0572 50.6592 41.1838L45.7233 40.3858C45.599 41.1547 45.2204 41.8598 44.648 42.3881L48.0395 46.0621ZM50.6593 41.1833C51.3887 36.6664 51.6369 32.0877 51.3912 27.5282L46.3984 27.7973C46.6248 31.9965 46.3964 36.2178 45.7232 40.3863L50.6593 41.1833Z" fill="#E94D11" mask="url(#path-2-inside-1_315_12960)"/>
</svg>
