<svg width="482" height="227" viewBox="0 0 482 227" fill="none" xmlns="http://www.w3.org/2000/svg">
<path d="M248.234 145.75H144.084V226.08H248.234V145.75Z" fill="white"/>
<path d="M239.404 207.8H231.424V216.83H239.404V207.8Z" fill="#E8E8E8"/>
<path d="M437.225 0.27002H305.895V101.56H437.225V0.27002Z" fill="#CDA47E" fill-opacity="0.81"/>
<path d="M404.315 100.84C404.175 100.84 404.055 78.27 404.055 50.42C404.055 22.57 404.175 0 404.315 0C404.455 0 404.575 22.57 404.575 50.42C404.575 78.27 404.465 100.84 404.315 100.84Z" fill="#252536"/>
<path d="M426.084 78.5H416.014V89.88H426.084V78.5Z" fill="#979494"/>
<path d="M360.873 0.530273H345.953V22.1403H360.873V0.530273Z" fill="#979494"/>
<path d="M360.873 79.6401H345.953V101.25H360.873V79.6401Z" fill="#979494"/>
<path d="M58.5347 130.59C63.8547 127.85 70.1147 127.49 76.0147 128.47C79.1847 128.99 82.4847 129.94 84.6447 132.32C86.8047 134.7 87.2047 138.89 84.7347 140.94C83.2547 142.16 81.2047 142.34 79.2847 142.32C74.6647 142.26 69.5447 141.45 65.8547 144.23C63.7447 145.82 62.3447 148.45 59.8547 149.23C57.3647 150.01 54.6147 148.54 53.3147 146.32C52.112 144.005 51.847 141.315 52.5747 138.81C52.8691 137.074 53.56 135.429 54.5937 134.003C55.6274 132.577 56.976 131.409 58.5347 130.59Z" fill="#24B232"/>
<path d="M46.353 107.08C49.603 111.72 55.923 110.19 58.853 107.35C61.783 104.51 63.023 100.41 64.143 96.4998C66.723 87.5498 69.313 78.1598 67.403 69.0498C66.9431 66.2871 65.7283 63.7053 63.893 61.5898C62.9638 60.5508 61.7792 59.7727 60.4567 59.3324C59.1341 58.8921 57.7195 58.805 56.353 59.0798C53.163 59.9198 51.183 63.0798 49.753 66.0098C45.5368 74.7689 43.3298 84.3589 43.293 94.0798C43.293 98.6098 43.803 103.35 46.353 107.08Z" fill="#24B232"/>
<path d="M37.4339 113.74C40.9639 109.55 41.6339 103.45 40.0639 98.1997C38.4939 92.9497 34.9439 88.4897 30.8539 84.8397C26.0435 80.5609 20.446 77.2594 14.3739 75.1197C12.0205 74.169 9.48919 73.7391 6.9539 73.8597C5.68916 73.9319 4.46126 74.3123 3.37716 74.9676C2.29305 75.6229 1.38561 76.5334 0.733896 77.6197C-1.0061 80.9297 0.663896 84.9397 2.4639 88.2197C5.6337 93.9909 9.25147 99.5045 13.2839 104.71C16.5339 108.89 20.2839 113.02 25.1939 114.91C30.1039 116.8 35.2839 116.58 37.9039 113.15" fill="#24B232"/>
<path d="M46.1334 177.1C46.3071 176.412 46.4076 175.709 46.4334 175C46.5834 173.46 46.7634 171.53 46.9934 169.24C47.2801 166.407 47.7106 163.59 48.2834 160.8C49.0348 157.389 50.0615 154.045 51.3534 150.8C52.6205 147.576 54.3339 144.547 56.4434 141.8C58.168 139.566 60.3633 137.74 62.8734 136.45C64.5805 135.608 66.4096 135.041 68.2934 134.77C69.0025 134.742 69.7066 134.638 70.3934 134.46C69.6855 134.382 68.9713 134.382 68.2634 134.46C66.3072 134.607 64.3934 135.105 62.6134 135.93C59.9628 137.18 57.6385 139.029 55.8234 141.33C53.6156 144.113 51.8359 147.211 50.5434 150.52C49.253 153.804 48.2493 157.193 47.5434 160.65C46.9994 163.475 46.622 166.33 46.4134 169.2C46.2334 171.65 46.1634 173.63 46.1334 175C46.0597 175.698 46.0597 176.402 46.1334 177.1Z" fill="#066D1D"/>
<path d="M46.5335 172.68C46.5929 172.35 46.613 172.014 46.5935 171.68C46.5935 170.94 46.5935 170.01 46.5935 168.88C46.5935 166.45 46.5935 162.93 46.7135 158.59C46.9335 149.91 47.7135 140.59 49.1235 127.4C50.4935 115.01 52.3235 100.6 54.2635 91.2297C54.6735 89.0997 55.0935 87.1797 55.4935 85.4997C55.8935 83.8197 56.1835 82.3597 56.4935 81.1897C56.8035 80.0197 56.9735 79.1897 57.1535 78.4697C57.2514 78.1447 57.3085 77.8088 57.3235 77.4697C57.1729 77.7613 57.0587 78.0703 56.9835 78.3897C56.7635 79.0997 56.4935 79.9797 56.1635 81.0697C55.8335 82.1597 55.4335 83.6797 55.0135 85.3497C54.5935 87.0197 54.1135 88.9397 53.6635 91.0697C51.2612 102.152 49.4553 113.354 48.2535 124.63C46.8135 137.83 46.1635 149.85 46.1035 158.55C46.1035 162.9 46.1035 166.43 46.2535 168.86C46.3235 169.99 46.3835 170.92 46.4235 171.65C46.4186 171.996 46.4556 172.342 46.5335 172.68Z" fill="#066D1D"/>
<path d="M46.5935 149.5C46.6697 148.525 46.6697 147.545 46.5935 146.57C46.4835 144.69 46.2235 141.98 45.6935 138.65C45.0395 134.757 44.1647 130.904 43.0735 127.11C41.8124 122.441 40.1977 117.874 38.2435 113.45C34.8977 105.298 30.0962 97.8226 24.0735 91.3899C23.0286 90.2853 21.9129 89.2497 20.7335 88.2899C20.2235 87.8499 19.7335 87.4199 19.3135 87.0799L18.0735 86.1899C17.2953 85.5959 16.4691 85.0674 15.6035 84.6099C15.4635 84.7999 19.0935 86.9399 23.6735 91.8099C29.4993 98.3028 34.1732 105.743 37.4935 113.81C39.414 118.205 41.0344 122.725 42.3435 127.34C43.4432 131.099 44.3543 134.91 45.0735 138.76C45.6735 142.05 46.0735 144.76 46.2335 146.6C46.2763 147.575 46.3967 148.544 46.5935 149.5Z" fill="#066D1D"/>
<path d="M22.6348 186.86L24.9548 218.69H65.8448L68.1648 186.86H22.6348Z" fill="#663700" fill-opacity="0.69"/>
<path d="M73.0336 174.32H18.6836V186.86H73.0336V174.32Z" fill="#48331A"/>
<path d="M18.6836 217.47V220.94H21.2436H72.1436V217.47H18.6836Z" fill="#48331A"/>
<path d="M23.7441 226.68L21.2441 220.56H70.1941L67.2741 226.68H23.7441Z" fill="#614729"/>
<path d="M67.4042 197.26C67.3532 197.367 67.2894 197.468 67.2142 197.56C67.0542 197.77 66.8442 198.04 66.6042 198.37L64.2242 201.37L64.1142 201.51L64.0142 201.37L58.1642 193.28H58.4942L52.7342 201.43L52.5542 201.69L52.3542 201.45L45.5242 193.32H45.9142L45.5442 193.8L39.4342 201.45L39.2242 201.71L39.0442 201.44L33.2742 193.29H33.6142L26.5142 201.37L26.3942 201.52L26.2942 201.35L24.0742 197.67C23.8342 197.27 23.6542 196.94 23.5042 196.67C23.4288 196.558 23.3683 196.437 23.3242 196.31C23.4178 196.405 23.4985 196.513 23.5642 196.63L24.1942 197.58L26.5242 201.25H26.3042L33.3042 193.07L33.4742 192.86L33.6342 193.08L39.4542 201.2H39.0742L45.1642 193.53C45.2942 193.37 45.4242 193.21 45.5342 193.06L45.7342 192.81L45.9342 193.05L52.7442 201.2H52.3642L58.1842 193.09L58.3542 192.85L58.5142 193.09C60.8242 196.38 62.7842 199.17 64.2442 201.27H64.0342L66.5142 198.27C66.7842 197.96 67.0042 197.71 67.1742 197.5C67.2449 197.414 67.3218 197.334 67.4042 197.26Z" fill="#252536"/>
<path d="M68.7346 186.65C68.7346 186.79 58.4846 186.91 45.8546 186.91C33.2246 186.91 22.9746 186.79 22.9746 186.65C22.9746 186.51 33.2146 186.4 45.8546 186.4C58.4946 186.4 68.7346 186.51 68.7346 186.65Z" fill="#252536"/>
<path d="M481.734 226.35C481.734 226.5 375.614 226.61 257.084 226.61C138.554 226.61 2.41406 226.5 2.41406 226.35C2.41406 226.2 138.514 226.09 257.084 226.09C375.654 226.09 481.734 226.21 481.734 226.35Z" fill="#252536"/>
<path d="M230 20.1159C230 20.1159 229.728 20.1159 229.204 20.1159C228.44 20.0716 227.673 20.0716 226.908 20.1159C223.95 20.2851 221.044 20.9504 218.318 22.0829C213.996 23.8521 210.235 26.7139 207.421 30.3738C205.687 32.6591 204.396 35.2359 203.614 37.9763C201.852 44.5039 202.804 51.4474 206.263 57.2922C207.206 58.9104 208.357 60.4043 209.687 61.7376C211.029 63.1502 212.593 64.3453 214.32 65.2782C216.091 66.2519 218.098 66.7443 220.131 66.7042C222.226 66.6797 224.236 65.8862 225.76 64.4815C226.497 63.7275 227.075 62.8392 227.46 61.8672C227.845 60.8952 228.031 59.8586 228.006 58.8166C227.991 56.6517 227.287 54.5449 225.992 52.7877C223.383 49.198 219.154 46.7884 214.652 45.4902C209.984 44.2099 205.055 44.1421 200.352 45.2935C197.951 45.9034 195.637 46.802 193.463 47.9686C191.268 49.1781 189.275 50.707 187.552 52.5025C187.139 52.9648 186.665 53.3877 186.293 53.8991L185.155 55.394C184.463 56.4474 183.844 57.5448 183.302 58.6789C182.224 60.9814 181.489 63.4221 181.116 65.9273C180.385 70.9321 181.082 76.0368 183.13 80.6797C185.088 85.2164 188.498 89.0119 192.849 91.4982C194.958 92.6753 197.313 93.3713 199.737 93.5341C202.114 93.6639 204.477 93.11 206.535 91.9408C208.577 90.8386 210.191 89.1105 211.127 87.0233C212.01 84.9663 212.072 82.6606 211.299 80.5617C210.503 78.5367 209.201 76.7381 207.512 75.3295C205.874 73.9469 203.985 72.8761 201.943 72.1725C197.961 70.9463 193.7 70.8745 189.676 71.966C185.912 72.9621 182.455 74.8428 179.606 77.444C177.011 79.8718 175.034 82.8595 173.835 86.1677C171.737 91.9077 171.834 98.1946 174.107 103.871C175.88 108.108 178.733 111.832 182.395 114.689C184.702 116.496 187.272 117.958 190.019 119.026C190.966 119.371 191.701 119.626 192.204 119.764L192.949 120C192.949 120 192.688 119.951 192.184 119.813C191.44 119.619 190.707 119.386 189.989 119.115C187.205 118.093 184.602 116.653 182.274 114.846C178.55 111.992 175.641 108.249 173.825 103.979C171.512 98.2492 171.394 91.8968 173.493 86.089C174.694 82.7306 176.692 79.6976 179.324 77.2375C182.213 74.5841 185.722 72.6598 189.546 71.6316C193.653 70.5124 198.005 70.5807 202.074 71.8283C204.176 72.5441 206.12 73.642 207.804 75.064C209.559 76.5187 210.91 78.3826 211.732 80.483C212.56 82.6758 212.524 85.091 211.631 87.2593C210.637 89.4287 208.952 91.2261 206.827 92.3834C204.693 93.5977 202.244 94.1787 199.778 94.0553C197.294 93.8861 194.883 93.1663 192.728 91.9506C188.277 89.4296 184.783 85.5684 182.768 80.9453C180.676 76.2173 179.958 71.0177 180.693 65.9174C181.078 63.3615 181.831 60.8716 182.929 58.5215C183.482 57.3634 184.115 56.2429 184.822 55.1678L185.991 53.6434C186.363 53.1221 186.847 52.6599 187.27 52.2075C189.033 50.3779 191.071 48.8194 193.312 47.585C195.537 46.3961 197.905 45.4842 200.362 44.8706C205.154 43.6976 210.178 43.7688 214.934 45.0771C219.526 46.4147 223.827 48.8636 226.536 52.5812C227.897 54.4118 228.637 56.6131 228.651 58.8756C228.7 61.1022 227.841 63.2566 226.264 64.8651C224.652 66.3422 222.532 67.1741 220.322 67.196C218.207 67.2429 216.119 66.7297 214.279 65.7109C212.512 64.7584 210.913 63.5328 209.546 62.0818C208.198 60.7186 207.031 59.1954 206.072 57.5479C202.551 51.5945 201.595 44.5196 203.413 37.8779C204.219 35.1059 205.54 32.5022 207.31 30.1968C210.176 26.5091 214.001 23.6393 218.388 21.8862C221.137 20.7756 224.066 20.1496 227.039 20.0373C227.81 19.9876 228.584 19.9876 229.355 20.0373L230 20.1159Z" fill="#252536"/>
<path d="M263.064 118.178H122.854V226.318H263.064V118.178Z" fill="#A9825E"/>
<path d="M122.854 118.178L148.754 142.338H286.584L263.064 118.178H122.854Z" fill="#CDA47E"/>
<path d="M122.854 118.178L263.104 117.928H263.214L263.294 117.998L286.574 141.908L286.814 142.158L287.244 142.598H286.624L148.794 142.488H148.734L122.854 118.178L148.854 142.178H148.744L286.574 142.078L286.394 142.518L286.144 142.268L262.874 118.358L263.054 118.438L122.854 118.178Z" fill="#252536"/>
<path d="M164.975 168.048C164.215 168.075 163.497 168.4 162.974 168.952C162.452 169.504 162.166 170.239 162.18 170.998C162.194 171.758 162.505 172.483 163.048 173.015C163.59 173.548 164.32 173.846 165.08 173.846C165.84 173.846 166.569 173.548 167.112 173.015C167.654 172.483 167.965 171.758 167.979 170.998C167.993 170.239 167.708 169.504 167.185 168.952C166.663 168.4 165.944 168.075 165.185 168.048" fill="#252536"/>
<path d="M198.104 168.048C197.348 168.077 196.633 168.401 196.113 168.951C195.593 169.502 195.31 170.234 195.325 170.991C195.339 171.748 195.65 172.469 196.19 172.999C196.731 173.529 197.457 173.826 198.214 173.826C198.971 173.826 199.698 173.529 200.238 172.999C200.779 172.469 201.089 171.748 201.104 170.991C201.118 170.234 200.835 169.502 200.315 168.951C199.796 168.401 199.081 168.077 198.324 168.048" fill="#252536"/>
<path d="M198.294 193.928C197.716 191.719 196.777 189.621 195.514 187.718C194.11 185.683 192.307 183.955 190.214 182.638C187.69 180.963 184.745 180.03 181.717 179.947C178.688 179.864 175.697 180.634 173.084 182.168C170.927 183.373 169.033 184.998 167.514 186.948C166.147 188.781 165.096 190.829 164.404 193.008C164.412 192.845 164.439 192.684 164.484 192.528C164.58 192.078 164.704 191.633 164.854 191.198C165.402 189.592 166.202 188.083 167.224 186.728C168.732 184.687 170.649 182.984 172.854 181.728C175.534 180.128 178.614 179.324 181.734 179.409C184.854 179.494 187.885 180.465 190.474 182.208C192.603 183.576 194.422 185.375 195.814 187.488C196.764 188.899 197.483 190.451 197.944 192.088C198.067 192.532 198.164 192.983 198.234 193.438C198.269 193.599 198.289 193.763 198.294 193.928Z" fill="#252536"/>
<path opacity="0.5" d="M123.174 119.368L147.974 150.808H263.064V142.338H148.754L123.174 119.368Z" fill="#252536"/>
<path d="M235.414 226.078C235.274 226.078 235.154 207.268 235.154 184.078C235.154 160.888 235.274 142.078 235.414 142.078C235.554 142.078 235.684 160.878 235.684 184.078C235.684 207.278 235.564 226.078 235.414 226.078Z" fill="#252536"/>
<path d="M257.434 201.558H245.074V215.528H257.434V201.558Z" fill="#252536"/>
<path d="M122.854 118.178L94.0742 142.338H122.854V118.178Z" fill="#A6A6A6"/>
<g opacity="0.4">
<path d="M122.854 118.178L94.0742 142.338H122.854V118.178Z" fill="#55412F"/>
</g>
<path d="M447.204 101.33H285.994V225.67H447.204V101.33Z" fill="#CDA47E"/>
<path d="M406.815 224.79C406.675 224.79 406.555 197.08 406.555 162.9C406.555 128.72 406.675 101 406.815 101C406.955 101 407.075 128.71 407.075 162.9C407.075 197.09 406.955 224.79 406.815 224.79Z" fill="#252536"/>
<path d="M433.534 197.37H421.174V211.34H433.534V197.37Z" fill="#616175"/>
<path d="M353.484 101.66H335.174V128.19H353.484V101.66Z" fill="#616175"/>
<path d="M353.484 198.77H335.174V225.3H353.484V198.77Z" fill="#616175"/>
<path d="M445.804 101.33H445.384H444.174L439.524 101.38L422.394 101.46L365.904 101.59L309.394 101.52L292.274 101.44L287.624 101.39L292.274 101.34L309.394 101.26L365.904 101.18L422.394 101.26L439.524 101.34L444.174 101.39H445.384L445.804 101.33Z" fill="#252536"/>
</svg>
