<svg width="41" height="40" viewBox="0 0 41 40" fill="none" xmlns="http://www.w3.org/2000/svg">
<path d="M4.40445 14.3189C4.67068 14.586 5.00054 14.7196 5.39404 14.7196H9.28295C9.67645 14.7196 10.0063 14.5877 10.2725 14.3238C10.5387 14.0599 10.6718 13.7305 10.6718 13.3356C10.6718 12.9407 10.5387 12.6097 10.2725 12.3426C10.0063 12.0754 9.67645 11.9419 9.28295 11.9419H5.39404C5.00054 11.9419 4.67068 12.0738 4.40445 12.3377C4.13826 12.6016 4.00516 12.931 4.00516 13.3259C4.00516 13.7207 4.13826 14.0518 4.40445 14.3189Z" fill="#FFBD16"/>
<path d="M2.73779 20.9856C3.00401 21.2527 3.33387 21.3863 3.72737 21.3863H9.28295C9.67645 21.3863 10.0063 21.2543 10.2725 20.9904C10.5387 20.7265 10.6718 20.3972 10.6718 20.0023C10.6718 19.6074 10.5387 19.2764 10.2725 19.0092C10.0063 18.7421 9.67645 18.6085 9.28295 18.6085H3.72737C3.33387 18.6085 3.00401 18.7405 2.73779 19.0044C2.47159 19.2682 2.3385 19.5976 2.3385 19.9925C2.3385 20.3874 2.47159 20.7184 2.73779 20.9856Z" fill="#FFBD16"/>
<path d="M4.40445 27.6522C4.67068 27.9194 5.00054 28.0529 5.39404 28.0529H9.28295C9.67645 28.0529 10.0063 27.921 10.2725 27.6571C10.5387 27.3932 10.6718 27.0638 10.6718 26.6689C10.6718 26.274 10.5387 25.943 10.2725 25.6759C10.0063 25.4088 9.67645 25.2752 9.28295 25.2752H5.39404C5.00054 25.2752 4.67068 25.4071 4.40445 25.671C4.13826 25.9349 4.00516 26.2643 4.00516 26.6592C4.00516 27.0541 4.13826 27.3851 4.40445 27.6522Z" fill="#FFBD16"/>
<path d="M25.6718 33.3307C21.9496 33.3307 18.7968 32.0391 16.2135 29.4557C13.6301 26.8724 12.3385 23.7196 12.3385 19.9974C12.3385 16.2844 13.6301 13.134 16.2135 10.546C18.7968 7.95805 21.9496 6.66406 25.6718 6.66406C29.3848 6.66406 32.5352 7.95805 35.1232 10.546C37.7112 13.134 39.0051 16.2844 39.0051 19.9974C39.0051 23.7196 37.7112 26.8724 35.1232 29.4557C32.5352 32.0391 29.3848 33.3307 25.6718 33.3307ZM25.6653 30.553C28.5955 30.553 31.0885 29.5274 33.1441 27.4761C35.1996 25.425 36.2274 22.9342 36.2274 20.0039C36.2274 17.0737 35.2018 14.5807 33.1506 12.5251C31.0994 10.4696 28.6086 9.44181 25.6783 9.44181C22.7481 9.44181 20.2551 10.4674 18.1996 12.5186C16.144 14.5698 15.1162 17.0606 15.1162 19.9909C15.1162 22.9211 16.1418 25.4141 18.1931 27.4696C20.2443 29.5252 22.735 30.553 25.6653 30.553ZM27.0607 19.4141V14.7196C27.0607 14.34 26.9276 14.0136 26.6614 13.7404C26.3952 13.4673 26.0653 13.3307 25.6718 13.3307C25.2783 13.3307 24.9484 13.4627 24.6822 13.7266C24.416 13.9905 24.2829 14.3215 24.2829 14.7196V20.0113C24.2829 20.1884 24.3177 20.36 24.3871 20.5261C24.4565 20.6921 24.5607 20.8446 24.6996 20.9835L28.7968 25.0529C29.0709 25.3307 29.3964 25.4696 29.7732 25.4696C30.1501 25.4696 30.4774 25.3322 30.7551 25.0574C31.0329 24.7825 31.1718 24.4561 31.1718 24.0782C31.1718 23.7003 31.0329 23.3724 30.7551 23.0946L27.0607 19.4141Z" fill="#E94D11"/>
</svg>
