<svg width="41" height="40" viewBox="0 0 41 40" fill="none" xmlns="http://www.w3.org/2000/svg">
<path d="M28.6666 21.6667V15.8333L12.8333 7.5" stroke="#FFBD16" stroke-width="2.8" stroke-linecap="round"/>
<path d="M35.3332 12.5L27.8332 16.25L20.3332 20M20.3332 20L5.33317 12.5M20.3332 20V35.8334M26.2965 5.63671L29.6298 7.38671C33.2148 9.26837 35.0082 10.2084 36.0048 11.9C36.9998 13.59 36.9998 15.695 36.9998 19.9034V20.0984C36.9998 24.305 36.9998 26.41 36.0048 28.1C35.0082 29.7917 33.2148 30.7334 29.6298 32.615L26.2965 34.3634C23.3698 35.8984 21.9065 36.6667 20.3332 36.6667C18.7598 36.6667 17.2965 35.9 14.3698 34.3634L11.0365 32.6134C7.4515 30.7317 5.65817 29.7917 4.6615 28.1C3.6665 26.41 3.6665 24.305 3.6665 20.1V19.905C3.6665 15.6967 3.6665 13.5917 4.6615 11.9017C5.65817 10.21 7.4515 9.26837 11.0365 7.38837L14.3698 5.63837C17.2965 4.10171 18.7598 3.33337 20.3332 3.33337C21.9065 3.33337 23.3698 4.10004 26.2965 5.63671Z" stroke="#E94D11" stroke-width="2.8" stroke-linecap="round"/>
<path d="M28.6667 21.6666V15.8333L20.75 11.6666" stroke="#FFBD16" stroke-width="2.8" stroke-linecap="round"/>
</svg>
