<svg width="40" height="40" viewBox="0 0 40 40" fill="none" xmlns="http://www.w3.org/2000/svg">
<path d="M8.33337 28.3334H5.00004V21.6667M3.33337 8.33337H21.6667V28.3334M15 28.3334H25M31.6667 28.3334H35V18.3334M35 18.3334H21.6667M35 18.3334L30 10H21.6667M5.00004 15H11.6667" stroke="#E94D11" stroke-width="2.8" stroke-linecap="round" stroke-linejoin="round"/>
<path d="M8.33337 28.3333C8.33337 29.2174 8.68456 30.0652 9.30968 30.6904C9.93481 31.3155 10.7827 31.6667 11.6667 31.6667C12.5508 31.6667 13.3986 31.3155 14.0237 30.6904C14.6489 30.0652 15 29.2174 15 28.3333C15 27.4493 14.6489 26.6014 14.0237 25.9763C13.3986 25.3512 12.5508 25 11.6667 25C10.7827 25 9.93481 25.3512 9.30968 25.9763C8.68456 26.6014 8.33337 27.4493 8.33337 28.3333ZM25 28.3333C25 29.2174 25.3512 30.0652 25.9764 30.6904C26.6015 31.3155 27.4493 31.6667 28.3334 31.6667C29.2174 31.6667 30.0653 31.3155 30.6904 30.6904C31.3155 30.0652 31.6667 29.2174 31.6667 28.3333C31.6667 27.4493 31.3155 26.6014 30.6904 25.9763C30.0653 25.3512 29.2174 25 28.3334 25C27.4493 25 26.6015 25.3512 25.9764 25.9763C25.3512 26.6014 25 27.4493 25 28.3333Z" stroke="#FFBD16" stroke-width="2.8" stroke-linecap="round" stroke-linejoin="round"/>
</svg>
