<svg width="41" height="40" viewBox="0 0 41 40" fill="none" xmlns="http://www.w3.org/2000/svg">
<path d="M15.6666 20.2941L19.1282 24L25.6666 17" stroke="#FFBD16" stroke-width="2.8" stroke-linecap="round" stroke-linejoin="round"/>
<path d="M9.51569 29.2925C9.51569 30.3189 10.3478 31.151 11.3742 31.151H16.0478L19.3525 34.4557C20.0783 35.1814 21.255 35.1814 21.9808 34.4557L25.2855 31.151H29.9591C30.9855 31.151 31.8176 30.3189 31.8176 29.2925L31.8176 24.6189L35.1223 21.3141C35.8481 20.5884 35.8481 19.4116 35.1223 18.6858L31.8176 15.3811L31.8176 10.7076C31.8176 9.68115 30.9855 8.84908 29.9591 8.84908H25.2855L21.9808 5.54434C21.255 4.81855 20.0783 4.81855 19.3525 5.54434L16.0477 8.84908H11.3742C10.3478 8.84908 9.51569 9.68115 9.51569 10.7076V15.3811L6.21097 18.6858C5.48518 19.4116 5.48518 20.5884 6.21096 21.3141L9.51569 24.6189V29.2925Z" stroke="#E94D11" stroke-width="2.8"/>
</svg>
