<svg width="41" height="40" viewBox="0 0 41 40" fill="none" xmlns="http://www.w3.org/2000/svg">
<path d="M16.9834 27.5L15.3584 28.29C12.0584 29.2033 10.4067 29.66 9.5167 28.6983C8.6267 27.7383 9.0867 25.9983 10.0084 22.515L10.245 21.615C10.5067 20.6233 10.6384 20.13 10.5734 19.6383C10.5067 19.1483 10.2517 18.7166 9.7417 17.855L9.27836 17.0716C7.48336 14.0366 6.5867 12.52 7.18336 11.3116C7.78336 10.105 9.4817 10.0066 12.88 9.81162L13.7584 9.76162C14.725 9.70495 15.2067 9.67828 15.6284 9.45328C16.0484 9.22828 16.36 8.83328 16.9834 8.03995L17.55 7.31995C19.7434 4.53162 20.84 3.13828 22.1 3.35328C23.36 3.56828 23.95 5.24828 25.1284 8.60995L25.4334 9.47995C25.7684 10.435 25.9367 10.9133 26.2617 11.2633C26.5884 11.6166 27.035 11.8033 27.93 12.175L28.745 12.515C31.895 13.825 33.47 14.4816 33.6484 15.82C33.8017 16.9633 32.8534 17.9583 30.915 19.6366" stroke="#FFBD16" stroke-width="1.5"/>
<path d="M25.7533 17.8149C24.1083 15.8483 23.2866 14.8649 22.34 15.0149C21.395 15.1666 20.9533 16.3533 20.07 18.7266L19.84 19.3399C19.59 20.0149 19.4633 20.3516 19.2183 20.5999C18.975 20.8483 18.6383 20.9799 17.9683 21.2433L17.3566 21.4816C14.995 22.4066 13.8133 22.8699 13.6783 23.8149C13.5433 24.7599 14.545 25.5633 16.5466 27.1666L17.0633 27.5833C17.6333 28.0383 17.9183 28.2666 18.0816 28.5783C18.2483 28.8899 18.2733 29.2516 18.325 29.9733L18.3733 30.6299C18.5566 33.1683 18.65 34.4383 19.5116 34.8716C20.3733 35.3049 21.435 34.6133 23.5566 33.2333L24.105 32.8749C24.7083 32.4833 25.01 32.2866 25.355 32.2299C25.7016 32.1749 26.055 32.2666 26.7566 32.4499L27.3983 32.6166C29.8733 33.2599 31.1116 33.5833 31.78 32.9049C32.4483 32.2266 32.1016 30.9983 31.4116 28.5383L31.2316 27.9049C31.0366 27.2049 30.9383 26.8549 30.9866 26.5099C31.0366 26.1633 31.2283 25.8599 31.61 25.2499L31.96 24.6966C33.305 22.5549 33.9766 21.4849 33.5266 20.6333C33.0783 19.7816 31.805 19.7116 29.2566 19.5749L28.5966 19.5383C27.8733 19.4999 27.51 19.4799 27.195 19.3216C26.8783 19.1633 26.645 18.8833 26.1783 18.3233L25.7533 17.8149Z" stroke="#E94D11" stroke-width="1.5"/>
</svg>
