<svg width="1136" height="482" viewBox="0 0 1136 482" fill="none" xmlns="http://www.w3.org/2000/svg">
<g clip-path="url(#clip0_328_12673)">
<path d="M386.024 88.9198V274.231H425.472V332.448H385.829V382.875H312.957V332.448H195V271.976C215.728 246.83 236.327 217.653 256.796 184.445C277.395 151.237 294.107 119.395 306.933 88.9198H386.024ZM312.762 274.231V188.135C300.844 215.877 284.455 244.575 263.598 274.231H312.762Z" fill="#4D5C6B"/>
<path d="M673.297 233.438C673.297 283.865 664.164 322.267 645.897 348.642C627.76 374.881 601.202 388 566.223 388C530.466 388 503.714 375.906 485.966 351.717C468.346 327.528 459.537 290.083 459.537 239.382C459.537 188.545 469.059 149.938 488.103 123.563C507.277 97.1877 534.936 84 571.081 84C639.225 84 673.297 133.813 673.297 233.438ZM591.68 233.438C591.68 204.192 589.736 182.6 585.85 168.661C581.963 154.722 575.68 147.752 567 147.752C550.029 147.752 541.543 177.68 541.543 237.537C541.543 266.919 543.486 288.717 547.373 302.929C551.389 317.005 557.672 324.043 566.223 324.043C583.194 324.043 591.68 293.841 591.68 233.438Z" fill="#4D5C6B"/>
<path d="M899.552 88.9198V274.231H939V332.448H899.357V382.875H826.484V332.448H708.528V271.976C729.256 246.83 749.855 217.653 770.324 184.445C790.923 151.237 807.635 119.395 820.46 88.9198H899.552ZM826.29 274.231V188.135C814.371 215.877 797.983 244.575 777.125 274.231H826.29Z" fill="#4D5C6B"/>
<mask id="mask0_328_12673" style="mask-type:alpha" maskUnits="userSpaceOnUse" x="195" y="84" width="744" height="304">
<path d="M386.024 88.9198V274.231H425.472V332.448H385.829V382.875H312.957V332.448H195V271.976C215.728 246.83 236.327 217.653 256.796 184.445C277.395 151.237 294.107 119.395 306.933 88.9198H386.024ZM312.762 274.231V188.135C300.844 215.877 284.455 244.575 263.598 274.231H312.762Z" fill="#4D5C6B"/>
<path d="M673.297 233.438C673.297 283.865 664.164 322.267 645.897 348.642C627.76 374.881 601.202 388 566.223 388C530.466 388 503.714 375.906 485.966 351.717C468.346 327.528 459.537 290.083 459.537 239.382C459.537 188.545 469.059 149.938 488.103 123.563C507.277 97.1877 534.936 84 571.081 84C639.225 84 673.297 133.813 673.297 233.438ZM591.68 233.438C591.68 204.192 589.736 182.6 585.85 168.661C581.963 154.722 575.68 147.752 567 147.752C550.029 147.752 541.543 177.68 541.543 237.537C541.543 266.919 543.486 288.717 547.373 302.929C551.389 317.005 557.672 324.043 566.223 324.043C583.194 324.043 591.68 293.841 591.68 233.438Z" fill="#4D5C6B"/>
<path d="M899.552 88.9198V274.231H939V332.448H899.357V382.875H826.484V332.448H708.528V271.976C729.256 246.83 749.855 217.653 770.324 184.445C790.923 151.237 807.635 119.395 820.46 88.9198H899.552ZM826.29 274.231V188.135C814.371 215.877 797.983 244.575 777.125 274.231H826.29Z" fill="#4D5C6B"/>
</mask>
<g mask="url(#mask0_328_12673)">
<circle cx="899" cy="104" r="50" fill="#E94D11"/>
<circle cx="849.5" cy="85.5" r="42.5" fill="#E94D11"/>
<circle cx="880.5" cy="150.5" r="25.5" fill="#E94D11"/>
<circle cx="855" cy="138" r="24" fill="#E94D11"/>
</g>
<path d="M664.053 329.753C661.664 333.871 662.649 339.038 666.414 342.081C673.912 348.14 681.49 354.131 689.146 360.054C700.069 339.479 710.992 318.903 721.914 298.327C713.068 296.122 704.231 293.82 695.405 291.424C690.785 290.17 685.891 292.12 683.564 296.131C677.061 307.339 670.557 318.546 664.053 329.753Z" fill="url(#paint0_linear_328_12673)"/>
<path d="M763.025 391.806L745.054 453.306L689.448 425.057L709.796 364.765L763.025 391.806Z" fill="#26264F"/>
<path d="M673.21 309.866C674.724 307.14 673.618 303.743 670.739 302.281L625.193 279.143C622.314 277.681 618.752 278.705 617.238 281.432L616.949 281.952C615.435 284.678 616.542 288.074 619.421 289.537L664.967 312.675C667.846 314.137 671.407 313.113 672.922 310.386L673.21 309.866Z" fill="#28272D"/>
<path d="M684.83 309.216C687.009 305.294 685.417 300.408 681.275 298.304L680.909 298.118C676.767 296.014 671.644 297.488 669.466 301.411L662.924 313.191C660.746 317.113 662.337 321.999 666.479 324.103L666.845 324.289C670.987 326.393 676.111 324.919 678.289 320.996L684.83 309.216Z" fill="#26264F"/>
<path opacity="0.3" d="M664.131 329.324C661.742 333.441 662.727 338.609 666.493 341.652C673.99 347.711 681.568 353.701 689.224 359.625C700.147 339.05 711.07 318.474 721.992 297.898C713.146 295.692 704.309 293.391 695.483 290.995C690.863 289.741 685.969 291.69 683.642 295.702C677.139 306.91 670.635 318.117 664.131 329.324Z" fill="#E94D11"/>
<path d="M722.154 297.749L688.1 359.073L762.729 396.986C777.885 404.685 796.625 399.294 804.596 384.939L809.791 375.585C817.762 361.231 811.939 343.361 796.783 335.662L722.154 297.749Z" fill="#E94D11"/>
<path opacity="0.3" d="M796.783 335.662L762.728 396.986C778.093 404.791 796.625 399.294 804.596 384.939L809.79 375.585C817.761 361.231 812.148 343.467 796.783 335.662Z" fill="#E94D11"/>
<path d="M776.412 344.47C777.806 341.959 776.787 338.831 774.136 337.484L734.352 317.273C731.7 315.926 728.419 316.87 727.025 319.381L726.881 319.641C725.486 322.152 726.505 325.28 729.157 326.627L768.941 346.838C771.593 348.185 774.873 347.241 776.268 344.73L776.412 344.47Z" fill="#FFBD16"/>
<path d="M752.933 465.303C756.121 459.562 753.792 452.413 747.73 449.334L684.075 416.996C678.014 413.917 670.516 416.074 667.329 421.815C664.141 427.555 666.47 434.705 672.532 437.784L736.186 470.121C742.248 473.2 749.745 471.043 752.933 465.303Z" fill="#E94D11"/>
<path d="M502.234 160.281C506.443 162.418 511.73 160.456 514.044 155.899C516.358 151.342 514.821 145.915 510.613 143.778C510.395 143.667 510.172 143.574 509.949 143.485C510.731 140.964 511.32 138.422 511.716 135.88C511.957 135.879 512.199 135.875 512.445 135.853C517.247 135.425 521.058 131.013 520.957 125.998C520.857 120.983 516.883 117.264 512.081 117.693C511.83 117.715 511.583 117.755 511.338 117.798C510.837 115.313 510.15 112.885 509.282 110.535C509.503 110.406 509.723 110.273 509.938 110.122C514.046 107.244 515.359 101.564 512.871 97.4347C510.383 93.3055 505.036 92.2916 500.928 95.1696C500.718 95.3172 500.519 95.4764 500.324 95.6381C498.701 93.8445 496.922 92.182 494.996 90.665C495.132 90.4429 495.264 90.2182 495.384 89.9821C497.698 85.425 500.721 80.447 496.48 78.3764C486.667 73.5863 482.457 77.6867 480.143 82.244C480.023 82.4801 479.92 82.7197 479.821 82.9599C477.46 82.3006 475.067 81.8449 472.662 81.5934C472.677 81.34 472.688 81.0862 472.683 80.8291C472.583 75.8143 474.071 73.1004 469.251 73.0066C458.741 72.8023 455.194 77.3643 455.295 82.379C455.3 82.6412 455.322 82.8974 455.348 83.1519C452.939 83.8384 450.574 84.7164 448.271 85.778C448.162 85.5544 448.049 85.3319 447.919 85.1161C445.431 80.987 440.084 79.973 435.975 82.8514C431.867 85.7295 430.554 91.4099 433.042 95.5389C433.169 95.7505 433.309 95.9483 433.45 96.1435C431.631 97.963 429.927 99.9386 428.353 102.058C428.15 101.93 427.943 101.805 427.725 101.695C423.516 99.5578 418.229 101.52 415.915 106.077C413.601 110.634 415.138 116.061 419.346 118.197C419.564 118.308 419.787 118.401 420.01 118.49C419.228 121.012 418.639 123.553 418.243 126.095C418.002 126.096 417.76 126.1 417.514 126.122C412.712 126.55 408.901 130.962 409.002 135.977C409.102 140.992 413.077 144.711 417.878 144.283C418.129 144.26 418.376 144.221 418.621 144.177C419.122 146.663 419.809 149.09 420.677 151.44C420.456 151.569 420.236 151.703 420.021 151.853C415.913 154.731 414.6 160.412 417.088 164.541C419.576 168.67 427.812 170.589 431.92 167.71C432.131 167.563 429.439 166.499 429.635 166.338C431.258 168.131 433.037 169.794 434.962 171.311C434.827 171.533 434.695 171.758 434.575 171.994C432.261 176.551 433.797 181.977 438.006 184.114C442.215 186.251 447.502 184.289 449.816 179.732C449.936 179.496 450.039 179.256 450.138 179.016C452.499 179.675 454.891 180.131 457.297 180.382C457.282 180.635 457.27 180.889 457.275 181.146C457.376 186.161 461.35 189.88 466.152 189.452C470.953 189.024 474.764 184.611 474.664 179.596C474.659 179.334 474.637 179.078 474.611 178.824C477.019 178.137 479.385 177.259 481.687 176.197C481.797 176.421 481.91 176.643 482.04 176.859C484.528 180.988 489.875 182.003 493.983 179.124C498.092 176.246 499.405 170.566 496.917 166.436C496.79 166.225 496.65 166.027 496.508 165.832C498.327 164.013 500.031 162.037 501.605 159.918C501.81 160.046 502.016 160.17 502.234 160.281ZM449.769 160.947C434.488 153.188 428.911 133.486 437.312 116.94C445.712 100.394 464.91 93.2706 480.191 101.029C495.471 108.787 501.049 128.489 492.648 145.035C484.247 161.581 465.05 168.705 449.769 160.947Z" fill="#FFBD16"/>
<path d="M512.445 135.854C517.247 135.426 521.058 131.013 520.957 125.998C520.857 120.983 516.882 117.265 512.081 117.693C511.83 117.715 511.583 117.755 511.338 117.798C510.837 115.313 510.15 112.885 509.282 110.536C509.503 110.407 509.723 110.273 509.938 110.122C514.046 107.244 519.128 100.29 516.23 96.4379C510.729 89.1271 505.036 92.2916 500.928 95.1697C500.718 95.3173 500.52 95.4765 500.324 95.6379C498.701 93.8442 496.922 92.182 494.996 90.665C495.131 90.4431 495.264 90.2184 495.384 89.9823C496.643 87.5021 496.754 84.7676 495.923 82.4428C491.955 89.4266 488.04 96.4397 484.196 103.491C496.386 112.424 500.267 130.028 492.648 145.036C486.19 157.754 473.355 164.895 460.822 164C460.263 165.45 459.714 166.908 459.115 168.343C457.491 172.24 455.645 176.056 453.797 179.868C454.959 180.087 456.126 180.26 457.297 180.382C457.282 180.636 457.27 180.89 457.275 181.146C457.376 186.161 460.421 190.422 469.123 189.961C473.937 189.706 474.764 184.612 474.664 179.596C474.658 179.335 474.637 179.078 474.611 178.824C477.019 178.137 479.385 177.259 481.687 176.198C481.797 176.421 481.91 176.643 482.04 176.859C484.528 180.988 493.159 182.743 497.267 179.864C501.375 176.986 499.405 170.566 496.917 166.436C496.789 166.225 496.65 166.027 496.508 165.832C498.327 164.013 500.031 162.037 501.605 159.918C501.809 160.045 502.015 160.17 502.233 160.281C506.442 162.418 511.729 160.456 514.043 155.898C516.357 151.341 514.821 145.915 510.612 143.778C510.394 143.667 510.172 143.574 509.948 143.485C510.73 140.964 511.32 138.422 511.715 135.88C511.957 135.88 512.199 135.876 512.445 135.854Z" fill="#FFBD16"/>
<path d="M506.761 160.796C510.97 162.933 516.257 160.971 518.571 156.413C520.885 151.856 519.349 146.43 515.14 144.293C514.922 144.182 514.699 144.089 514.476 144C515.258 141.479 515.848 138.937 516.243 136.395C516.484 136.394 516.726 136.39 516.972 136.368C521.774 135.94 525.585 131.528 525.484 126.513C525.384 121.498 521.41 117.779 516.608 118.207C516.357 118.23 516.111 118.269 515.865 118.313C515.364 115.827 514.677 113.4 513.81 111.05C514.03 110.921 514.25 110.787 514.465 110.637C518.573 107.759 519.886 102.078 517.399 97.9492C514.911 93.8201 509.564 92.8061 505.455 95.6841C505.245 95.8317 505.047 95.9909 504.851 96.1526C503.229 94.359 501.449 92.6966 499.524 91.1796C499.659 90.9578 499.791 90.7327 499.911 90.4967C502.225 85.9397 500.689 80.5131 496.48 78.3762C492.272 76.2394 486.984 78.2014 484.67 82.7586C484.55 82.9947 484.447 83.2344 484.348 83.4746C481.987 82.8153 479.595 82.3596 477.189 82.1081C477.204 81.8545 477.216 81.6008 477.211 81.3438C477.11 76.3289 473.136 72.6104 468.334 73.0384C463.532 73.4664 459.722 77.8788 459.822 82.8936C459.827 83.1559 459.849 83.4119 459.875 83.6664C457.466 84.3531 455.101 85.2309 452.798 86.2925C452.689 86.0689 452.576 85.8466 452.446 85.6306C449.958 81.5015 444.611 80.4875 440.502 83.3657C436.394 86.244 435.081 91.9244 437.569 96.0534C437.696 96.2648 437.836 96.4627 437.978 96.658C436.159 98.4774 434.455 100.453 432.881 102.572C432.677 102.445 432.471 102.32 432.252 102.209C428.044 100.072 422.756 102.034 420.443 106.591C418.129 111.149 419.665 116.575 423.874 118.712C424.092 118.823 424.314 118.916 424.538 119.005C423.756 121.526 423.166 124.068 422.771 126.61C422.529 126.611 422.287 126.615 422.041 126.637C417.24 127.065 413.429 131.477 413.529 136.492C413.63 141.507 417.604 145.225 422.406 144.798C422.657 144.775 422.903 144.736 423.148 144.692C423.65 147.177 424.337 149.605 425.204 151.955C424.983 152.084 424.763 152.217 424.549 152.368C420.441 155.246 419.127 160.927 421.615 165.055C424.103 169.185 429.45 170.199 433.558 167.321C433.769 167.173 433.967 167.014 434.162 166.852C435.785 168.646 437.565 170.308 439.49 171.825C439.355 172.047 439.222 172.272 439.102 172.508C436.789 177.065 438.325 182.492 442.533 184.629C446.742 186.765 452.03 184.803 454.343 180.246C454.463 180.01 454.567 179.77 454.666 179.53C457.027 180.189 459.419 180.645 461.825 180.897C461.81 181.15 461.798 181.404 461.803 181.661C461.904 186.676 465.878 190.394 470.679 189.966C475.481 189.538 479.292 185.126 479.191 180.111C479.186 179.849 479.164 179.593 479.138 179.338C481.547 178.652 483.912 177.774 486.215 176.712C486.324 176.936 486.438 177.158 486.568 177.374C489.056 181.503 494.403 182.517 498.511 179.639C502.619 176.761 503.933 171.08 501.445 166.951C501.317 166.739 501.178 166.542 501.036 166.347C502.855 164.527 504.559 162.551 506.133 160.432C506.337 160.56 506.543 160.685 506.761 160.796ZM454.296 161.462C439.016 153.703 433.438 134.001 441.839 117.455C450.24 100.909 469.437 93.7855 484.718 101.544C499.999 109.302 505.576 129.005 497.175 145.551C488.774 162.096 469.577 169.22 454.296 161.462Z" fill="#E94D11"/>
<path d="M205.999 217.689C183.306 221.656 168.19 207.055 156.965 198.236C142.145 186.593 130.898 192.605 130.898 192.605L147.045 223.093C170.717 245.363 194.453 239.872 209.337 232.229C209.456 226.279 207.828 221.333 205.999 217.689Z" fill="#E94D11"/>
<path d="M237.723 203.014L230.255 207.366C221.311 213.248 213.268 216.418 206 217.689C207.829 221.333 209.457 226.279 209.338 232.229C218.813 227.365 224.703 221.629 224.703 221.629C241.601 210.741 237.723 203.014 237.723 203.014Z" fill="url(#paint1_linear_328_12673)"/>
<path d="M152.706 415.653L151.026 424.344C148.144 439.257 153.97 452.919 164.041 454.86L176.014 457.167C186.085 459.107 196.585 448.591 199.468 433.678L201.148 424.987C201.259 424.412 201.358 423.833 201.444 423.254L240.104 163.459L214.02 158.432L153.076 413.933C152.941 414.504 152.817 415.077 152.706 415.653ZM164.96 417.306C167.131 406.079 174.306 398.02 180.988 399.308C187.67 400.595 191.328 410.741 189.157 421.969C186.987 433.197 179.811 441.255 173.129 439.968C166.447 438.679 162.79 428.534 164.96 417.306Z" fill="#28272D"/>
<path d="M217.888 67.8497L208.141 118.277C207.447 121.868 208.462 125.576 210.887 128.316L223.319 142.361C226.868 146.37 232.676 147.489 237.465 145.087L254.239 136.67C257.511 135.028 259.835 131.963 260.529 128.373L270.276 77.945C271.746 70.339 281.568 67.8874 286.306 74.0203C297.644 88.6933 302.848 108.317 298.969 128.381C291.96 164.646 258.817 184.135 223.882 177.403C188.946 170.671 165.448 140.267 172.457 104.002C176.335 83.9381 188.479 67.6575 204.472 58.2507C211.157 54.3194 219.358 60.2437 217.888 67.8497Z" fill="#28272D"/>
<path d="M222.645 68.7675L212.898 119.195C212.204 122.785 213.219 126.494 215.644 129.234L228.077 143.279C231.626 147.288 237.433 148.407 242.222 146.005L258.996 137.589C262.269 135.947 264.593 132.881 265.287 129.291L275.034 78.8635C276.504 71.2567 286.325 68.8052 291.064 74.9388C302.402 89.6118 307.605 109.236 303.727 129.3C296.718 165.565 263.575 185.054 228.639 178.322C193.704 171.59 170.205 141.186 177.215 104.921C181.093 84.8566 193.238 68.5759 209.23 59.1692C215.913 55.2364 224.115 61.1607 222.645 68.7675Z" fill="url(#paint2_linear_328_12673)"/>
<path d="M156.503 416.385L154.823 425.076C151.94 439.989 157.767 453.651 167.838 455.592L179.811 457.9C189.882 459.84 200.382 449.324 203.265 434.411L204.945 425.72C205.056 425.145 205.155 424.566 205.241 423.987L243.901 164.192L217.817 159.165L156.873 414.666C156.738 415.236 156.614 415.81 156.503 416.385ZM168.757 418.038C170.927 406.81 178.103 398.752 184.785 400.039C191.467 401.327 195.125 411.472 192.954 422.7C190.784 433.928 183.608 441.987 176.926 440.699C170.245 439.412 166.587 429.265 168.757 418.038Z" fill="url(#paint3_linear_328_12673)"/>
<path d="M238.696 214.261C238.974 212.632 238.497 210.978 237.415 209.728C235.318 207.305 231.694 203.986 229.066 206.223C225.151 209.555 229.44 220.95 229.44 220.95L233.781 227.567L233.842 231.791C236.189 229.047 237.593 222.294 238.696 214.261Z" fill="url(#paint4_linear_328_12673)"/>
<path d="M89.7867 268.863C86.5285 272.47 81.6905 275.625 78.2812 277.599C83.5466 283.852 90.6289 290.08 99.9635 296.131L102.713 301.991L110.973 291.718C110.973 291.718 95.6654 284.468 89.7867 268.863Z" fill="url(#paint5_linear_328_12673)"/>
<path d="M138.641 459.836C138.641 459.655 138.625 459.472 138.576 459.289C135.633 448.504 121.919 442.011 121.919 442.011L116.543 442.534C113.628 452.143 114.137 457.994 114.683 460.593C114.698 460.666 114.722 460.735 114.742 460.805C119.191 461.117 128.337 461.204 138.641 459.836Z" fill="#28272D"/>
<path d="M114.746 460.805C115.002 461.671 115.659 462.338 116.487 462.495C122.83 463.703 132.852 462.446 137.057 461.816C137.985 461.676 138.649 460.805 138.646 459.835C128.341 461.204 119.195 461.117 114.746 460.805Z" fill="#28272D"/>
<path d="M114.227 434.567L116.714 445.485C116.897 446.284 117.526 446.874 118.276 446.93C119.194 446.999 120.499 447.025 121.807 446.808C122.98 446.613 123.777 445.404 123.544 444.127L121.775 434.425L114.227 434.567Z" fill="url(#paint6_linear_328_12673)"/>
<path d="M161.969 459.805C156.02 459.751 152.93 459.11 151.328 458.491C151.336 459.081 151.35 459.682 151.381 460.304C151.414 460.968 151.918 461.49 152.524 461.475L185.169 460.649C186.21 460.622 186.797 459.404 186.328 458.459C182.052 458.892 171.165 459.888 161.969 459.805Z" fill="#28272D"/>
<path d="M186.327 458.459C186.286 458.377 186.251 458.292 186.193 458.216C183.234 454.247 175.738 446.376 161.161 443.175L154.196 443.087C154.196 443.087 151.198 448.525 151.328 458.491C152.93 459.11 156.019 459.751 161.969 459.805C171.166 459.888 182.053 458.892 186.327 458.459Z" fill="#28272D"/>
<path d="M152.707 432.577C152.794 433.094 153.897 440.95 154.325 443.996C154.426 444.72 154.963 445.272 155.628 445.338C156.816 445.457 158.737 445.55 160.408 445.175C161.311 444.972 161.949 444.091 161.93 443.082L161.696 430.721L152.707 432.577Z" fill="url(#paint7_linear_328_12673)"/>
<path d="M144.405 288.979C144.405 288.979 162.4 352.374 163.613 432.554C163.635 434.016 162.631 435.297 161.204 435.625C159.101 436.109 156.008 436.695 153.437 436.671C152.065 436.658 150.9 435.664 150.643 434.318C148.028 420.577 133.048 343.175 125.113 330.712C125.113 330.712 121.356 399.973 123.654 435.826C123.711 436.718 123.071 437.504 122.184 437.623C120.839 437.805 118.685 437.963 115.935 437.724C114.892 437.633 114.036 436.862 113.867 435.83C111.97 424.195 101.005 354.932 100.469 304.9C100.438 302.078 107.656 289.672 107.656 289.672L144.405 288.979Z" fill="#AAABA6"/>
<path d="M166.297 211.433C163.507 208.074 161.051 204.463 158.983 200.735C156.094 195.526 158.823 204.144 157.949 198.218C136.779 183.563 105.473 191.773 93.3375 193.532C89.3579 194.109 85.7471 196.141 83.1763 199.228C72.9796 211.469 50.7292 244.878 78.2812 277.599C81.6905 275.624 86.5285 272.469 89.7867 268.863C86.6493 260.536 86.2026 249.827 92.1968 236.57C92.4294 237.608 92.7131 238.634 93.0523 239.642C102.171 266.697 103.059 289.336 103.138 294.556C103.148 295.265 103.587 295.895 104.251 296.147C115.661 300.464 137.408 297.356 144.704 296.13C146.042 295.905 146.921 294.64 146.71 293.303C142.627 267.392 160.25 224.311 164.915 213.516C165.251 212.739 165.722 212.036 166.297 211.433Z" fill="#E94D11"/>
<path d="M112.496 171.289L110.734 193.593C110.734 193.593 123.349 197.129 132.351 190.529L125.555 170.416L112.496 171.289Z" fill="url(#paint8_linear_328_12673)"/>
<path d="M126.568 145.64C126.875 145.918 139.775 170.074 139.775 170.074L125.805 177.136L110.172 156.055C110.172 156.055 121.424 140.984 126.568 145.64Z" fill="url(#paint9_linear_328_12673)"/>
<path d="M116.423 156.528C116.184 157.182 116.259 157.906 116.629 158.496L123.883 170.068C123.993 170.243 124.123 170.401 124.278 170.54C125.129 171.302 128.036 173.51 130.192 170.388C132.029 167.727 133.754 165.307 135.633 164.286C136.73 163.69 138.103 164.124 138.686 165.226C139.888 167.497 142.22 172.128 143.714 176.534C144.088 177.638 143.536 178.841 142.463 179.299C139.63 180.508 134.028 182.703 129.033 183.487C128.213 183.616 127.392 183.285 126.89 182.625C124.68 179.719 118.453 171.599 116.342 169.578C114.381 167.699 110.841 168.488 109.249 168.978C108.644 169.163 107.996 169.092 107.447 168.777C105.805 167.831 102.924 165.451 105.439 161.284C106.064 160.248 105.71 158.89 104.685 158.244C102.849 157.087 100.838 154.888 102.645 151.232C104.474 147.531 107.857 147.138 110.171 147.376C111.194 147.481 112.222 146.927 112.595 145.97C112.761 145.544 113.099 145.177 113.738 145.035C114.943 144.767 115.716 143.648 115.456 142.442C115.01 140.375 115.266 137.675 118.548 135.792C124.568 132.337 129.999 137.678 131.441 142.246C132.883 146.814 126.143 150.189 121.875 150.811C118.74 151.268 117.082 154.725 116.423 156.528Z" fill="#28272D"/>
<path d="M119.066 173.825C119.066 173.825 116.211 165.974 112.755 166.329C109.297 166.684 106.637 170.179 111.001 173.97C116.43 178.686 119.066 173.825 119.066 173.825Z" fill="url(#paint10_linear_328_12673)"/>
<path d="M133.835 138.309L101.542 163.421C101.075 163.784 100.39 163.509 100.306 162.924L99.9708 160.623C99.9708 160.623 86.5307 147.129 100.34 134.931C114.149 122.734 130.441 136.552 130.441 136.552L133.565 137.17C134.107 137.277 134.271 137.969 133.835 138.309Z" fill="#E94D11"/>
<g clip-path="url(#clip1_328_12673)">
<path d="M1069.68 450.919L942.137 204.686C941.42 203.304 941.962 201.596 943.343 200.879C944.724 200.162 946.43 200.704 947.147 202.086L1074.69 448.319C1075.4 449.701 1074.86 451.409 1073.48 452.126C1073.08 452.334 1072.63 452.444 1072.18 452.444C1071.12 452.444 1070.16 451.86 1069.68 450.919Z" fill="#E94D11"/>
<path d="M1009.09 452.8L900.074 202.076C899.454 200.648 900.108 198.98 901.536 198.359C902.962 197.738 904.627 198.395 905.249 199.822L1014.26 450.547C1014.56 451.239 1014.58 452.007 1014.3 452.709C1014.02 453.411 1013.49 453.963 1012.8 454.264C1012.44 454.421 1012.06 454.5 1011.68 454.5C1010.55 454.498 1009.53 453.832 1009.09 452.8Z" fill="#E94D11"/>
<path d="M923.26 249.803H967.477C968.451 249.803 969.241 249.013 969.241 248.038C969.241 247.063 968.451 246.272 967.477 246.272H923.26C922.286 246.272 921.496 247.063 921.496 248.038C921.496 249.013 922.286 249.803 923.26 249.803Z" fill="#E94D11"/>
<path d="M935.076 277.223H979.294C980.268 277.223 981.057 276.432 981.057 275.457C981.057 274.482 980.268 273.692 979.294 273.692H935.076C934.102 273.692 933.312 274.482 933.312 275.457C933.312 276.432 934.102 277.223 935.076 277.223Z" fill="#E94D11"/>
<path d="M950.658 310.056H997.69C998.664 310.056 999.454 309.265 999.454 308.29C999.454 307.315 998.664 306.525 997.69 306.525H950.658C949.684 306.525 948.895 307.315 948.895 308.29C948.895 309.265 949.684 310.056 950.658 310.056Z" fill="#E94D11"/>
<path d="M911.51 223.206H953.696C954.67 223.206 955.459 222.416 955.459 221.441C955.459 220.466 954.67 219.676 953.696 219.676H911.51C910.536 219.676 909.746 220.466 909.746 221.441C909.746 222.416 910.536 223.206 911.51 223.206Z" fill="#E94D11"/>
<path d="M966.178 347.831H1017.28C1018.26 347.831 1019.05 347.04 1019.05 346.066C1019.05 345.091 1018.26 344.3 1017.28 344.3H966.178C965.204 344.3 964.414 345.091 964.414 346.066C964.414 347.04 965.204 347.831 966.178 347.831Z" fill="#E94D11"/>
<path d="M978.182 377.134H1033C1033.97 377.134 1034.76 376.343 1034.76 375.368C1034.76 374.393 1033.97 373.603 1033 373.603H978.182C977.208 373.603 976.418 374.393 976.418 375.368C976.418 376.343 977.208 377.134 978.182 377.134Z" fill="#E94D11"/>
</g>
<path d="M1024.8 225.17C1026.86 227.365 1029.88 229.262 1032.01 230.445C1028.83 234.378 1024.53 238.317 1018.84 242.173L1017.21 245.833L1011.98 239.568C1011.98 239.568 1021.35 234.901 1024.8 225.17Z" fill="url(#paint11_linear_328_12673)"/>
<path opacity="0.55" d="M1011.58 282.483C1013.62 284.895 1017.25 285.151 1019.6 283.05L1026.4 276.991C1028.76 274.889 1028.92 271.256 1026.77 268.95L921.486 157.35L912.988 164.926L1011.58 282.483ZM1002.15 263.97C996.5 257.619 993.561 251.008 995.586 249.203C997.611 247.399 1003.83 251.083 1009.48 257.433C1015.13 263.784 1018.07 270.395 1016.05 272.199C1014.02 274.005 1007.8 270.32 1002.15 263.97Z" fill="#E94D11"/>
<path opacity="0.55" d="M912.984 164.925L921.482 157.349L952.807 190.817L942.58 199.934L912.984 164.925Z" fill="#E94D11"/>
<path d="M891.761 187.044L945.882 138.798C949.565 135.515 949.892 129.864 946.612 126.176L945.811 125.275L878.352 185.413L879.152 186.313C882.432 190 888.078 190.328 891.761 187.044Z" fill="#E94D11"/>
<path d="M878.811 185.578L946.271 125.441C929.072 106.747 914.582 87.6484 906.02 67.6653L893.799 78.5601L892.046 92.8454L881.823 89.236L866.071 103.277L863.595 115.794L856.403 111.896L837.461 128.783C841.413 147.395 859.088 166.453 878.811 185.578Z" fill="url(#paint12_linear_328_12673)"/>
<path d="M881.956 176.91C859.443 155.691 846.205 132.183 846.074 131.949L846.819 131.532C846.95 131.766 860.129 155.163 882.542 176.288L881.956 176.91Z" fill="white"/>
<path d="M885.723 173.57C866.481 156.581 850.631 128.309 850.473 128.026L851.219 127.61C851.376 127.892 867.157 156.039 886.288 172.929L885.723 173.57Z" fill="white"/>
<path d="M905.683 155.821C883.743 139.448 871.241 109.856 871.117 109.558L871.905 109.229C872.028 109.524 884.444 138.905 906.193 155.137L905.683 155.821Z" fill="white"/>
<path d="M910.929 151.15C889.96 135.651 876.373 105.313 876.238 105.009L877.019 104.664C877.153 104.966 890.651 135.101 911.435 150.463L910.929 151.15Z" fill="white"/>
<path d="M931.365 132.829C909.741 109.745 900.992 85.414 900.906 85.1713L901.71 84.886C901.796 85.1278 910.493 109.298 931.987 132.245L931.365 132.829Z" fill="white"/>
<path d="M996.86 343.988C996.858 343.876 996.866 343.762 996.894 343.648C998.585 336.936 1006.98 332.755 1006.98 332.755L1010.31 333.017C1012.22 338.932 1011.97 342.561 1011.67 344.177C1011.66 344.222 1011.64 344.265 1011.63 344.31C1008.89 344.554 1003.24 344.715 996.86 343.988Z" fill="#28272D"/>
<path d="M1011.63 344.309C1011.48 344.849 1011.09 345.268 1010.58 345.376C1006.67 346.198 1000.47 345.537 997.863 345.196C997.289 345.121 996.869 344.588 996.859 343.988C1003.24 344.715 1008.89 344.554 1011.63 344.309Z" fill="#28272D"/>
<path d="M1011.64 328.056L1010.23 334.845C1010.13 335.343 1009.75 335.715 1009.29 335.759C1008.72 335.812 1007.92 335.843 1007.1 335.724C1006.38 335.617 1005.87 334.878 1006 334.084L1006.98 328.056H1011.64V328.056Z" fill="url(#paint13_linear_328_12673)"/>
<path d="M982.454 344.24C986.128 344.138 988.028 343.705 989.011 343.302C989.013 343.668 989.011 344.04 988.999 344.426C988.986 344.838 988.681 345.167 988.306 345.164L968.135 345.033C967.491 345.029 967.115 344.282 967.394 343.691C970.039 343.91 976.775 344.399 982.454 344.24Z" fill="#28272D"/>
<path d="M967.395 343.692C967.419 343.641 967.44 343.588 967.475 343.54C969.256 341.048 973.793 336.087 982.759 333.934L987.06 333.799C987.06 333.799 988.975 337.13 989.011 343.303C988.029 343.705 986.128 344.138 982.454 344.241C976.775 344.399 970.039 343.91 967.395 343.692Z" fill="#28272D"/>
<path d="M987.855 327.274C987.808 327.594 987.218 332.472 986.99 334.363C986.935 334.813 986.61 335.161 986.2 335.209C985.468 335.297 984.283 335.377 983.246 335.164C982.687 335.05 982.281 334.511 982.281 333.886V326.23L987.855 327.274Z" fill="url(#paint14_linear_328_12673)"/>
<path d="M991.306 238.263C991.306 238.263 980.933 277.726 981.12 327.386C981.123 328.292 981.758 329.073 982.643 329.26C983.948 329.536 985.865 329.862 987.452 329.818C988.3 329.794 989.007 329.165 989.15 328.328C990.604 319.79 998.951 271.688 1003.71 263.878C1003.71 263.878 1006.84 306.72 1005.84 328.947C1005.81 329.5 1006.22 329.979 1006.77 330.042C1007.6 330.139 1008.93 330.211 1010.63 330.031C1011.27 329.963 1011.79 329.476 1011.88 328.834C1012.92 321.608 1018.88 278.594 1018.63 247.607C1018.61 245.86 1014.01 238.263 1014.01 238.263H991.306V238.263Z" fill="#4D5C6B"/>
<path d="M976.879 190.503C978.562 188.39 980.037 186.126 981.271 183.792C982.994 180.533 984.324 176.966 984.796 173.286C996.448 175.314 1014.21 177.619 1021.73 178.567C1024.2 178.878 1026.45 180.094 1028.07 181.976C1034.51 189.436 1048.65 209.862 1032.01 230.445C1029.88 229.262 1026.86 227.365 1024.8 225.17C1026.64 219.977 1026.8 213.341 1022.94 205.203C1022.81 205.848 1022.64 206.487 1022.45 207.116C1017.13 223.974 1016.85 238.002 1016.86 241.235C1016.86 241.675 1016.6 242.069 1016.19 242.233C1009.19 245.039 995.724 243.369 991.204 242.694C990.375 242.57 989.817 241.798 989.932 240.967C992.15 224.876 980.764 198.407 977.756 191.777C977.54 191.299 977.241 190.87 976.879 190.503Z" fill="#28272D"/>
<path d="M1009.64 163.087L1010.99 176.877C1010.99 176.877 1003.24 179.213 997.602 175.232L1001.56 162.699L1009.64 163.087Z" fill="url(#paint15_linear_328_12673)"/>
<path d="M1023.65 203.942C1026.46 196.217 1025.44 186.89 1025.43 186.796L1024.65 186.885C1024.66 186.976 1025.67 196.125 1022.91 203.673L1023.65 203.942Z" fill="#4D5C6B"/>
<path d="M946.01 191.155C960.604 193.346 970.116 184.129 977.204 178.537C986.562 171.155 993.845 174.747 993.845 174.747L983.865 193.813C968.961 207.88 953.68 204.756 944.046 200.198C943.898 196.514 944.881 193.432 946.01 191.155Z" fill="#28272D"/>
<path d="M925.786 178.889L930.336 185.046C936.141 188.583 941.335 190.452 946.008 191.155C944.88 193.432 943.896 196.514 944.045 200.197C937.912 197.295 934.068 193.812 934.068 193.812C923.103 187.268 925.786 178.889 925.786 178.889Z" fill="url(#paint16_linear_328_12673)"/>
<path d="M998.617 150.866C998.617 150.866 992.757 161.909 993.508 166.369C994.259 170.83 1001.52 170.51 1007.86 166.887L1012.3 154.964L998.617 150.866Z" fill="url(#paint17_linear_328_12673)"/>
<path d="M1007.58 161.031C1007.32 160.917 1007.23 160.602 1007.38 160.365C1007.85 159.647 1008.73 158.182 1009.01 156.9C1009.01 156.9 1010.07 156.225 1006.33 155.329C1002.6 154.435 997.028 153.045 995.858 149.863C994.716 146.761 1000.84 142.733 1005.62 148.951C1005.81 149.187 1003.04 145.417 1003.22 145.181C1004 144.159 1006.07 142.038 1008.93 143.324C1011.61 144.527 1011.91 146.492 1011.87 147.483C1011.86 147.774 1012.12 148 1012.41 147.946C1013.76 147.687 1017.02 147.465 1018.53 150.803C1019.78 153.553 1018.97 155.109 1018.23 155.87C1017.99 156.117 1018.1 156.523 1018.42 156.624C1019.31 156.897 1019.01 156.462 1018.9 158.55C1018.74 161.436 1016.96 162.373 1016.05 162.241C1015.9 162.22 1015.74 162.271 1015.64 162.384C1014.86 163.256 1011.31 166.957 1007.47 167.404C1007.14 167.443 1006.88 167.114 1006.99 166.797L1008.65 161.964C1008.73 161.74 1008.62 161.494 1008.41 161.398L1007.58 161.031Z" fill="#28272D"/>
<path d="M1006.92 161.718C1006.92 161.718 1011.09 158.852 1011.39 161.266C1011.7 163.679 1007.64 164.761 1005.62 163.861L1006.92 161.718Z" fill="url(#paint18_linear_328_12673)"/>
<path d="M993.438 146.615L1018.19 165.173L1017.77 163.49C1017.77 163.49 1027.85 152.844 1017.91 144.369C1007.97 135.895 996.618 145.921 996.618 145.921L993.438 146.615Z" fill="#E94D11"/>
</g>
<defs>
<linearGradient id="paint0_linear_328_12673" x1="702.474" y1="290.938" x2="677.837" y2="355.755" gradientUnits="userSpaceOnUse">
<stop stop-color="#FFC444"/>
<stop offset="0.9964" stop-color="#F36F56"/>
</linearGradient>
<linearGradient id="paint1_linear_328_12673" x1="260.87" y1="161.598" x2="156.958" y2="300.066" gradientUnits="userSpaceOnUse">
<stop stop-color="#F9B776"/>
<stop offset="1" stop-color="#F47960"/>
</linearGradient>
<linearGradient id="paint2_linear_328_12673" x1="166.335" y1="257.748" x2="66.1193" y2="448.615" gradientUnits="userSpaceOnUse">
<stop stop-color="#404040"/>
<stop offset="1" stop-color="#AAABA6"/>
</linearGradient>
<linearGradient id="paint3_linear_328_12673" x1="205.306" y1="309.567" x2="69.0214" y2="532.667" gradientUnits="userSpaceOnUse">
<stop stop-color="#404040"/>
<stop offset="1" stop-color="#AAABA6"/>
</linearGradient>
<linearGradient id="paint4_linear_328_12673" x1="217.197" y1="201.817" x2="306.75" y2="293.987" gradientUnits="userSpaceOnUse">
<stop stop-color="#F9B776"/>
<stop offset="1" stop-color="#F47960"/>
</linearGradient>
<linearGradient id="paint5_linear_328_12673" x1="78.4358" y1="285.763" x2="110.849" y2="285.15" gradientUnits="userSpaceOnUse">
<stop stop-color="#F9B776"/>
<stop offset="1" stop-color="#F47960"/>
</linearGradient>
<linearGradient id="paint6_linear_328_12673" x1="120.41" y1="423.897" x2="116.545" y2="464.443" gradientUnits="userSpaceOnUse">
<stop stop-color="#F9B776"/>
<stop offset="1" stop-color="#F47960"/>
</linearGradient>
<linearGradient id="paint7_linear_328_12673" x1="158.312" y1="427.511" x2="154.447" y2="468.056" gradientUnits="userSpaceOnUse">
<stop stop-color="#F9B776"/>
<stop offset="1" stop-color="#F47960"/>
</linearGradient>
<linearGradient id="paint8_linear_328_12673" x1="125.777" y1="165.08" x2="109.546" y2="241.911" gradientUnits="userSpaceOnUse">
<stop stop-color="#F9B776"/>
<stop offset="1" stop-color="#F47960"/>
</linearGradient>
<linearGradient id="paint9_linear_328_12673" x1="122.557" y1="150.328" x2="132.237" y2="201.504" gradientUnits="userSpaceOnUse">
<stop stop-color="#F9B776"/>
<stop offset="1" stop-color="#F47960"/>
</linearGradient>
<linearGradient id="paint10_linear_328_12673" x1="116.04" y1="206.504" x2="113.811" y2="170.484" gradientUnits="userSpaceOnUse">
<stop stop-color="#F9B776"/>
<stop offset="1" stop-color="#F47960"/>
</linearGradient>
<linearGradient id="paint11_linear_328_12673" x1="1032.01" y1="235.501" x2="1011.98" y2="235.501" gradientUnits="userSpaceOnUse">
<stop stop-color="#F9B776"/>
<stop offset="1" stop-color="#F47960"/>
</linearGradient>
<linearGradient id="paint12_linear_328_12673" x1="845.487" y1="98.4245" x2="958.849" y2="166.402" gradientUnits="userSpaceOnUse">
<stop stop-color="#FDF53F"/>
<stop offset="1" stop-color="#D93C65"/>
</linearGradient>
<linearGradient id="paint13_linear_328_12673" x1="1007.7" y1="321.522" x2="1010.57" y2="346.58" gradientUnits="userSpaceOnUse">
<stop stop-color="#F9B776"/>
<stop offset="1" stop-color="#F47960"/>
</linearGradient>
<linearGradient id="paint14_linear_328_12673" x1="984.334" y1="324.203" x2="987.208" y2="349.26" gradientUnits="userSpaceOnUse">
<stop stop-color="#F9B776"/>
<stop offset="1" stop-color="#F47960"/>
</linearGradient>
<linearGradient id="paint15_linear_328_12673" x1="1001.36" y1="159.398" x2="1012.34" y2="206.769" gradientUnits="userSpaceOnUse">
<stop stop-color="#F9B776"/>
<stop offset="1" stop-color="#F47960"/>
</linearGradient>
<linearGradient id="paint16_linear_328_12673" x1="946.008" y1="189.543" x2="925.496" y2="189.543" gradientUnits="userSpaceOnUse">
<stop stop-color="#F9B776"/>
<stop offset="1" stop-color="#F47960"/>
</linearGradient>
<linearGradient id="paint17_linear_328_12673" x1="995.506" y1="163.599" x2="1013.36" y2="152.719" gradientUnits="userSpaceOnUse">
<stop stop-color="#F9B776"/>
<stop offset="1" stop-color="#F47960"/>
</linearGradient>
<linearGradient id="paint18_linear_328_12673" x1="1000.19" y1="167.662" x2="1016.26" y2="157.874" gradientUnits="userSpaceOnUse">
<stop stop-color="#F9B776"/>
<stop offset="1" stop-color="#F47960"/>
</linearGradient>
<clipPath id="clip0_328_12673">
<rect width="1136" height="482" fill="white"/>
</clipPath>
<clipPath id="clip1_328_12673">
<rect width="175.161" height="256.376" fill="white" transform="translate(899.84 198.124)"/>
</clipPath>
</defs>
</svg>
