<svg width="40" height="40" viewBox="0 0 40 40" fill="none" xmlns="http://www.w3.org/2000/svg">
<path d="M25.4261 35.6978L25.4261 35.6979C27.0297 35.1993 28.8601 34.212 30.2866 32.5185C31.7056 30.8339 32.7534 28.4175 32.7534 25C32.7534 21.3451 30.7442 17.4795 27.9615 13.9469C25.191 10.4297 21.7189 7.32472 18.937 5.20488L25.4261 35.6978ZM25.4261 35.6978L25.416 35.7011M25.4261 35.6978L25.416 35.7011M25.416 35.7011C25.3919 35.7091 25.3661 35.711 25.3411 35.7066C25.324 35.701 25.2869 35.6795 25.2646 35.6106C25.2424 35.542 25.2457 35.4474 25.3123 35.352L25.3129 35.3511M25.416 35.7011L25.3129 35.3511M25.3129 35.3511C26.7972 33.2157 28.58 29.8764 28.58 26.6667C28.58 24.8934 27.8383 23.0162 26.8657 21.3193C25.8869 19.6115 24.6392 18.0263 23.5504 16.8212L23.5502 16.821L25.3129 35.3511ZM13.4891 34.3671C13.4698 34.362 13.4512 34.3547 13.4337 34.3453L13.4292 34.3429C10.5511 32.8353 7.24669 29.8329 7.24669 25C7.24669 23.8132 7.65566 22.4666 8.35696 20.9728C9.05592 19.4841 10.0217 17.8971 11.0893 16.2352C11.4424 15.6854 11.8071 15.1271 12.176 14.5622C14.0175 11.7429 15.9669 8.75829 17.1319 5.84365C17.4536 5.03973 18.3763 4.77814 18.937 5.20484L13.4891 34.3671ZM13.4891 34.3671C13.5224 34.3726 13.5806 34.3657 13.6395 34.2737C13.7004 34.1784 13.7176 34.0443 13.6518 33.917L13.4891 34.3671ZM17.4199 23.544C16.906 22.9125 16.0109 22.9391 15.4763 23.4455L21.7517 17.7567L21.1721 17.7355C21.1721 17.7355 21.1721 17.7355 21.1721 17.7355C21.0845 20.132 20.705 23.2266 19.1518 25.6211L19.1516 25.621L19.1443 25.6329C19.1353 25.6476 19.1228 25.6598 19.108 25.6687L19.4043 26.1673L19.108 25.6687C19.0931 25.6775 19.0764 25.6826 19.0591 25.6835C19.0419 25.6844 19.0247 25.6811 19.009 25.6739L18.7672 26.2011L19.009 25.6739C18.9933 25.6667 18.9796 25.6558 18.969 25.6422L18.9691 25.6422L18.9652 25.6372C18.73 25.3394 18.4932 25.0063 18.2459 24.6583L18.2127 24.6117C17.9576 24.2528 17.6908 23.8791 17.4211 23.5454L17.4199 23.544ZM12.3084 29.1667C12.3084 30.8509 12.9549 32.5729 13.6517 33.9168L15.4761 23.4457C14.2466 24.6094 12.3084 26.604 12.3084 29.1667Z" stroke="#E94D11" stroke-width="1.16"/>
<path d="M14.6817 33.3835L14.6816 33.3832C14.0217 32.1105 13.4684 30.5826 13.4684 29.1669C13.4684 27.1597 15.0132 25.4812 16.2737 24.2881L16.274 24.2879C16.3214 24.2429 16.376 24.2265 16.42 24.2278C16.4603 24.2291 16.4929 24.2443 16.5193 24.2769L16.5195 24.2771C16.7628 24.5774 17.0093 24.9214 17.2674 25.2843C17.2816 25.3042 17.2958 25.3242 17.31 25.3443C17.5504 25.6822 17.8009 26.0346 18.0529 26.3539C18.178 26.515 18.3401 26.6435 18.5254 26.7285L18.7672 26.2013L18.5254 26.7285C18.7118 26.8139 18.916 26.8529 19.1207 26.842C19.3254 26.8311 19.5244 26.7707 19.7006 26.666C19.8746 26.5626 20.0212 26.4191 20.1282 26.2475C21.8589 23.5761 22.2423 20.2134 22.3313 17.7781L22.3313 17.778C22.336 17.6509 22.4057 17.5753 22.4812 17.5446C22.5197 17.5289 22.5559 17.5267 22.5855 17.5329C22.6119 17.5384 22.6484 17.5534 22.6898 17.5992C23.7409 18.7625 24.9332 20.2805 25.8593 21.8963C26.7918 23.5232 27.42 25.1902 27.42 26.6669C27.42 29.5104 25.8096 32.6059 24.3608 34.6886C24.1416 35.0029 24.0623 35.3788 24.1087 35.7296C21.6558 35.7896 19.3411 35.6789 17.5 35.4605C16.4446 35.3353 15.5577 35.1762 14.8951 34.9983C14.7924 34.9707 14.6962 34.9429 14.6065 34.9152C14.61 34.9098 14.6135 34.9045 14.6169 34.8991C14.8837 34.4815 14.9524 33.9061 14.6817 33.3835Z" stroke="#FFBD16" stroke-width="1.16"/>
</svg>
