<svg width="81" height="80" viewBox="0 0 81 80" fill="none" xmlns="http://www.w3.org/2000/svg">
<mask id="mask0_225_10732" style="mask-type:luminance" maskUnits="userSpaceOnUse" x="1" y="1" width="79" height="79">
<path d="M1.46021 40.5079C1.46021 62.1782 19.0274 79.7454 40.6976 79.7454C62.3679 79.7454 79.9351 62.1782 79.9351 40.5079C79.9351 18.8377 62.3679 1.27051 40.6976 1.27051C19.0274 1.27051 1.46021 18.8377 1.46021 40.5079Z" fill="white"/>
</mask>
<g mask="url(#mask0_225_10732)">
<path d="M1.46021 40.5079C1.46021 62.1782 19.0274 79.7454 40.6976 79.7454C62.3679 79.7454 79.9351 62.1782 79.9351 40.5079C79.9351 18.8377 62.3679 1.27051 40.6976 1.27051C19.0274 1.27051 1.46021 18.8377 1.46021 40.5079Z" fill="#100943"/>
<path d="M79.7379 40.4099C101.355 40.4099 118.878 22.8861 118.878 1.26936C118.878 -20.3473 101.355 -37.8711 79.7379 -37.8711C58.1213 -37.8711 40.5974 -20.3473 40.5974 1.26936C40.5974 22.8861 58.1213 40.4099 79.7379 40.4099Z" fill="#ED143B"/>
<path d="M49.8139 38.623H26.6869V29.4714H49.8139C51.165 29.4714 52.1041 29.7068 52.5755 30.118C53.0469 30.5292 53.339 31.2918 53.339 32.4058V35.6918C53.339 36.8659 53.0469 37.6285 52.5755 38.0397C52.1041 38.4509 51.165 38.6266 49.8139 38.6266V38.623ZM51.4005 20.8434H16.8789V59.9805H26.6869V47.2474H44.7621L53.339 59.9805H64.3221L54.8657 47.1878C58.3518 46.671 59.9176 45.6026 61.2085 43.8419C62.4997 42.0813 63.147 39.2662 63.147 35.5091V32.5747C63.147 30.3464 62.9112 28.5857 62.4997 27.2362C62.0882 25.8866 61.3845 24.7128 60.3854 23.6584C59.3301 22.6603 58.155 21.9574 56.7442 21.4865C55.3336 21.0753 53.571 20.8398 51.4005 20.8398V20.8434Z" fill="white"/>
</g>
</svg>
