<svg width="81" height="80" viewBox="0 0 81 80" fill="none" xmlns="http://www.w3.org/2000/svg">
<rect x="0.333374" width="80" height="80" rx="40" fill="#0077FF"/>
<path d="M42.2984 54C27.2653 54 18.6907 43.4895 18.3334 26H25.8637C26.111 38.8368 31.6625 44.2743 36.0598 45.3954V26H43.1504V37.0711C47.4927 36.5946 52.0548 31.5495 53.5938 26H60.6844C60.1045 28.8782 58.9484 31.6033 57.2886 34.005C55.6287 36.4067 53.5008 38.4333 51.0379 39.958C53.7871 41.3511 56.2153 43.323 58.1624 45.7435C60.1094 48.164 61.531 50.9781 62.3334 54H54.5283C53.808 51.3752 52.3442 49.0256 50.3202 47.2456C48.2961 45.4657 45.802 44.3345 43.1504 43.994V54H42.2984V54Z" fill="white"/>
</svg>
