<svg width="56" height="56" viewBox="0 0 56 56" fill="none" xmlns="http://www.w3.org/2000/svg">
<rect width="56" height="56" rx="28" fill="#48C95F"/>
<path d="M39.0976 16.8876C36.3317 14.1313 32.6439 12.6001 28.7512 12.6001C20.6585 12.6001 14.1024 19.1334 14.1024 27.198C14.1024 29.7501 14.8195 32.3022 16.0488 34.4459L14 42.0001L21.7854 39.9584C23.9366 41.0813 26.2927 41.6938 28.7512 41.6938C36.8439 41.6938 43.4 35.1605 43.4 27.0959C43.2976 23.3188 41.8634 19.6438 39.0976 16.8876ZM35.8195 32.4043C35.5122 33.2209 34.078 34.0376 33.361 34.1397C32.7463 34.2418 31.9268 34.2418 31.1073 34.0376C30.5951 33.8334 29.878 33.6293 29.0585 33.2209C25.3707 31.6897 23.0146 28.0147 22.8098 27.7084C22.6049 27.5043 21.2732 25.7688 21.2732 23.9313C21.2732 22.0938 22.1951 21.2772 22.5024 20.8688C22.8098 20.4605 23.2195 20.4605 23.5268 20.4605C23.7317 20.4605 24.039 20.4605 24.2439 20.4605C24.4488 20.4605 24.7561 20.3584 25.0634 21.073C25.3707 21.7876 26.0878 23.6251 26.1902 23.7272C26.2927 23.9313 26.2927 24.1355 26.1902 24.3397C26.0878 24.5438 25.9854 24.748 25.7805 24.9522C25.5756 25.1563 25.3707 25.4626 25.2683 25.5647C25.0634 25.7688 24.8585 25.973 25.0634 26.2793C25.2683 26.6876 25.9854 27.8105 27.1122 28.8313C28.5463 30.0563 29.6732 30.4647 30.0829 30.6688C30.4927 30.873 30.6976 30.7709 30.9024 30.5668C31.1073 30.3626 31.8244 29.5459 32.0293 29.1376C32.2341 28.7293 32.5415 28.8313 32.8488 28.9334C33.1561 29.0355 35 29.9543 35.3073 30.1584C35.7171 30.3626 35.9219 30.4647 36.0244 30.5668C36.1268 30.873 36.1268 31.5876 35.8195 32.4043Z" fill="white"/>
</svg>
