<svg width="40" height="40" viewBox="0 0 40 40" fill="none" xmlns="http://www.w3.org/2000/svg">
<path d="M29.204 14.7129H27.8021V17.3106H29.204V14.7129Z" stroke="#4D5C6B" stroke-width="1.1588" stroke-miterlimit="22.9256" stroke-linecap="round" stroke-linejoin="round"/>
<path fill-rule="evenodd" clip-rule="evenodd" d="M29.3649 24.1457H32.7414V17.0713H32.0242C31.6881 20.0388 30.8203 22.4176 29.3649 24.1457Z" stroke="#4D5C6B" stroke-width="1.1588" stroke-miterlimit="22.9256" stroke-linecap="round" stroke-linejoin="round"/>
<path d="M33.7287 17.4805H32.396V18.4765H33.7287V17.4805Z" stroke="#4D5C6B" stroke-width="1.1588" stroke-miterlimit="22.9256" stroke-linecap="round" stroke-linejoin="round"/>
<path d="M33.7265 19.9409H32.3937V20.937H33.7265V19.9409Z" stroke="#4D5C6B" stroke-width="1.1588" stroke-miterlimit="22.9256" stroke-linecap="round" stroke-linejoin="round"/>
<path d="M14.4497 27.2073L10.0715 31.6154" stroke="#4D5C6B" stroke-width="1.1588" stroke-miterlimit="22.9256" stroke-linecap="round" stroke-linejoin="round"/>
<path d="M24.1487 27.2073L28.5268 31.6154" stroke="#4D5C6B" stroke-width="1.1588" stroke-miterlimit="22.9256" stroke-linecap="round" stroke-linejoin="round"/>
<path fill-rule="evenodd" clip-rule="evenodd" d="M13.4756 8.38403L25.2884 8.44044C26.7417 10.5721 27.4784 12.793 27.7512 15.0721C28.3692 20.9277 26.2795 23.924 21.7176 24.3095L15.9407 24.2217C11.5451 23.4216 9.95917 20.118 10.7619 14.686C11.1936 12.3784 11.8617 10.1744 13.4756 8.38403Z" fill="white"/>
<path d="M12.2312 11.0623H17.2106M13.4756 8.38403L25.2884 8.44044C26.7417 10.5721 27.4784 12.793 27.7512 15.0721C28.3692 20.9277 26.2795 23.924 21.7176 24.3095L15.9407 24.2217C11.5451 23.4216 9.95917 20.118 10.7619 14.686C11.1936 12.3784 11.8617 10.1744 13.4756 8.38403Z" stroke="#4D5C6B" stroke-width="1.1588" stroke-miterlimit="22.9256" stroke-linecap="round" stroke-linejoin="round"/>
<path d="M10.5059 16.116L28.1549 16.0654" stroke="#E94D11" stroke-width="1.1588" stroke-miterlimit="22.9256" stroke-linecap="round" stroke-linejoin="round"/>
<path d="M8.87058 16.116H6.27026C6.3726 20.0897 7.85563 23.5648 12.2457 26.1276C16.4352 28.7381 21.957 28.5038 25.1621 26.6579C28.3468 24.824 31.7213 23.2991 32.0943 16.1192L29.8472 16.1238" stroke="#AAABA6" stroke-width="1.1588" stroke-miterlimit="22.9256" stroke-linecap="round" stroke-linejoin="round"/>
</svg>
