<svg width="40" height="40" viewBox="0 0 40 40" fill="none" xmlns="http://www.w3.org/2000/svg">
<path d="M17.5929 16.5312V32.5422C17.5929 32.7153 17.5588 32.8868 17.4925 33.0467C17.4262 33.2067 17.3291 33.352 17.2066 33.4744C17.0842 33.5968 16.9388 33.6938 16.7788 33.76C16.6188 33.8262 16.4473 33.8602 16.2742 33.8601H5.7648C5.59165 33.8602 5.42018 33.8262 5.26019 33.76C5.1002 33.6938 4.95481 33.5968 4.83235 33.4744C4.70988 33.352 4.61273 33.2067 4.54644 33.0467C4.48016 32.8868 4.44605 32.7153 4.44605 32.5422V20.0781C4.4457 19.3991 4.57917 18.7267 4.83883 18.0994C5.09848 17.472 5.47924 16.902 5.95933 16.4219L10.4851 11.8969H15.3125C16.3046 13.1094 16.0546 12.8039 16.4273 13.2601C17.1813 14.1835 17.5931 15.3391 17.5929 16.5312Z" fill="white"/>
<path d="M16.2742 34.0946H5.76403C5.35238 34.0939 4.95778 33.9301 4.66677 33.6389C4.37576 33.3478 4.2121 32.9531 4.21169 32.5414V20.0781C4.20971 19.3685 4.34851 18.6655 4.62007 18.0099C4.89163 17.3543 5.29055 16.759 5.79372 16.2586L10.3906 11.6617H15.4242L16.6101 13.1117C17.3982 14.0772 17.8292 15.285 17.8304 16.5313V32.5414C17.8302 32.7456 17.7898 32.9477 17.7115 33.1363C17.6332 33.3248 17.5185 33.4961 17.374 33.6403C17.2295 33.7845 17.058 33.8989 16.8693 33.9768C16.6806 34.0548 16.4784 34.0948 16.2742 34.0946ZM10.582 12.1305L6.12888 16.5836C5.66803 17.0411 5.30267 17.5857 5.05402 18.1855C4.80537 18.7854 4.67839 19.4288 4.68044 20.0781V32.5414C4.68065 32.8288 4.79485 33.1044 4.998 33.3077C5.20114 33.511 5.47664 33.6254 5.76403 33.6258H16.2742C16.5617 33.6254 16.8372 33.511 17.0405 33.3077C17.2438 33.1045 17.3582 32.8289 17.3586 32.5414V16.5313C17.358 15.3923 16.9642 14.2884 16.2437 13.4063L15.1992 12.1281L10.582 12.1305Z" fill="#AAABA6"/>
<path d="M15.425 9.25549H10.1804C9.98714 9.25549 9.83044 9.41219 9.83044 9.60549V11.5438C9.83044 11.7371 9.98714 11.8938 10.1804 11.8938H15.425C15.6183 11.8938 15.775 11.7371 15.775 11.5438V9.60549C15.775 9.41219 15.6183 9.25549 15.425 9.25549Z" fill="white"/>
<path d="M10.8383 9.25549H11.5078V11.8938H10.8383V9.25549Z" fill="white"/>
<path d="M12.468 9.25549H13.1375V11.8938H12.468V9.25549Z" fill="white"/>
<path d="M14.0445 9.25549H14.714V11.8938H14.0445V9.25549Z" fill="white"/>
<path d="M15.425 12.1281H10.1804C10.0255 12.1279 9.877 12.0663 9.76746 11.9568C9.65791 11.8472 9.59628 11.6987 9.59607 11.5438V9.6094C9.59628 9.45448 9.65791 9.30596 9.76746 9.19641C9.877 9.08687 10.0255 9.02523 10.1804 9.02502H15.425C15.58 9.02502 15.7286 9.08659 15.8382 9.19618C15.9478 9.30578 16.0094 9.45441 16.0094 9.6094V11.5477C16.0083 11.702 15.9463 11.8496 15.8368 11.9584C15.7273 12.0671 15.5793 12.1282 15.425 12.1281ZM10.1804 9.48987C10.1498 9.48987 10.1204 9.50205 10.0987 9.52373C10.077 9.54542 10.0648 9.57483 10.0648 9.60549V11.5438C10.0648 11.5744 10.077 11.6039 10.0987 11.6255C10.1204 11.6472 10.1498 11.6594 10.1804 11.6594H15.425C15.4556 11.6594 15.4851 11.6472 15.5067 11.6255C15.5284 11.6039 15.5406 11.5744 15.5406 11.5438V9.6094C15.5406 9.59422 15.5376 9.57918 15.5318 9.56515C15.526 9.55112 15.5175 9.53838 15.5067 9.52764C15.496 9.5169 15.4833 9.50839 15.4692 9.50258C15.4552 9.49677 15.4402 9.49377 15.425 9.49377L10.1804 9.48987Z" fill="#AAABA6"/>
<path d="M15.1766 31.4719H6.88983V19.9742C6.89253 19.388 7.12639 18.8266 7.54061 18.4117L11.6812 14.2867H13.6859C14.0814 14.2872 14.4606 14.4444 14.7403 14.724C15.0201 15.0036 15.1775 15.3827 15.1781 15.7782L15.1766 31.4719ZM7.35858 31.0032H14.7078V15.7742C14.7074 15.503 14.5994 15.243 14.4075 15.0513C14.2157 14.8596 13.9556 14.7518 13.6844 14.7516H11.875L7.87264 18.7399C7.54573 19.0677 7.36153 19.5113 7.36014 19.9742L7.35858 31.0032Z" fill="#AAABA6"/>
<path d="M12.9328 23.7024L11.1062 20.1868L9.28198 23.6954C9.13016 24.0047 9.05954 24.3476 9.07676 24.6918C9.09397 25.0359 9.19847 25.3701 9.3804 25.6627C9.56234 25.9554 9.81574 26.1969 10.1168 26.3647C10.4178 26.5324 10.7565 26.6208 11.1011 26.6215C11.4457 26.6223 11.7848 26.5353 12.0866 26.3689C12.3883 26.2024 12.6427 25.962 12.8259 25.6701C13.0091 25.3782 13.115 25.0445 13.1337 24.7004C13.1524 24.3564 13.0833 24.0132 12.9328 23.7032V23.7024Z" fill="#FFBD16"/>
<path d="M17.5945 21.1086H35.1953V32.4899H17.5945V21.1086Z" fill="white"/>
<path d="M16.7882 32.4898H36.0023V33.8601H16.7882V32.4898ZM16.6843 21.1086V19.9945C16.6843 19.7251 16.7913 19.4668 16.9818 19.2764C17.1723 19.0859 17.4306 18.9789 17.7 18.9789H35.0914C35.3607 18.9789 35.619 19.0859 35.8095 19.2764C36 19.4668 36.107 19.7251 36.107 19.9945V21.1086H16.6843Z" fill="white"/>
<path d="M35.4296 32.7243H17.3601V20.8743H35.4296V32.7243ZM17.8289 32.2555H34.9609V21.343H17.8289V32.2555Z" fill="#4D5C6B"/>
<path d="M36.2359 34.0946H16.5539V32.2555H36.2359V34.0946ZM17.0226 33.6258H35.7671V32.7242H17.0226V33.6258ZM36.3398 21.343H16.45V19.9938C16.45 19.6623 16.5816 19.3443 16.8161 19.1099C17.0505 18.8755 17.3684 18.7438 17.7 18.7438H35.0914C35.4229 18.7438 35.7408 18.8755 35.9752 19.1099C36.2097 19.3443 36.3414 19.6623 36.3414 19.9938L36.3398 21.343ZM16.9187 20.8742H35.871V19.9938C35.871 19.7866 35.7887 19.5879 35.6422 19.4413C35.4957 19.2948 35.297 19.2125 35.0898 19.2125H17.6984C17.4912 19.2125 17.2925 19.2948 17.146 19.4413C16.9994 19.5879 16.9171 19.7866 16.9171 19.9938L16.9187 20.8742Z" fill="#4D5C6B"/>
<path d="M30.8922 18.9844H29.4391V16.904C29.4391 16.7027 29.3592 16.5097 29.2169 16.3673C29.0747 16.2249 28.8817 16.1448 28.6805 16.1446H24.1086C23.9074 16.145 23.7146 16.2252 23.5724 16.3675C23.4302 16.5099 23.3502 16.7028 23.35 16.904V18.9844H21.8976V16.904C21.8983 16.3177 22.1314 15.7556 22.5458 15.341C22.9603 14.9264 23.5223 14.6931 24.1086 14.6923H28.6805C29.2668 14.6929 29.829 14.9261 30.2437 15.3407C30.6583 15.7554 30.8916 16.3176 30.8922 16.904V18.9844Z" fill="white"/>
<path d="M31.1266 19.2188H29.2047V16.904C29.2045 16.7649 29.1492 16.6316 29.051 16.5333C28.9527 16.4349 28.8195 16.3794 28.6805 16.379H24.1086C23.9695 16.3794 23.8363 16.4349 23.7381 16.5333C23.6398 16.6316 23.5846 16.7649 23.5844 16.904V19.2188H21.6633V16.904C21.6639 16.2556 21.9217 15.6339 22.3801 15.1753C22.8386 14.7167 23.4602 14.4587 24.1086 14.4579H28.6805C29.329 14.4585 29.9508 14.7164 30.4094 15.175C30.868 15.6336 31.1259 16.2554 31.1266 16.904V19.2188ZM29.6734 18.7501H30.6578V16.904C30.6574 16.3797 30.4489 15.877 30.0782 15.5062C29.7075 15.1355 29.2048 14.927 28.6805 14.9266H24.1086C23.5844 14.9273 23.0819 15.1358 22.7113 15.5065C22.3408 15.8772 22.1324 16.3798 22.132 16.904V18.7501H23.1156V16.904C23.1158 16.6406 23.2205 16.3881 23.4066 16.2018C23.5928 16.0155 23.8452 15.9106 24.1086 15.9102H28.6805C28.9438 15.9106 29.1963 16.0155 29.3824 16.2018C29.5686 16.3881 29.6732 16.6406 29.6734 16.904V18.7501Z" fill="#4D5C6B"/>
<path d="M19.6625 18.9844H18.4641V18.3851C18.4641 18.2262 18.5272 18.0738 18.6396 17.9614C18.7519 17.849 18.9043 17.7859 19.0633 17.7859C19.2222 17.7859 19.3746 17.849 19.487 17.9614C19.5994 18.0738 19.6625 18.2262 19.6625 18.3851V18.9844ZM34.1594 18.9844H32.9617V18.3851C32.9588 18.3047 32.9721 18.2245 33.0009 18.1493C33.0297 18.0741 33.0734 18.0055 33.1292 17.9475C33.1851 17.8896 33.2521 17.8435 33.3262 17.812C33.4003 17.7805 33.48 17.7643 33.5605 17.7643C33.641 17.7643 33.7207 17.7805 33.7948 17.812C33.8689 17.8435 33.9359 17.8896 33.9918 17.9475C34.0477 18.0055 34.0914 18.0741 34.1201 18.1493C34.1489 18.2245 34.1623 18.3047 34.1594 18.3851V18.9844Z" fill="white"/>
<path d="M19.8969 19.2188H18.2297V18.3813C18.2297 18.1602 18.3175 17.9482 18.4738 17.7919C18.6302 17.6356 18.8422 17.5477 19.0633 17.5477C19.2844 17.5477 19.4964 17.6356 19.6527 17.7919C19.809 17.9482 19.8969 18.1602 19.8969 18.3813V19.2188ZM18.6984 18.7501H19.4281V18.3852C19.4281 18.2885 19.3897 18.1957 19.3213 18.1273C19.2528 18.0588 19.16 18.0204 19.0633 18.0204C18.9665 18.0204 18.8737 18.0588 18.8053 18.1273C18.7369 18.1957 18.6984 18.2885 18.6984 18.3852V18.7501ZM34.3937 19.2188H32.7273V18.3813C32.7239 18.2698 32.7429 18.1586 32.7833 18.0546C32.8236 17.9505 32.8844 17.8556 32.9621 17.7755C33.0398 17.6953 33.1329 17.6316 33.2356 17.5881C33.3384 17.5446 33.4489 17.5222 33.5605 17.5222C33.6722 17.5222 33.7826 17.5446 33.8854 17.5881C33.9882 17.6316 34.0812 17.6953 34.1589 17.7755C34.2366 17.8556 34.2975 17.9505 34.3378 18.0546C34.3781 18.1586 34.3972 18.2698 34.3937 18.3813V19.2188ZM33.1961 18.7501H33.925V18.3852C33.9273 18.336 33.9195 18.2867 33.9022 18.2405C33.885 18.1943 33.8585 18.1521 33.8244 18.1164C33.7903 18.0807 33.7494 18.0523 33.704 18.0329C33.6587 18.0135 33.6099 18.0035 33.5605 18.0035C33.5112 18.0035 33.4624 18.0135 33.417 18.0329C33.3717 18.0523 33.3307 18.0807 33.2967 18.1164C33.2626 18.1521 33.2361 18.1943 33.2188 18.2405C33.2015 18.2867 33.1938 18.336 33.1961 18.3852V18.7501Z" fill="#4D5C6B"/>
<path d="M32.2726 22.7844H34.1601V23.4024H32.2726V22.7844ZM18.6461 22.7844H20.5336V23.4024H18.6461V22.7844Z" fill="#E94D11"/>
<path d="M25.3399 31.0149H26.1251L29.6766 25.7328H26.6423L27.6079 22.7321H24.5821L23.286 27.6711H26.2735L25.3399 31.0149Z" fill="#E94D11"/>
<path d="M32.907 22.1493H33.525V24.0368H32.907V22.1493Z" fill="#E94D11"/>
<path d="M25.4601 9.77844H27.1898V14.6922H25.4601V9.77844Z" fill="white"/>
<path d="M22.1281 11.4196V13.0672C22.1281 13.1216 22.1388 13.1754 22.1596 13.2257C22.1804 13.2759 22.2109 13.3215 22.2494 13.36C22.2878 13.3984 22.3335 13.4289 22.3837 13.4498C22.434 13.4706 22.4878 13.4813 22.5422 13.4813H25.4601V11.0055H22.5422C22.4878 11.0055 22.434 11.0162 22.3837 11.037C22.3335 11.0578 22.2878 11.0883 22.2494 11.1268C22.2109 11.1652 22.1804 11.2109 22.1596 11.2611C22.1388 11.3113 22.1281 11.3652 22.1281 11.4196Z" fill="white"/>
<path d="M28.6977 13.9063H27.1875V10.7415H28.6953L28.6977 13.9063Z" fill="white"/>
<path d="M33.6055 11.7485C33.7575 11.7485 33.9034 11.8089 34.0109 11.9164C34.1185 12.024 34.1789 12.1698 34.1789 12.3219C34.1789 12.474 34.1185 12.6198 34.0109 12.7274C33.9034 12.8349 33.7575 12.8953 33.6055 12.8953H32.6726V11.7485H33.6055ZM24.3391 10.6149V13.8289V10.6149ZM28.6976 10.7414V13.9024V10.7414Z" fill="white"/>
<path d="M29.214 11.3727H29.507C29.5747 11.3726 29.6418 11.3858 29.7044 11.4117C29.7671 11.4376 29.8239 11.4756 29.8718 11.5235C29.9197 11.5714 29.9577 11.6283 29.9836 11.6909C30.0095 11.7535 30.0227 11.8206 30.0226 11.8883C30.0226 11.8205 30.036 11.7534 30.062 11.6908C30.0879 11.6282 30.126 11.5713 30.1739 11.5234C30.2219 11.4755 30.2788 11.4376 30.3415 11.4117C30.4041 11.3858 30.4713 11.3726 30.539 11.3727H30.832C30.8997 11.3726 30.9668 11.3858 31.0295 11.4117C31.0921 11.4376 31.1489 11.4756 31.1968 11.5235C31.2447 11.5714 31.2827 11.6283 31.3086 11.6909C31.3345 11.7535 31.3477 11.8206 31.3476 11.8883C31.3476 11.8205 31.361 11.7534 31.387 11.6908C31.4129 11.6282 31.451 11.5713 31.4989 11.5234C31.5469 11.4755 31.6038 11.4376 31.6665 11.4117C31.7291 11.3858 31.7963 11.3726 31.864 11.3727H32.157C32.2247 11.3726 32.2918 11.3858 32.3544 11.4117C32.4171 11.4376 32.4739 11.4756 32.5218 11.5235C32.5697 11.5714 32.6077 11.6283 32.6336 11.6909C32.6595 11.7535 32.6727 11.8206 32.6726 11.8883V12.7555C32.6727 12.8232 32.6595 12.8903 32.6336 12.9529C32.6077 13.0155 32.5697 13.0724 32.5218 13.1203C32.4739 13.1682 32.4171 13.2062 32.3544 13.2321C32.2918 13.258 32.2247 13.2712 32.157 13.2711H31.864C31.7963 13.2712 31.7291 13.258 31.6665 13.2321C31.6038 13.2062 31.5469 13.1683 31.4989 13.1204C31.451 13.0725 31.4129 13.0156 31.387 12.953C31.361 12.8904 31.3476 12.8233 31.3476 12.7555C31.3477 12.8232 31.3345 12.8903 31.3086 12.9529C31.2827 13.0155 31.2447 13.0724 31.1968 13.1203C31.1489 13.1682 31.0921 13.2062 31.0295 13.2321C30.9668 13.258 30.8997 13.2712 30.832 13.2711H30.539C30.4713 13.2712 30.4041 13.258 30.3415 13.2321C30.2788 13.2062 30.2219 13.1683 30.1739 13.1204C30.126 13.0725 30.0879 13.0156 30.062 12.953C30.036 12.8904 30.0226 12.8233 30.0226 12.7555C30.0227 12.8232 30.0095 12.8903 29.9836 12.9529C29.9577 13.0155 29.9197 13.0724 29.8718 13.1203C29.8239 13.1682 29.7671 13.2062 29.7044 13.2321C29.6418 13.258 29.5747 13.2712 29.507 13.2711H29.214C29.1463 13.2712 29.0791 13.258 29.0165 13.2321C28.9538 13.2062 28.8969 13.1683 28.8489 13.1204C28.801 13.0725 28.7629 13.0156 28.737 12.953C28.711 12.8904 28.6976 12.8233 28.6976 12.7555V11.8883C28.6976 11.8205 28.711 11.7534 28.737 11.6908C28.7629 11.6282 28.801 11.5713 28.8489 11.5234C28.8969 11.4755 28.9538 11.4376 29.0165 11.4117C29.0791 11.3858 29.1463 11.3726 29.214 11.3727Z" fill="white"/>
<path d="M25.6945 13.7156H22.5422C22.3703 13.7154 22.2055 13.6471 22.0839 13.5255C21.9623 13.4039 21.8939 13.2391 21.8937 13.0672V11.4196C21.8939 11.2476 21.9623 11.0828 22.0839 10.9613C22.2055 10.8397 22.3703 10.7713 22.5422 10.7711H25.6945V13.7156ZM22.5422 11.2399C22.4945 11.2399 22.4488 11.2588 22.4151 11.2925C22.3814 11.3262 22.3625 11.3719 22.3625 11.4196V13.0672C22.3625 13.1149 22.3814 13.1606 22.4151 13.1943C22.4488 13.228 22.4945 13.2469 22.5422 13.2469H25.2258V11.2399H22.5422Z" fill="#4D5C6B"/>
<path d="M21.1164 12.243H20.6476V11.3797C20.6476 11.0438 20.9672 10.7711 21.3594 10.7711H22.5422V11.2399H21.3594C21.2109 11.2399 21.1164 11.3227 21.1164 11.3797V12.243Z" fill="#4D5C6B"/>
<path d="M27.4242 14.9258H25.2281L25.2258 9.71716H27.4219L27.4242 14.9258ZM25.6945 14.457H26.9555L26.9531 10.1859H25.6945V14.457Z" fill="#4D5C6B"/>
<path d="M28.932 14.1406H26.9531V10.507H28.9297L28.932 14.1406ZM27.4219 13.6718H28.4609V10.9757H27.4219V13.6718ZM33.6055 13.1296H32.4383V11.514H33.6055C33.8197 11.514 34.0252 11.5991 34.1767 11.7506C34.3282 11.9021 34.4133 12.1076 34.4133 12.3218C34.4133 12.536 34.3282 12.7415 34.1767 12.893C34.0252 13.0445 33.8197 13.1296 33.6055 13.1296ZM32.907 12.6609H33.6055C33.6954 12.6609 33.7816 12.6251 33.8452 12.5616C33.9088 12.498 33.9445 12.4117 33.9445 12.3218C33.9445 12.2319 33.9088 12.1456 33.8452 12.082C33.7816 12.0185 33.6954 11.9827 33.6055 11.9827H32.907V12.6609ZM24.1047 10.6148H24.5734V13.8296H24.1047V10.6148Z" fill="#4D5C6B"/>
<path d="M28.4633 10.7413H28.932V13.9015H28.4633V10.7413Z" fill="#4D5C6B"/>
<path d="M32.157 13.5055H31.864C31.6719 13.5057 31.4871 13.4321 31.3476 13.3C31.2084 13.4321 31.0239 13.5056 30.832 13.5055H30.539C30.3469 13.5057 30.1621 13.4321 30.0226 13.3C29.8835 13.4322 29.6989 13.5058 29.507 13.5055H29.214C29.0151 13.5053 28.8244 13.4262 28.6837 13.2856C28.5429 13.1451 28.4637 12.9544 28.4633 12.7555V11.8883C28.4635 11.6893 28.5427 11.4986 28.6834 11.3579C28.8242 11.2173 29.0151 11.1383 29.214 11.1383H29.507C29.6989 11.138 29.8835 11.2116 30.0226 11.3438C30.1621 11.2117 30.3469 11.1381 30.539 11.1383H30.832C31.0239 11.1382 31.2084 11.2117 31.3476 11.3438C31.4871 11.2117 31.6719 11.1381 31.864 11.1383H32.157C32.3559 11.1385 32.5465 11.2176 32.6871 11.3582C32.8277 11.4988 32.9068 11.6895 32.907 11.8883V12.7555C32.9066 12.9543 32.8274 13.1448 32.6869 13.2854C32.5463 13.4259 32.3558 13.5051 32.157 13.5055ZM31.582 12.7555C31.5822 12.8302 31.612 12.9017 31.6649 12.9544C31.7178 13.0071 31.7894 13.0367 31.864 13.0367H32.157C32.2316 13.0367 32.3031 13.0071 32.3559 12.9544C32.4086 12.9016 32.4383 12.8301 32.4383 12.7555V11.8883C32.4383 11.8137 32.4086 11.7422 32.3559 11.6894C32.3031 11.6367 32.2316 11.6071 32.157 11.6071H31.864C31.7894 11.6071 31.7178 11.6367 31.6649 11.6894C31.612 11.7421 31.5822 11.8136 31.582 11.8883H31.1133C31.1133 11.8137 31.0836 11.7422 31.0309 11.6894C30.9781 11.6367 30.9066 11.6071 30.832 11.6071H30.539C30.4644 11.6071 30.3928 11.6367 30.3399 11.6894C30.287 11.7421 30.2572 11.8136 30.257 11.8883H29.7883C29.7883 11.8137 29.7586 11.7422 29.7059 11.6894C29.6531 11.6367 29.5816 11.6071 29.507 11.6071H29.214C29.1394 11.6071 29.0678 11.6367 29.0149 11.6894C28.962 11.7421 28.9322 11.8136 28.932 11.8883V12.7555C28.9322 12.8302 28.962 12.9017 29.0149 12.9544C29.0678 13.0071 29.1394 13.0367 29.214 13.0367H29.507C29.5816 13.0367 29.6531 13.0071 29.7059 12.9544C29.7586 12.9016 29.7883 12.8301 29.7883 12.7555H30.257C30.2572 12.8302 30.287 12.9017 30.3399 12.9544C30.3928 13.0071 30.4644 13.0367 30.539 13.0367H30.832C30.9066 13.0367 30.9781 13.0071 31.0309 12.9544C31.0836 12.9016 31.1133 12.8301 31.1133 12.7555H31.582ZM22.9789 10.6149H23.4476V13.8297H22.9789V10.6149Z" fill="#4D5C6B"/>
<path d="M3.56091 33.6259H37.1875V34.0946H3.56091V33.6259Z" fill="#4D5C6B"/>
</svg>
