<svg width="40" height="40" viewBox="0 0 40 40" fill="none" xmlns="http://www.w3.org/2000/svg">
<path d="M13.8751 32.4686H5.8093C4.4419 32.4686 3.33331 33.5771 3.33331 34.9446C3.33331 35.5939 3.85967 36.1202 4.5089 36.1202H15.1754C15.8247 36.1202 16.351 35.5938 16.351 34.9446C16.351 33.5771 15.2425 32.4686 13.8751 32.4686Z" fill="white"/>
<path d="M11.1002 32.4684H13.8753C14.5589 32.4684 15.1774 32.7455 15.626 33.1933C16.0738 33.6418 16.3509 34.2611 16.3509 34.9447C16.3509 35.5937 15.8245 36.1202 15.1755 36.1202H4.50877C4.18422 36.1202 3.89019 35.9887 3.67744 35.776C3.4647 35.5632 3.33331 35.2692 3.33331 34.9446C3.33331 33.5768 4.4417 32.4684 5.80957 32.4684H8.39019" stroke="#4D5C6B" stroke-width="0.858484" stroke-miterlimit="10" stroke-linecap="round" stroke-linejoin="round"/>
<path d="M17.2631 26.978H14.5531V12.6334C14.5531 10.8658 13.8647 9.20397 12.6148 7.95401L12.0003 7.33952C11.5152 6.85448 10.8703 6.58734 10.1844 6.58734C9.49839 6.58734 8.85352 6.85448 8.36854 7.33952C7.36727 8.34079 7.36727 9.97003 8.36848 10.9713L6.45211 12.8875C4.3943 10.8296 4.3943 7.4811 6.45211 5.42322C8.50999 3.36534 11.8586 3.36521 13.9165 5.42322L14.531 6.03771C16.2928 7.79955 17.263 10.1419 17.263 12.6334V26.978H17.2631Z" fill="white"/>
<path d="M14.5526 26.9778C14.552 26.9758 14.552 26.9731 14.5526 26.9704V12.6337C14.5526 10.4932 12.8255 6.58679 10.1844 6.58679C9.49831 6.58679 8.85377 6.8544 8.36886 7.33998C7.36752 8.34132 7.36752 9.96976 8.36886 10.9711L8.36819 10.9718" stroke="#4D5C6B" stroke-width="0.858484" stroke-miterlimit="10" stroke-linecap="round" stroke-linejoin="round"/>
<path d="M6.45195 12.8878C6.45195 12.8871 6.45195 12.8871 6.45128 12.8864C4.39434 10.8281 4.39508 7.48058 6.45195 5.42297C8.51023 3.36536 11.8585 3.36536 13.9167 5.42297L14.5312 6.03746C16.2927 7.79963 17.2629 10.1418 17.2629 12.6336V21.6526" stroke="#4D5C6B" stroke-width="0.858484" stroke-miterlimit="10" stroke-linecap="round" stroke-linejoin="round"/>
<path d="M9.74567 34.2943C8.99731 34.2943 8.39067 33.6877 8.39067 32.9393V17.3878C8.39067 15.6847 7.65492 14.092 6.45157 12.8867C5.9232 12.3574 5.92353 11.5 6.45257 10.9711C6.98691 10.4369 7.86364 10.4619 8.39577 10.9983C10.1404 12.757 11.1007 15.0882 11.1007 17.5669V32.9394C11.1007 33.6877 10.494 34.2943 9.74567 34.2943Z" fill="white"/>
<path d="M8.39028 32.9395C8.39028 33.6873 8.99726 34.2943 9.74575 34.2943C10.4936 34.2943 11.1005 33.6873 11.1005 32.9395V17.5666C11.1005 15.0884 10.1401 12.7571 8.39565 10.9985C7.86312 10.462 6.98653 10.4365 6.45266 10.971C5.92348 11.5002 5.92281 12.3574 6.45132 12.8865C7.65454 14.0918 8.39028 15.6847 8.39028 17.3875V32.9395Z" stroke="#AAABA6" stroke-width="0.858484" stroke-miterlimit="10" stroke-linecap="round" stroke-linejoin="round"/>
<path d="M23.5012 17.1527H21.115C20.4817 17.1527 19.9682 17.6661 19.9682 18.2995V21.8325H24.648V18.2995C24.648 17.6662 24.1346 17.1527 23.5012 17.1527Z" fill="white"/>
<path d="M23.5012 17.1527H21.115C20.4817 17.1527 19.9682 17.6661 19.9682 18.2995V21.8325H24.648V18.2995C24.648 17.6662 24.1346 17.1527 23.5012 17.1527Z" fill="white"/>
<path d="M24.6477 18.94V18.2997C24.6477 17.6663 24.1349 17.1527 23.5014 17.1527H21.1152C20.4817 17.1527 19.9682 17.6663 19.9682 18.2997V20.3668" stroke="#4D5C6B" stroke-width="0.858484" stroke-miterlimit="10" stroke-linecap="round" stroke-linejoin="round"/>
<path d="M20.2298 30.1123H17.6741V34.842C17.6741 35.5478 18.2462 36.1199 18.9519 36.1199C19.6577 36.1199 20.2298 35.5478 20.2298 34.842V30.1123Z" fill="white"/>
<path d="M20.2297 33.9738V34.8424C20.2299 35.0101 20.1969 35.1762 20.1328 35.3312C20.0686 35.4862 19.9744 35.627 19.8557 35.7454C19.7372 35.8645 19.5964 35.9588 19.4412 36.0231C19.2861 36.0874 19.1198 36.1204 18.9519 36.1201C18.2459 36.1201 17.6741 35.5476 17.6741 34.8423V32.9467" stroke="#AAABA6" stroke-width="0.858484" stroke-miterlimit="10" stroke-linecap="round" stroke-linejoin="round"/>
<path d="M19.4618 20.5216L28.3901 17.7989C32.5072 16.5435 36.6666 19.6235 36.6666 23.9278V30.1178C36.6666 32.3104 34.8891 34.0879 32.6964 34.0879H21.4843C17.6548 34.0879 14.5504 30.9835 14.5504 27.154C14.5504 24.1035 16.544 21.4113 19.4618 20.5216Z" fill="white"/>
<path d="M36.6666 23.9276V30.1178C36.6666 30.2599 36.6591 30.4 36.644 30.5383H35.4214C34.7451 30.5383 34.1976 29.9903 34.1976 29.3145V23.7756C34.1976 23.0998 34.7451 22.5518 35.4214 22.5518H36.5202C36.6179 23.0038 36.667 23.4651 36.6666 23.9276Z" fill="white"/>
<path d="M23.6532 34.0878H21.4842C17.6552 34.0878 14.5499 30.9831 14.5499 27.1541C14.5499 25.6283 15.0489 24.1931 15.9121 23.0274C16.7753 21.8617 18.0026 20.9664 19.4621 20.521L28.3903 17.7987C32.4027 16.5755 36.6666 19.7389 36.6666 23.9275V30.1173C36.6666 32.3104 34.8886 34.0878 32.6961 34.0878H31.8812" stroke="#E94D11" stroke-width="0.858484" stroke-miterlimit="10" stroke-linecap="round" stroke-linejoin="round"/>
<path d="M27.7672 36.1201C30.6282 36.1201 32.9474 33.8008 32.9474 30.9399C32.9474 28.079 30.6282 25.7598 27.7672 25.7598C24.9063 25.7598 22.5871 28.079 22.5871 30.9399C22.5871 33.8008 24.9063 36.1201 27.7672 36.1201Z" fill="white"/>
<path d="M27.7672 36.1201C30.6282 36.1201 32.9474 33.8008 32.9474 30.9399C32.9474 28.079 30.6282 25.7598 27.7672 25.7598C24.9063 25.7598 22.5871 28.079 22.5871 30.9399C22.5871 33.8008 24.9063 36.1201 27.7672 36.1201Z" stroke="#4D5C6B" stroke-width="0.858484" stroke-miterlimit="10" stroke-linecap="round" stroke-linejoin="round"/>
<path d="M27.7673 33.7329C29.3098 33.7329 30.5603 32.4824 30.5603 30.9399C30.5603 29.3974 29.3098 28.147 27.7673 28.147C26.2248 28.147 24.9744 29.3974 24.9744 30.9399C24.9744 32.4824 26.2248 33.7329 27.7673 33.7329Z" fill="white"/>
<path d="M27.7673 33.7329C29.3098 33.7329 30.5603 32.4824 30.5603 30.9399C30.5603 29.3974 29.3098 28.147 27.7673 28.147C26.2248 28.147 24.9744 29.3974 24.9744 30.9399C24.9744 32.4824 26.2248 33.7329 27.7673 33.7329Z" stroke="#AAABA6" stroke-width="0.858484" stroke-miterlimit="10" stroke-linecap="round" stroke-linejoin="round"/>
<path d="M36.644 30.5383H35.4214C34.7451 30.5383 34.1976 29.9903 34.1976 29.3145V23.7756C34.1976 23.0998 34.7451 22.5518 35.4214 22.5518H36.5202M36.6666 24.4719H34.1976M36.6666 26.545H34.1976M36.6666 28.618H34.1976" stroke="#E94D11" stroke-width="0.858484" stroke-miterlimit="10" stroke-linecap="round" stroke-linejoin="round"/>
</svg>
