<svg width="40" height="40" viewBox="0 0 40 40" fill="none" xmlns="http://www.w3.org/2000/svg">
<path fill-rule="evenodd" clip-rule="evenodd" d="M22.0939 5.15259H35.2984C35.5993 5.15259 35.8453 5.40465 35.8453 5.71283V7.03363C35.8453 7.34181 35.5993 7.59387 35.2984 7.59387H31.8535L31.8887 28.5484C31.8896 29.0921 31.4544 29.5369 30.9238 29.5369H26.3854C25.8548 29.5369 25.4196 29.0921 25.4205 28.5484L25.4557 7.59387H22.0939C21.793 7.59387 21.5471 7.34181 21.5471 7.03363V5.71283C21.5471 5.40465 21.793 5.15259 22.0939 5.15259Z" fill="white"/>
<path d="M35.2985 5.6064H22.094V4.69873H35.2985V5.6064ZM35.2985 4.69873C35.543 4.69873 35.7416 4.90195 35.7416 5.15256C35.7416 5.40318 35.543 5.6064 35.2985 5.6064V4.69873ZM36.2885 5.71281H35.4023V5.70757L35.402 5.70379L35.4009 5.69536L35.4 5.69013L35.3997 5.68809L35.3982 5.68402L35.3956 5.67617L35.3939 5.67123L35.3927 5.66832L35.3904 5.66396L35.3872 5.65815L35.3852 5.65466L35.3828 5.65146L35.3782 5.64565L35.3744 5.64099L35.3718 5.63809L35.3674 5.63402L35.3634 5.63024L35.3602 5.62762L35.3555 5.62442L35.3508 5.62123L35.3474 5.61919L35.3427 5.61687L35.3369 5.61396L35.3334 5.61279L35.3293 5.61134L35.3232 5.6096L35.3183 5.60814L35.3151 5.60756L35.3113 5.60727L35.304 5.60669L35.2985 5.6064V4.69873L35.3488 4.70018L35.3974 4.70367L35.4482 4.71036L35.4985 4.71966L35.5465 4.731L35.5922 4.74438L35.6387 4.76037L35.6852 4.77955L35.7276 4.79932L35.7701 4.82142L35.8125 4.84671L35.8521 4.87259L35.8905 4.90079L35.9285 4.93132L35.964 4.96301L35.998 4.99615L36.0315 5.0322L36.062 5.06825L36.0899 5.10488L36.1184 5.1453L36.1448 5.18774L36.1678 5.22844L36.1899 5.27235L36.2108 5.31944L36.2283 5.36509L36.2431 5.40957L36.2568 5.45842L36.2687 5.51046L36.2771 5.56046L36.2829 5.60785L36.2873 5.66048L36.2885 5.71281ZM36.2885 5.71281C36.2885 5.96342 36.0899 6.16664 35.8454 6.16664C35.6009 6.16664 35.4023 5.96342 35.4023 5.71281H36.2885ZM35.4023 7.03361V5.71281H36.2885V7.03361H35.4023ZM36.2885 7.03361C36.2885 7.28422 36.0899 7.48744 35.8454 7.48744C35.6009 7.48744 35.4023 7.28422 35.4023 7.03361H36.2885ZM35.2985 8.04768V7.14001L35.304 7.13972L35.3113 7.13914L35.3151 7.13885L35.3183 7.13827L35.3232 7.13682L35.3293 7.13507L35.3334 7.13362L35.3369 7.13245L35.3427 7.12955L35.3474 7.12722L35.3508 7.12519L35.3555 7.12199L35.3602 7.11879L35.3634 7.11617L35.3674 7.11239L35.3718 7.10832L35.3744 7.10542L35.3782 7.10077L35.3828 7.09495L35.3852 7.09175L35.3872 7.08826L35.3904 7.08245L35.3927 7.07809L35.3939 7.07518L35.3956 7.07024L35.3982 7.06239L35.3997 7.05832L35.4 7.05628L35.4009 7.05105L35.402 7.04262L35.4023 7.03884V7.03361H36.2885L36.2873 7.08594L36.2829 7.13856L36.2771 7.18595L36.2687 7.23596L36.2568 7.288L36.2431 7.33684L36.2283 7.38132L36.2108 7.42697L36.1899 7.47407L36.1678 7.51797L36.1448 7.55867L36.1184 7.60112L36.0899 7.64153L36.062 7.67816L36.0315 7.71421L35.998 7.75026L35.964 7.78341L35.9285 7.8151L35.8905 7.84562L35.8521 7.87382L35.8125 7.8997L35.7701 7.92499L35.7276 7.94709L35.6852 7.96686L35.6387 7.98605L35.5922 8.00204L35.5465 8.01541L35.4985 8.02675L35.4482 8.03605L35.3974 8.04274L35.3488 8.04623L35.2985 8.04768ZM35.2985 8.04768C35.054 8.04768 34.8554 7.84446 34.8554 7.59385C34.8554 7.34324 35.054 7.14001 35.2985 7.14001V8.04768ZM31.8536 7.14001H35.2985V8.04768H31.8536L31.4105 7.59472L31.8536 7.14001ZM31.8536 8.04768C31.6091 8.04768 31.4105 7.84446 31.4105 7.59385C31.4105 7.34324 31.6091 7.14001 31.8536 7.14001V8.04768ZM31.4457 28.5493L31.4105 7.59472L32.2967 7.59298L32.3319 28.5475L31.4457 28.5493ZM32.3319 28.5475C32.3322 28.7982 32.1342 29.002 31.8897 29.0023C31.6452 29.0025 31.446 28.7999 31.4457 28.5493L32.3319 28.5475ZM30.9239 29.9907V29.0831L30.9503 29.0825L30.9771 29.0802L31.0041 29.077L31.0274 29.0726L31.0521 29.0665L31.0785 29.0587L31.103 29.0505L31.125 29.0415L31.148 29.0305L31.1713 29.0182L31.1928 29.0057L31.214 28.9918L31.2352 28.9764L31.255 28.9604L31.2736 28.9435L31.2928 28.9252L31.31 28.9066L31.3271 28.8865L31.3425 28.8668L31.3568 28.8458L31.3704 28.824L31.3832 28.8011L31.3948 28.7787L31.405 28.7554L31.4146 28.7307L31.4225 28.7066L31.4297 28.681L31.4353 28.6563L31.4396 28.6301L31.4431 28.6031L31.4451 28.5763L31.4457 28.5493L32.3319 28.5475L32.3301 28.6217L32.3246 28.6949L32.3159 28.7668L32.3034 28.8377L32.2874 28.9083L32.2685 28.9764L32.2461 29.0441L32.2208 29.109L32.1926 29.1735L32.1612 29.236L32.1275 29.2962L32.0906 29.3546L32.0513 29.411L32.0092 29.4657L31.9653 29.5177L31.9185 29.5677L31.8702 29.6151L31.819 29.6605L31.7655 29.7032L31.7112 29.743L31.6539 29.7808L31.5946 29.816L31.5347 29.8474L31.4722 29.8765L31.4065 29.9029L31.3414 29.9256L31.2765 29.9445L31.2082 29.9611L31.1367 29.9742L31.0672 29.9832L30.9963 29.989L30.9239 29.9907ZM30.9239 29.9907C30.6794 29.9907 30.4808 29.7875 30.4808 29.5369C30.4808 29.2863 30.6794 29.0831 30.9239 29.0831V29.9907ZM26.3855 29.0831H30.9239V29.9907H26.3855V29.0831ZM26.3855 29.9907C26.141 29.9907 25.9424 29.7875 25.9424 29.5369C25.9424 29.2863 26.141 29.0831 26.3855 29.0831V29.9907ZM24.9775 28.5475L25.8637 28.5493L25.8642 28.5763L25.8663 28.6031L25.8698 28.6301L25.8741 28.6563L25.8796 28.681L25.8869 28.7066L25.8948 28.7307L25.9044 28.7554L25.9145 28.7787L25.9262 28.8011L25.939 28.824L25.9526 28.8458L25.9669 28.8668L25.9823 28.8865L25.9994 28.9066L26.0166 28.9252L26.0358 28.9435L26.0544 28.9604L26.0741 28.9764L26.0954 28.9918L26.1166 29.0057L26.1381 29.0182L26.1614 29.0305L26.1843 29.0415L26.2064 29.0505L26.2309 29.0587L26.2573 29.0665L26.282 29.0726L26.3053 29.077L26.3323 29.0802L26.3591 29.0825L26.3855 29.0831V29.9907L26.3131 29.989L26.2422 29.9832L26.1727 29.9742L26.1012 29.9611L26.0329 29.9445L25.968 29.9256L25.9029 29.9029L25.8372 29.8765L25.7747 29.8474L25.7148 29.816L25.6555 29.7808L25.5982 29.743L25.5438 29.7032L25.4904 29.6605L25.4392 29.6151L25.3909 29.5677L25.3441 29.5177L25.3002 29.4657L25.2581 29.411L25.2188 29.3546L25.1819 29.2962L25.1482 29.236L25.1168 29.1735L25.0886 29.109L25.0633 29.0441L25.0409 28.9764L25.022 28.9083L25.006 28.8377L24.9935 28.7668L24.9848 28.6949L24.9792 28.6217L24.9775 28.5475ZM24.9775 28.5475C24.9778 28.2969 25.1769 28.0943 25.4214 28.0946C25.666 28.0949 25.8639 28.2987 25.8637 28.5493L24.9775 28.5475ZM25.8988 7.59472L25.8637 28.5493L24.9775 28.5475L25.0127 7.59298L25.4558 7.14001L25.8988 7.59472ZM25.0127 7.59298C25.013 7.34236 25.2121 7.13972 25.4566 7.14001C25.7011 7.1403 25.8991 7.34411 25.8988 7.59472L25.0127 7.59298ZM22.094 7.14001H25.4558V8.04768H22.094V7.14001ZM22.094 8.04768C21.8495 8.04768 21.6509 7.84446 21.6509 7.59385C21.6509 7.34324 21.8495 7.14001 22.094 7.14001V8.04768ZM21.1041 7.03361H21.9902V7.03884L21.9905 7.04262L21.9917 7.05105L21.9925 7.05628L21.9928 7.05832L21.9943 7.06239L21.9969 7.07024L21.9987 7.07518L21.9998 7.07809L22.0021 7.08245L22.0053 7.08826L22.0074 7.09175L22.0097 7.09495L22.0144 7.10077L22.0181 7.10542L22.0207 7.10832L22.0251 7.11239L22.0292 7.11617L22.0324 7.11879L22.037 7.12199L22.0417 7.12519L22.0452 7.12722L22.0498 7.12955L22.0556 7.13245L22.0591 7.13362L22.0632 7.13507L22.0693 7.13682L22.0742 7.13827L22.0774 7.13885L22.0812 7.13914L22.0885 7.13972L22.094 7.14001V8.04768L22.0437 8.04623L21.9952 8.04274L21.9443 8.03605L21.894 8.02675L21.846 8.01541L21.8004 8.00204L21.7539 7.98605L21.7073 7.96686L21.6649 7.94709L21.6224 7.92499L21.58 7.8997L21.5405 7.87382L21.5021 7.84562L21.464 7.8151L21.4285 7.78341L21.3945 7.75026L21.3611 7.71421L21.3305 7.67816L21.3026 7.64153L21.2741 7.60112L21.2477 7.55867L21.2247 7.51797L21.2026 7.47407L21.1817 7.42697L21.1642 7.38132L21.1494 7.33684L21.1358 7.288L21.1238 7.23596L21.1154 7.18595L21.1096 7.13856L21.1052 7.08594L21.1041 7.03361ZM21.1041 7.03361C21.1041 6.78299 21.3026 6.57977 21.5471 6.57977C21.7916 6.57977 21.9902 6.78299 21.9902 7.03361H21.1041ZM21.9902 5.71281V7.03361H21.1041V5.71281H21.9902ZM21.1041 5.71281C21.1041 5.4622 21.3026 5.25897 21.5471 5.25897C21.7916 5.25897 21.9902 5.4622 21.9902 5.71281H21.1041ZM22.094 4.69873V5.6064L22.0885 5.60669L22.0812 5.60727L22.0774 5.60756L22.0742 5.60814L22.0693 5.6096L22.0632 5.61134L22.0591 5.61279L22.0556 5.61396L22.0498 5.61687L22.0452 5.61919L22.0417 5.62123L22.037 5.62442L22.0324 5.62762L22.0292 5.63024L22.0251 5.63402L22.0207 5.63809L22.0181 5.64099L22.0144 5.64565L22.0097 5.65146L22.0074 5.65466L22.0053 5.65815L22.0021 5.66396L21.9998 5.66832L21.9987 5.67123L21.9969 5.67617L21.9943 5.68402L21.9928 5.68809L21.9925 5.69013L21.9917 5.69536L21.9905 5.70379L21.9902 5.70757V5.71281H21.1041L21.1052 5.66048L21.1096 5.60785L21.1154 5.56046L21.1238 5.51046L21.1358 5.45842L21.1494 5.40957L21.1642 5.36509L21.1817 5.31944L21.2026 5.27235L21.2247 5.22844L21.2477 5.18774L21.2741 5.1453L21.3026 5.10488L21.3305 5.06825L21.3611 5.0322L21.3945 4.99615L21.4285 4.96301L21.464 4.93132L21.5021 4.90079L21.5405 4.87259L21.58 4.84671L21.6224 4.82142L21.6649 4.79932L21.7073 4.77955L21.7539 4.76037L21.8004 4.74438L21.846 4.731L21.894 4.71966L21.9443 4.71036L21.9952 4.70367L22.0437 4.70018L22.094 4.69873ZM22.094 4.69873C22.3385 4.69873 22.5371 4.90195 22.5371 5.15256C22.5371 5.40318 22.3385 5.6064 22.094 5.6064V4.69873Z" fill="#E94D11"/>
<path d="M25.1536 9.43291C24.9707 9.44629 24.8111 9.30557 24.798 9.11805C24.785 8.93053 24.9225 8.76714 25.1053 8.75376L25.1536 9.43291ZM32.1922 8.90611L25.1536 9.43291L25.1053 8.75376L32.144 8.22695L32.1922 8.90611ZM32.144 8.22695C32.3269 8.21358 32.4865 8.3543 32.4996 8.54182C32.5126 8.72934 32.3751 8.89273 32.1922 8.90611L32.144 8.22695Z" fill="#AAABA6"/>
<path d="M25.1536 11.158C24.9707 11.1714 24.8111 11.0307 24.798 10.8431C24.785 10.6556 24.9225 10.4922 25.1053 10.4789L25.1536 11.158ZM32.1922 10.6312L25.1536 11.158L25.1053 10.4789L32.144 9.95205L32.1922 10.6312ZM32.144 9.95205C32.3269 9.93868 32.4865 10.0794 32.4996 10.2669C32.5126 10.4544 32.3751 10.6178 32.1922 10.6312L32.144 9.95205Z" fill="#AAABA6"/>
<path d="M25.1536 12.8936C24.9707 12.907 24.8111 12.7663 24.798 12.5787C24.785 12.3912 24.9225 12.2278 25.1053 12.2145L25.1536 12.8936ZM32.1922 12.3668L25.1536 12.8936L25.1053 12.2145L32.144 11.6876L32.1922 12.3668ZM32.144 11.6876C32.3269 11.6743 32.4865 11.815 32.4996 12.0025C32.5126 12.19 32.3751 12.3534 32.1922 12.3668L32.144 11.6876Z" fill="#AAABA6"/>
<path d="M25.1536 14.7284C24.9707 14.7417 24.8111 14.601 24.798 14.4135C24.785 14.226 24.9225 14.0626 25.1053 14.0492L25.1536 14.7284ZM32.1922 14.2013L25.1536 14.7284L25.1053 14.0492L32.144 13.5221L32.1922 14.2013ZM32.144 13.5221C32.3269 13.5087 32.4865 13.6495 32.4996 13.837C32.5126 14.0245 32.3751 14.1879 32.1922 14.2013L32.144 13.5221Z" fill="#AAABA6"/>
<path d="M25.1536 16.6229C24.9707 16.6362 24.8111 16.4955 24.798 16.308C24.785 16.1205 24.9225 15.9571 25.1053 15.9437L25.1536 16.6229ZM32.1922 16.096L25.1536 16.6229L25.1053 15.9437L32.144 15.4169L32.1922 16.096ZM32.144 15.4169C32.3269 15.4035 32.4865 15.5442 32.4996 15.7318C32.5126 15.9193 32.3751 16.0827 32.1922 16.096L32.144 15.4169Z" fill="#AAABA6"/>
<path d="M25.1536 18.3477C24.9707 18.3611 24.8111 18.2204 24.798 18.0328C24.785 17.8453 24.9225 17.6819 25.1053 17.6686L25.1536 18.3477ZM32.1922 17.8209L25.1536 18.3477L25.1053 17.6686L32.144 17.1417L32.1922 17.8209ZM32.144 17.1417C32.3269 17.1284 32.4865 17.2691 32.4996 17.4566C32.5126 17.6441 32.3751 17.8075 32.1922 17.8209L32.144 17.1417Z" fill="#AAABA6"/>
<path d="M25.1536 20.0835C24.9707 20.0969 24.8111 19.9562 24.798 19.7687C24.785 19.5812 24.9225 19.4178 25.1053 19.4044L25.1536 20.0835ZM32.1922 19.5567L25.1536 20.0835L25.1053 19.4044L32.144 18.8776L32.1922 19.5567ZM32.144 18.8776C32.3269 18.8642 32.4865 19.0049 32.4996 19.1925C32.5126 19.38 32.3751 19.5434 32.1922 19.5567L32.144 18.8776Z" fill="#AAABA6"/>
<path d="M25.1536 21.918C24.9707 21.9314 24.8111 21.7907 24.798 21.6032C24.785 21.4156 24.9225 21.2522 25.1053 21.2389L25.1536 21.918ZM32.1922 21.3912L25.1536 21.918L25.1053 21.2389L32.144 20.7121L32.1922 21.3912ZM32.144 20.7121C32.3269 20.6987 32.4865 20.8394 32.4996 21.0269C32.5126 21.2144 32.3751 21.3778 32.1922 21.3912L32.144 20.7121Z" fill="#AAABA6"/>
<path d="M25.1536 23.8333C24.9707 23.8467 24.8111 23.706 24.798 23.5184C24.785 23.3309 24.9225 23.1675 25.1053 23.1542L25.1536 23.8333ZM32.1922 23.3065L25.1536 23.8333L25.1053 23.1542L32.144 22.6273L32.1922 23.3065ZM32.144 22.6273C32.3269 22.614 32.4865 22.7547 32.4996 22.9422C32.5126 23.1297 32.3751 23.2931 32.1922 23.3065L32.144 22.6273Z" fill="#AAABA6"/>
<path d="M25.1536 25.5582C24.9707 25.5715 24.8111 25.4308 24.798 25.2433C24.785 25.0558 24.9225 24.8924 25.1053 24.879L25.1536 25.5582ZM32.1922 25.0314L25.1536 25.5582L25.1053 24.879L32.144 24.3522L32.1922 25.0314ZM32.144 24.3522C32.3269 24.3388 32.4865 24.4795 32.4996 24.6671C32.5126 24.8546 32.3751 25.018 32.1922 25.0314L32.144 24.3522Z" fill="#AAABA6"/>
<path d="M25.1536 27.294C24.9707 27.3074 24.8111 27.1667 24.798 26.9791C24.785 26.7916 24.9225 26.6282 25.1053 26.6148L25.1536 27.294ZM32.1922 26.7672L25.1536 27.294L25.1053 26.6148L32.144 26.088L32.1922 26.7672ZM32.144 26.088C32.3269 26.0747 32.4865 26.2154 32.4996 26.4029C32.5126 26.5904 32.3751 26.7538 32.1922 26.7672L32.144 26.088Z" fill="#AAABA6"/>
<path d="M25.1536 29.1285C24.9707 29.1418 24.8111 29.0011 24.798 28.8136C24.785 28.6261 24.9225 28.4627 25.1053 28.4493L25.1536 29.1285ZM32.1922 28.6017L25.1536 29.1285L25.1053 28.4493L32.144 27.9225L32.1922 28.6017ZM32.144 27.9225C32.3269 27.9091 32.4865 28.0499 32.4996 28.2374C32.5126 28.4249 32.3751 28.5883 32.1922 28.6017L32.144 27.9225Z" fill="#AAABA6"/>
<path fill-rule="evenodd" clip-rule="evenodd" d="M24.1854 17.0061L25.7437 19.7713L27.2771 22.4914C27.4585 22.8272 27.5041 22.9458 27.3079 23.2886L25.7437 26.0636L24.1982 28.8061C23.9598 29.2283 23.8609 29.2428 23.5202 29.2099H20.4239H17.3424C16.8959 29.205 16.8249 29.0966 16.6345 28.7791L15.1041 26.0636L13.6152 23.422C13.3172 22.8487 13.3701 22.8961 13.6562 22.3402L15.1041 19.7713L16.6426 17.0413C16.8761 16.6448 16.9485 16.6253 17.309 16.625H20.4239H23.5763C23.9333 16.6201 24.0113 16.6901 24.1854 17.0061ZM22.0511 20.0303C23.6077 20.9508 24.1412 22.9897 23.2423 24.5844C22.3436 26.1791 20.3533 26.7253 18.7967 25.8046C17.2401 24.8841 16.7069 22.8452 17.6055 21.2506C18.5042 19.6559 20.4945 19.1096 22.0511 20.0303Z" fill="white"/>
<path d="M25.36 19.9981L23.8017 17.2329L24.5692 16.7794L26.1276 19.5446L25.36 19.9984V19.9981ZM26.1276 19.5446C26.2497 19.7614 26.1773 20.0394 25.9653 20.1644C25.7534 20.2894 25.4821 20.215 25.36 19.9981L26.1276 19.5446ZM26.8933 22.7185L25.36 19.9984L26.1276 19.5443L27.6609 22.2644L27.6647 22.2716L26.8933 22.7185ZM27.6609 22.2644C27.783 22.4813 27.7106 22.7592 27.4987 22.8845C27.2867 23.0098 27.0155 22.9354 26.8933 22.7185L27.6609 22.2644ZM27.6917 23.5157L26.9242 23.0616L26.9259 23.0589L26.9402 23.0339L26.9512 23.013L26.962 22.9915L26.9716 22.9726L26.9774 22.9592L26.9829 22.9461L26.9878 22.9333L26.9902 22.9264L26.9913 22.9217L26.9928 22.9162L26.9934 22.9142L26.9928 22.9171L26.9925 22.9185L26.9928 22.9211L26.9925 22.9246V22.9249L26.9931 22.9281L26.9928 22.9278L26.9925 22.9255L26.9922 22.9243L26.9904 22.9194L26.9873 22.9092L26.9841 22.9005L26.9794 22.8892L26.9733 22.8752L26.9646 22.8566L26.9559 22.8377L26.9451 22.8168L26.9332 22.7932L26.9201 22.7685L26.905 22.74L26.8896 22.7112L27.6647 22.2716L27.6824 22.3045L27.6987 22.3353L27.7158 22.3676L27.7318 22.3993L27.7478 22.4312L27.7635 22.4641L27.778 22.4955L27.7929 22.5298L27.8074 22.5656L27.8211 22.6028L27.833 22.638L27.8446 22.6772L27.8554 22.7202L27.8638 22.7609L27.8705 22.8037L27.8757 22.8499L27.8781 22.8932L27.8783 22.9397L27.8763 22.986L27.872 23.0316L27.8644 23.0793L27.8557 23.1226L27.8455 23.1636L27.8327 23.2072L27.8182 23.2491L27.8039 23.2869L27.7879 23.3261L27.7693 23.3668L27.7516 23.4037L27.7327 23.441L27.7112 23.4805L27.69 23.5183L27.6917 23.5157ZM27.69 23.5183C27.5664 23.7343 27.2946 23.8067 27.0838 23.6799C26.873 23.5532 26.8023 23.275 26.9259 23.0589L27.69 23.5183ZM25.36 25.8366L26.9242 23.0616L27.6917 23.5157L26.1276 26.2907L25.36 25.8369V25.8366ZM26.1276 26.2907C26.0054 26.5076 25.7342 26.582 25.5222 26.4567C25.3103 26.3314 25.2379 26.0535 25.36 25.8366L26.1276 26.2907ZM23.8145 28.5794L25.36 25.8369L26.1276 26.2904L24.582 29.0329L24.5817 29.0335L23.8145 28.5794ZM24.582 29.0329C24.4599 29.2498 24.1887 29.3242 23.9767 29.1992C23.7648 29.0742 23.6924 28.7963 23.8145 28.5794L24.582 29.0329ZM23.5203 29.6638V28.7561L23.5618 28.7582L23.5903 28.7608L23.6153 28.7631L23.6392 28.7646L23.661 28.766L23.6781 28.7669L23.6938 28.7672H23.7052L23.7119 28.7669L23.7162 28.7666L23.7188 28.7663L23.7206 28.766L23.7174 28.7669L23.7107 28.7686L23.7057 28.7704L23.6976 28.7742L23.6898 28.7777L23.686 28.78L23.6825 28.7823L23.6781 28.7858H23.6778L23.6796 28.7843L23.6834 28.7803L23.6895 28.7736L23.697 28.7643L23.7066 28.7521L23.718 28.7364L23.7299 28.7192L23.7441 28.6971L23.761 28.6704L23.777 28.6442L23.795 28.6134L23.8148 28.5788L24.5817 29.0335L24.5573 29.0757L24.5335 29.1169L24.5082 29.1582L24.4849 29.1949L24.4608 29.2321L24.4349 29.2696L24.409 29.305L24.3826 29.3394L24.3541 29.3737L24.3247 29.4065L24.293 29.4391L24.2599 29.4702L24.2241 29.5004L24.1849 29.5301L24.1453 29.5562L24.1055 29.5795L24.061 29.6016L24.0151 29.6211L23.9718 29.6362L23.9261 29.649L23.8822 29.6586L23.8421 29.6653L23.8017 29.6702L23.7613 29.6734L23.7209 29.6749H23.6839L23.6491 29.674L23.6139 29.6725L23.581 29.6705L23.5473 29.6679L23.5124 29.665L23.4787 29.6618L23.5203 29.6638ZM23.4787 29.6618C23.2353 29.6385 23.0565 29.417 23.0792 29.1675C23.1019 28.9181 23.3185 28.7349 23.5618 28.7582L23.4787 29.6618ZM20.424 28.7561H23.5203V29.6638H20.424V28.7561ZM20.424 29.6638C20.1794 29.6638 19.9809 29.4606 19.9809 29.21C19.9809 28.9594 20.1794 28.7561 20.424 28.7561V29.6638ZM17.3425 28.7561H20.424V29.6638H17.3425H17.3378L17.3425 28.7561ZM17.3425 29.6638C17.098 29.6638 16.8994 29.4606 16.8994 29.21C16.8994 28.9594 17.098 28.7561 17.3425 28.7561V29.6638ZM16.2508 29.0059L17.0183 28.5523L17.0119 28.5416L17.0291 28.5701L17.0442 28.5951L17.0596 28.6198L17.0747 28.6442L17.0863 28.6625L17.0959 28.6771L17.107 28.6928L17.1172 28.7073L17.1233 28.7157L17.13 28.7239L17.1358 28.7306L17.1381 28.7332L17.1413 28.7364L17.141 28.7361L17.1407 28.7355L17.1413 28.7364L17.1398 28.7355L17.1381 28.7343L17.139 28.7346L17.1395 28.7349L17.1407 28.7355L17.1448 28.7367L17.1529 28.739L17.1631 28.7416L17.1739 28.7436L17.1913 28.7463L17.2096 28.7489L17.2305 28.7509L17.2564 28.7532L17.2814 28.7544L17.3128 28.7556L17.3471 28.7561L17.3378 29.6638L17.2907 29.6626L17.2448 29.6615L17.1965 29.6586L17.1526 29.6551L17.1079 29.6507L17.064 29.6446L17.0227 29.6379L16.9776 29.6289L16.9349 29.6187L16.893 29.6071L16.8494 29.5926L16.8052 29.5757L16.7633 29.5568L16.7229 29.5362L16.6822 29.5123L16.6436 29.487L16.6087 29.4618L16.5735 29.4333L16.5401 29.4027L16.5107 29.374L16.4816 29.3428L16.4566 29.3135L16.4325 29.2838L16.4084 29.2521L16.3883 29.2242L16.3685 29.1957L16.3473 29.1637L16.3281 29.1332L16.3112 29.1059L16.2935 29.0771L16.2749 29.0463L16.2572 29.0166L16.2508 29.0059ZM16.2572 29.0166C16.1293 28.8032 16.1944 28.5236 16.4025 28.3924C16.6107 28.2613 16.884 28.3282 17.0119 28.5416L16.2572 29.0166ZM15.4879 25.8369L17.0183 28.5523L16.2508 29.0059L14.7204 26.2904L15.4879 25.8369ZM14.7204 26.2904C14.5983 26.0736 14.6706 25.7956 14.8826 25.6706C15.0945 25.5456 15.3658 25.62 15.4879 25.8369L14.7204 26.2904ZM13.999 23.1953L15.4879 25.8369L14.7204 26.2904L13.2315 23.6488L13.2242 23.6355L13.999 23.1953ZM13.2315 23.6488C13.1094 23.432 13.1818 23.154 13.3937 23.029C13.6057 22.904 13.8769 22.9784 13.999 23.1953L13.2315 23.6488ZM13.2725 22.1135L14.04 22.567L14.0482 22.5519L14.0209 22.6045L13.9956 22.6528L13.9711 22.699L13.9485 22.7409L13.9296 22.7769L13.9121 22.8101L13.8967 22.8403L13.883 22.8671L13.8729 22.8889L13.865 22.9057L13.8601 22.9174L13.8572 22.9261L13.8557 22.9299L13.8563 22.9272L13.8569 22.9246L13.8578 22.9162L13.8586 22.9075L13.8583 22.9017L13.8575 22.8932V22.8909L13.8578 22.8929L13.8586 22.8958L13.8627 22.9086L13.8685 22.9252L13.8761 22.9432L13.8871 22.9691L13.9005 22.9988L13.9162 23.0316L13.9348 23.0691L13.9566 23.1121L13.9802 23.1584L14.0063 23.2087L13.2242 23.6355L13.1963 23.5817L13.1705 23.5308L13.1463 23.4831L13.1231 23.4357L13.101 23.3895L13.0806 23.3447L13.0614 23.3008L13.0428 23.2537L13.0265 23.2081L13.0114 23.1622L12.9972 23.1092L12.9864 23.0578L12.9783 23.0037L12.9733 22.9453L12.9725 22.8906L12.9757 22.833L12.9829 22.7763L12.9928 22.7249L13.0062 22.6723L13.021 22.6255L13.0373 22.5813L13.055 22.5382L13.0728 22.4981L13.0917 22.4594L13.11 22.4222L13.1295 22.3844L13.1498 22.3455L13.1716 22.3048L13.1931 22.2647L13.2152 22.2225L13.2394 22.1766L13.2644 22.1286L13.2725 22.1135ZM13.2644 22.1286C13.3783 21.9071 13.6467 21.8219 13.863 21.9387C14.0793 22.0556 14.1622 22.3304 14.0482 22.5519L13.2644 22.1286ZM15.4879 19.9981L14.04 22.567L13.2725 22.1135L14.7204 19.5446L15.4879 19.9981ZM14.7204 19.5446C14.8425 19.3277 15.1137 19.2532 15.3257 19.3783C15.5376 19.5033 15.61 19.7812 15.4879 19.9981L14.7204 19.5446ZM17.0265 17.2681L15.4879 19.9981L14.7204 19.5446L16.2589 16.8146L16.2633 16.807L17.0265 17.2681ZM16.2589 16.8146C16.381 16.5977 16.6523 16.5233 16.8642 16.6483C17.0762 16.7733 17.1486 17.0512 17.0265 17.2681L16.2589 16.8146ZM17.309 16.1712V17.0789H17.3093H17.2782L17.2509 17.0791L17.2256 17.0794L17.2021 17.0803L17.1832 17.0812L17.166 17.0823L17.1509 17.0835L17.143 17.0844L17.1369 17.0853L17.1297 17.0867L17.13 17.0864H17.1311L17.1326 17.0855L17.1398 17.0826L17.1451 17.0803L17.1489 17.0783L17.1526 17.0757L17.1573 17.0725L17.1608 17.0698L17.1587 17.0716L17.1582 17.0722L17.1544 17.0765L17.1471 17.0844L17.1401 17.0931L17.1288 17.1079L17.1189 17.1213L17.107 17.139L17.0924 17.1608L17.0765 17.1861L17.0593 17.2132L17.0422 17.2422L17.0221 17.2757L16.2633 16.807L16.2862 16.7684L16.3098 16.7294L16.3328 16.6931L16.3546 16.6585L16.3772 16.6244L16.4008 16.5898L16.4264 16.555L16.4493 16.525L16.4755 16.4924L16.502 16.4619L16.5308 16.4308L16.5633 16.3994L16.5944 16.3715L16.6311 16.3421L16.6694 16.3151L16.7075 16.291L16.7462 16.2697L16.7875 16.25L16.832 16.232L16.8718 16.2183L16.9125 16.2067L16.9541 16.1971L16.9898 16.1904L17.0285 16.1843L17.0672 16.1799L17.1015 16.177L17.1355 16.1747L17.1707 16.1732L17.2041 16.1723L17.2387 16.1715L17.2742 16.1712H17.3088H17.309ZM17.3088 16.1712C17.5533 16.1712 17.7521 16.3741 17.7521 16.6247C17.7521 16.8753 17.5538 17.0789 17.3093 17.0789L17.3088 16.1712ZM20.424 17.0789H17.309V16.1712H20.424V17.0789ZM20.424 16.1712C20.6685 16.1712 20.867 16.3744 20.867 16.625C20.867 16.8756 20.6685 17.0789 20.424 17.0789V16.1712ZM23.5764 17.0789H20.424V16.1712H23.5764L23.5825 17.0789H23.5764ZM23.5764 16.1712C23.8209 16.1712 24.0195 16.3744 24.0195 16.625C24.0195 16.8756 23.8209 17.0789 23.5764 17.0789V16.1712ZM24.5692 16.7794L23.8017 17.2329L23.7997 17.2292L23.7854 17.2039L23.7717 17.1794L23.7592 17.1579L23.7467 17.1373L23.7374 17.1216L23.7284 17.1079L23.7185 17.0931L23.7142 17.0867L23.7084 17.0794L23.7026 17.0719L23.7002 17.0696L23.7011 17.0701V17.0704L23.7026 17.0716L23.7057 17.0742L23.7101 17.0771L23.7151 17.0803L23.718 17.0818L23.7252 17.0853L23.729 17.0867L23.7305 17.0873L23.7287 17.0867L23.7255 17.0858L23.7206 17.085L23.7142 17.0838L23.7028 17.0826L23.6886 17.0812L23.6749 17.0803L23.6546 17.0794L23.6319 17.0789L23.6089 17.0786L23.5825 17.0789L23.5703 16.1712L23.6089 16.1709L23.6482 16.1712L23.6848 16.1723L23.7209 16.1738L23.7607 16.1764L23.7976 16.1802L23.8351 16.1849L23.8747 16.1912L23.9139 16.1991L23.9526 16.2087L23.9915 16.2197L24.0314 16.2337L24.0718 16.2497L24.1145 16.27L24.1512 16.2901L24.1887 16.3131L24.225 16.3387L24.259 16.3651L24.2901 16.3924L24.3198 16.4206L24.3491 16.4515L24.3753 16.4817L24.3974 16.509L24.4201 16.5384L24.4436 16.5715L24.4617 16.5986L24.4817 16.6291L24.5009 16.6605L24.5181 16.6893L24.5358 16.7201L24.5535 16.7509L24.5713 16.7832L24.5692 16.7794ZM24.5713 16.7832C24.6913 17.0012 24.616 17.2783 24.4032 17.4013C24.1904 17.5243 23.9197 17.4472 23.7997 17.2292L24.5713 16.7832ZM23.6261 24.8112L22.8586 24.3576V24.3574L22.9277 24.2268L22.9903 24.0942L23.0452 23.9602L23.0929 23.825L23.1336 23.6881L23.1676 23.5506L23.1946 23.4125L23.2147 23.2738L23.2281 23.1345L23.2351 22.9953L23.2353 22.856L23.2289 22.7173L23.2162 22.5792L23.197 22.4423L23.1714 22.3062L23.1397 22.1719L23.1016 22.0391L23.0577 21.9085L23.0071 21.7803L22.9504 21.6535L22.8888 21.5306L22.8205 21.4105L22.7466 21.2933L22.667 21.1796L22.5818 21.0697L22.4905 20.9636L22.3945 20.8619L22.2922 20.7645L22.1849 20.6717L22.0718 20.5836L21.9538 20.5011L21.8297 20.4234L22.2727 19.6373L22.4347 19.7388L22.5899 19.8475L22.7385 19.9629L22.8801 20.0853L23.0144 20.2135L23.1417 20.3479L23.2615 20.4877L23.374 20.6325L23.4787 20.7822L23.5758 20.936L23.6656 21.0945L23.7476 21.257L23.8212 21.4221L23.8875 21.591L23.9453 21.7629L23.9956 21.937L24.0372 22.1138L24.0709 22.2923L24.0959 22.4722L24.1128 22.6534L24.1209 22.8357L24.1206 23.0185L24.1119 23.202L24.0939 23.3854L24.0674 23.5683L24.0317 23.7512L23.9872 23.9323L23.9331 24.1123L23.8703 24.2905L23.7979 24.467L23.7168 24.6402L23.6261 24.8115V24.8112ZM23.6261 24.8115C23.504 25.0284 23.2327 25.1028 23.0208 24.9775C22.8088 24.8522 22.7364 24.5742 22.8586 24.3574L23.6261 24.8115ZM18.5752 26.1977L19.0183 25.4116L19.1456 25.4828L19.275 25.5462L19.4058 25.6026L19.5378 25.6514L19.6715 25.693L19.8056 25.7282L19.9408 25.7555L20.0762 25.7764L20.2123 25.7901L20.3481 25.7974H20.4838L20.619 25.791L20.7539 25.7779L20.8877 25.7584L21.0202 25.7322L21.1514 25.6994L21.281 25.6604L21.4087 25.6154L21.534 25.5639L21.6572 25.5057L21.7776 25.4424L21.8951 25.3726L22.0096 25.2967L22.1204 25.2153L22.2277 25.1278L22.3312 25.0351L22.4303 24.9359L22.5257 24.8313L22.6164 24.7211L22.7021 24.6056L22.7827 24.4847L22.8586 24.3576L23.6261 24.8112L23.527 24.9772L23.4208 25.1365L23.3077 25.2886L23.1885 25.4336L23.0635 25.5709L22.9324 25.7014L22.7958 25.8244L22.6548 25.9392L22.5085 26.0468L22.3579 26.1465L22.2032 26.2384L22.0451 26.3221L21.8834 26.3977L21.7186 26.4655L21.5508 26.5251L21.381 26.5762L21.2086 26.619L21.0342 26.6533L20.8586 26.6791L20.6818 26.6963L20.5036 26.705L20.3248 26.7044L20.146 26.6954L19.9669 26.6771L19.7884 26.6498L19.6102 26.6131L19.4331 26.5675L19.2575 26.5126L19.0837 26.448L18.9116 26.3742L18.7421 26.2904L18.5752 26.1977ZM18.5752 26.1977C18.3632 26.0724 18.2909 25.7944 18.413 25.5776C18.5351 25.3607 18.8063 25.2862 19.0183 25.4116L18.5752 26.1977ZM17.2218 21.0238L17.9894 21.4774L17.9202 21.6082L17.8577 21.7408L17.8027 21.8748L17.755 22.01L17.7143 22.1469L17.6806 22.2838L17.6536 22.4225L17.6332 22.5615L17.6198 22.7005L17.6129 22.8397L17.6126 22.979L17.619 23.1177L17.6318 23.2558L17.6509 23.3927L17.6765 23.5282L17.7085 23.6631L17.7463 23.796L17.7905 23.9265L17.8408 24.055L17.8972 24.1812L17.9594 24.3044L18.0274 24.4248L18.1013 24.5417L18.181 24.6554L18.2661 24.7653L18.3574 24.8714L18.4534 24.9731L18.5557 25.0705L18.663 25.1633L18.7761 25.2514L18.8941 25.3339L19.0183 25.4116L18.5752 26.1977L18.4132 26.0962L18.258 25.9875L18.1094 25.8721L17.9678 25.7497L17.8335 25.6215L17.7062 25.4871L17.5864 25.3473L17.4739 25.2025L17.3692 25.0528L17.2721 24.8987L17.1826 24.7405L17.1006 24.5783L17.0267 24.4126L16.9607 24.244L16.9026 24.0721L16.8526 23.898L16.8107 23.7218L16.777 23.5427L16.752 23.3628L16.7351 23.1816L16.727 22.9993L16.7273 22.8165L16.736 22.633L16.754 22.4493L16.7808 22.2667L16.816 22.0844L16.8607 21.9027L16.9148 21.7227L16.9776 21.5445L17.05 21.368L17.1311 21.1948L17.2218 21.0238ZM17.2218 21.0238C17.3439 20.8069 17.6152 20.7325 17.8271 20.8575C18.0391 20.9825 18.1115 21.2605 17.9894 21.4774L17.2218 21.0238ZM22.2727 19.6373L21.8297 20.4234L21.7023 20.3522L21.5729 20.2888L21.4421 20.2324L21.3101 20.1836L21.1764 20.142L21.0423 20.1068L20.9072 20.0795L20.7717 20.0586L20.6356 20.0449L20.4998 20.0376H20.3641L20.2289 20.044L20.094 20.0571L19.9602 20.0766L19.8277 20.1028L19.6965 20.1356L19.5669 20.1746L19.4392 20.2196L19.3139 20.2711L19.1907 20.3292L19.0703 20.3926L18.9528 20.4624L18.8383 20.5383L18.7275 20.6197L18.6205 20.7069L18.5167 20.8002L18.4173 20.8994L18.3222 21.0038L18.2315 21.1139L18.1458 21.2294L18.0652 21.3503L17.9894 21.4774L17.2218 21.0238L17.321 20.8578L17.4271 20.6985L17.5402 20.5464L17.6594 20.4014L17.7847 20.2638L17.9155 20.1339L18.0519 20.0109L18.1932 19.8958L18.3394 19.7882L18.49 19.6885L18.6447 19.5966L18.8028 19.5129L18.9645 19.4373L19.1293 19.3695L19.2971 19.3099L19.4669 19.2588L19.6393 19.216L19.8137 19.1817L19.9893 19.1559L20.1661 19.1387L20.3443 19.13L20.5231 19.1306L20.7019 19.1396L20.881 19.1579L21.0595 19.1852L21.2377 19.2218L21.4148 19.2675L21.5904 19.3224L21.7642 19.387L21.9363 19.4608L22.1058 19.5446L22.2727 19.6373ZM22.2727 19.6373C22.4847 19.7626 22.5571 20.0406 22.435 20.2574C22.3128 20.4743 22.0416 20.5488 21.8297 20.4234L22.2727 19.6373Z" fill="#4D5C6B"/>
<path fill-rule="evenodd" clip-rule="evenodd" d="M7.71201 24.854L29.6344 33.0521L31.6239 34.8229L28.9948 34.8468L7.0724 26.6484L5.69113 30.5244C5.54169 30.9437 5.08437 31.1617 4.67501 31.0085C4.26566 30.8553 4.05285 30.3869 4.20228 29.9677L7.59804 20.4389C7.74748 20.0194 8.2048 19.8013 8.61415 19.9545C9.0238 20.1078 9.23632 20.5761 9.08689 20.9957L7.71201 24.854Z" fill="white"/>
<path d="M29.4823 33.4784L7.55992 25.2803L7.86403 24.4278L29.7865 32.6259L29.9248 32.7097L29.4823 33.4784ZM29.7865 32.6259C30.0161 32.7117 30.1342 32.9725 30.0504 33.2077C29.9667 33.4429 29.712 33.5641 29.4823 33.4784L29.7865 32.6259ZM31.3334 35.1655L29.344 33.3946L29.9248 32.7097L31.9143 34.4805L31.6277 35.2768L31.3334 35.1655ZM31.9143 34.4805C32.0989 34.6448 32.1184 34.9317 31.9582 35.1207C31.798 35.3097 31.5181 35.3297 31.3334 35.1655L31.9143 34.4805ZM28.991 34.393L31.6201 34.3692L31.6277 35.2768L28.9986 35.3007L28.8427 35.2731L28.991 34.393ZM28.9986 35.3007C28.7541 35.3027 28.5537 35.1015 28.5517 34.8509C28.5497 34.6003 28.7465 34.395 28.991 34.393L28.9986 35.3007ZM7.22441 26.2222L29.1468 34.4206L28.8427 35.2731L6.92031 27.0747L6.65632 26.4929L7.22441 26.2222ZM6.92031 27.0747C6.69063 26.9889 6.57259 26.7281 6.65632 26.4929C6.74005 26.2577 6.99473 26.1365 7.22441 26.2222L6.92031 27.0747ZM5.27505 30.369L6.65632 26.4929L7.4884 26.804L6.10713 30.6801L5.27505 30.369ZM6.10713 30.6801C6.0234 30.9153 5.76871 31.0365 5.53903 30.9507C5.30935 30.865 5.19132 30.6042 5.27505 30.369L6.10713 30.6801ZM4.52292 31.4348L4.82703 30.5824L4.84389 30.5882L4.86075 30.5928L4.8782 30.5972L4.89535 30.6001L4.91221 30.6024L4.92879 30.6036L4.94507 30.6039L4.9628 30.6033L4.97966 30.6021L4.99653 30.5998L5.01252 30.5972L5.02851 30.5934L5.04537 30.5885L5.06281 30.5824L5.0791 30.5766L5.09218 30.5704L5.10846 30.562L5.12474 30.553L5.1384 30.5446L5.15207 30.5347L5.16544 30.5242L5.17853 30.5132L5.1919 30.5001L5.20353 30.4885L5.2137 30.4765L5.22504 30.462L5.23522 30.4478L5.24481 30.4326L5.25354 30.4178L5.2608 30.403L5.26807 30.3867L5.27505 30.369L6.10713 30.6801L6.08445 30.7397L6.05857 30.7984L6.02921 30.8562L5.99781 30.9112L5.96438 30.9635L5.92862 31.0138L5.89111 31.0615L5.85012 31.1089L5.80767 31.1531L5.76464 31.1935L5.719 31.233L5.6719 31.2697L5.62218 31.3045L5.57131 31.3368L5.52072 31.3656L5.46897 31.3921L5.41227 31.4174L5.35704 31.4389L5.30238 31.4572L5.24539 31.4732L5.18696 31.4868L5.12736 31.4976L5.06805 31.5052L5.00816 31.5098L4.94856 31.5115L4.88692 31.5101L4.82558 31.5054L4.76452 31.4979L4.70376 31.4868L4.64387 31.4732L4.58281 31.4557L4.52292 31.4348ZM4.52292 31.4348C4.29324 31.3487 4.17521 31.088 4.25894 30.8528C4.34267 30.6175 4.59735 30.4963 4.82703 30.5824L4.52292 31.4348ZM4.52292 31.4348C4.29324 31.3487 4.17521 31.088 4.25894 30.8528C4.34267 30.6175 4.59735 30.4963 4.82703 30.5824L4.52292 31.4348ZM3.78621 29.8122L4.61828 30.1233L4.61247 30.1413L4.60811 30.1576L4.60433 30.1748L4.60113 30.1934L4.5991 30.2102L4.59793 30.2268L4.59764 30.246L4.59793 30.2637L4.5991 30.2786L4.60142 30.2969L4.60433 30.3146L4.60782 30.3303L4.61247 30.3475L4.61741 30.3634L4.62381 30.3803L4.63078 30.3969L4.63805 30.4117L4.64648 30.4274L4.65579 30.4425L4.6648 30.4565L4.67585 30.471L4.68661 30.4844L4.69678 30.4954L4.71016 30.5088L4.72237 30.5202L4.73487 30.5303L4.74999 30.5414L4.76452 30.5513L4.77906 30.56L4.7936 30.5678L4.80988 30.5754L4.82703 30.5824L4.52292 31.4348L4.46449 31.411L4.4075 31.3848L4.3511 31.3548L4.29761 31.3229L4.24644 31.2886L4.19817 31.2525L4.1502 31.2133L4.10485 31.1717L4.06298 31.1298L4.02083 31.0833L3.98274 31.0362L3.94727 30.9885L3.91326 30.9379L3.88244 30.8868L3.85366 30.8339L3.8272 30.7789L3.80394 30.724L3.78301 30.6681L3.76411 30.6097L3.74841 30.5513L3.73504 30.4908L3.72515 30.4312L3.71759 30.3716L3.71294 30.3079L3.71149 30.246L3.71294 30.1861L3.71701 30.123L3.72486 30.0596L3.73504 29.9986L3.7487 29.9361L3.76585 29.8733L3.78621 29.8122ZM3.78621 29.8122C3.86994 29.577 4.12462 29.4558 4.3543 29.5415C4.58398 29.6273 4.70201 29.8881 4.61828 30.1233L3.78621 29.8122ZM8.01404 20.5945L4.61828 30.1233L3.78621 29.8122L7.18197 20.2834L8.01404 20.5945ZM7.18197 20.2834C7.2657 20.0482 7.52038 19.927 7.75006 20.0128C7.97974 20.0985 8.09777 20.3593 8.01404 20.5945L7.18197 20.2834ZM8.76617 19.5284L8.46206 20.3808L8.4452 20.375L8.42834 20.3704L8.41089 20.366L8.39374 20.3631L8.37688 20.3608L8.36031 20.3596L8.34403 20.3593L8.32629 20.3599L8.30943 20.3611L8.29257 20.3634L8.27658 20.366L8.26059 20.3698L8.24372 20.3747L8.22773 20.3803L8.21 20.3869L8.19546 20.3933L8.18063 20.4012L8.16552 20.4096L8.15069 20.4189L8.13586 20.4294L8.12365 20.439L8.11057 20.45L8.09807 20.4622L8.08644 20.4742L8.07481 20.4878L8.06405 20.5012L8.05446 20.5149L8.04428 20.5309L8.03556 20.5457L8.02829 20.5605L8.02102 20.5768L8.01404 20.5945L7.18197 20.2834L7.20464 20.2238L7.23052 20.1651L7.25988 20.1073L7.29128 20.0523L7.32413 20.0009L7.36048 19.9494L7.39856 19.9011L7.4381 19.8555L7.48055 19.811L7.52445 19.7697L7.5701 19.7302L7.61836 19.6927L7.66691 19.659L7.71662 19.627L7.76838 19.5976L7.82158 19.5706L7.87682 19.5461L7.9306 19.5249L7.98671 19.506L8.0437 19.49L8.10214 19.4764L8.16174 19.4656L8.22104 19.4581L8.28094 19.4534L8.34054 19.4517L8.40217 19.4531L8.46352 19.4578L8.52457 19.4653L8.58533 19.4764L8.64522 19.49L8.70628 19.5075L8.76617 19.5284ZM8.76617 19.5284C8.99585 19.6145 9.11389 19.8753 9.03015 20.1105C8.94642 20.3457 8.69174 20.4669 8.46206 20.3808L8.76617 19.5284ZM8.76617 19.5284C8.99585 19.6145 9.11389 19.8753 9.03015 20.1105C8.94642 20.3457 8.69174 20.4669 8.46206 20.3808L8.76617 19.5284ZM9.50289 21.1513L8.67081 20.8402L8.67662 20.8222L8.68098 20.8059L8.68476 20.789L8.68796 20.7698L8.69029 20.7512L8.69145 20.735L8.69174 20.719L8.69116 20.7015L8.69 20.6844L8.68767 20.6663L8.68476 20.6486L8.68128 20.6329L8.67662 20.6158L8.6711 20.5983L8.66558 20.5829L8.65889 20.5678L8.65046 20.55L8.64203 20.5346L8.63447 20.5218L8.62429 20.5067L8.61353 20.4922L8.60336 20.4797L8.59144 20.4669L8.57923 20.4544L8.56731 20.4436L8.55364 20.4323L8.5394 20.4218L8.52544 20.4122L8.51003 20.4032L8.4955 20.3954L8.47922 20.3878L8.46206 20.3808L8.76617 19.5284L8.82461 19.5523L8.88159 19.5784L8.93799 19.6084L8.99062 19.6401L9.04295 19.6747L9.0915 19.7113L9.13831 19.7494L9.18453 19.7915L9.22698 19.8343L9.26739 19.879L9.30664 19.927L9.34182 19.9747L9.37525 20.0241L9.40782 20.0776L9.43602 20.1308L9.46131 20.1829L9.48544 20.2393L9.50667 20.2965L9.52498 20.3535L9.54068 20.412L9.55406 20.4724L9.56394 20.532L9.5715 20.5919L9.57615 20.6538L9.5779 20.7155L9.57644 20.7791L9.57179 20.8425L9.56423 20.9036L9.55406 20.9646L9.54039 21.0274L9.52324 21.0902L9.50289 21.1513ZM9.50289 21.1513C9.41916 21.3865 9.16476 21.5077 8.93508 21.422C8.70541 21.3362 8.58708 21.0754 8.67081 20.8402L9.50289 21.1513ZM7.29593 24.6985L8.67081 20.8402L9.50289 21.1513L8.12801 25.0096L7.55992 25.2803L7.29593 24.6985ZM8.12801 25.0096C8.04428 25.2448 7.7896 25.366 7.55992 25.2803C7.33024 25.1945 7.2122 24.9337 7.29593 24.6985L8.12801 25.0096Z" fill="#AAABA6"/>
</svg>
