<svg width="40" height="40" viewBox="0 0 40 40" fill="none" xmlns="http://www.w3.org/2000/svg">
<path fill-rule="evenodd" clip-rule="evenodd" d="M20.6218 12.1844H33.608V12.9561H20.6218V12.1844Z" fill="white"/>
<path d="M33.608 12.4275H20.6218V11.9414H33.608L33.8507 12.1845L33.608 12.4275ZM33.608 11.9414C33.742 11.9414 33.8507 12.0504 33.8507 12.1845C33.8507 12.3185 33.742 12.4275 33.608 12.4275V11.9414ZM33.3652 12.9561V12.1845H33.8507V12.9561L33.608 13.1991L33.3652 12.9561ZM33.8507 12.9561C33.8507 13.0901 33.742 13.1991 33.608 13.1991C33.4739 13.1991 33.3652 13.0901 33.3652 12.9561H33.8507ZM20.6218 12.713H33.608V13.1991H20.6218L20.379 12.9561L20.6218 12.713ZM20.6218 13.1991C20.4878 13.1991 20.379 13.0901 20.379 12.9561C20.379 12.822 20.4878 12.713 20.6218 12.713V13.1991ZM20.8646 12.1845V12.9561H20.379V12.1845L20.6218 11.9414L20.8646 12.1845ZM20.379 12.1845C20.379 12.0504 20.4878 11.9414 20.6218 11.9414C20.7558 11.9414 20.8646 12.0504 20.8646 12.1845H20.379Z" fill="#E94D11"/>
<path d="M33.0937 27.3767H20.7503V28.148H33.0937V27.3767Z" fill="white" stroke="#E94D11" stroke-width="0.582978" stroke-miterlimit="22.9256" stroke-linecap="round" stroke-linejoin="round"/>
<path fill-rule="evenodd" clip-rule="evenodd" d="M28.7141 9.50449L29.3651 9.18323L30.016 9.50449C30.5193 9.75306 31.0365 9.96384 31.0365 10.5252V29.3136C31.0365 29.8747 30.4987 30.048 30.016 30.334L29.3651 30.7198L28.7141 30.334C28.2315 30.048 27.6937 29.8747 27.6937 29.3136V10.5252C27.6937 9.96384 28.2109 9.75306 28.7141 9.50449Z" fill="white" stroke="#4D5C6B" stroke-width="0.874641" stroke-miterlimit="22.9256" stroke-linecap="round" stroke-linejoin="round"/>
<path d="M29.3651 9.18323V30.7198" stroke="#AAABA6" stroke-width="0.582978" stroke-miterlimit="22.9256" stroke-linecap="round" stroke-linejoin="round"/>
<path fill-rule="evenodd" clip-rule="evenodd" d="M33.3682 9.50449L34.0191 9.18323L34.6701 9.50449C35.1734 9.75306 35.6909 9.96384 35.6909 10.5252V29.3136C35.6909 29.8747 35.153 30.048 34.6701 30.334L34.0191 30.7198L33.3682 30.334C32.8856 30.048 32.3477 29.8747 32.3477 29.3136V10.5252C32.3477 9.96384 32.8649 9.75306 33.3682 9.50449Z" fill="white" stroke="#4D5C6B" stroke-width="0.874641" stroke-miterlimit="22.9256" stroke-linecap="round" stroke-linejoin="round"/>
<path d="M34.0192 9.18323V30.7198" stroke="#AAABA6" stroke-width="0.582978" stroke-miterlimit="22.9256" stroke-linecap="round" stroke-linejoin="round"/>
<path fill-rule="evenodd" clip-rule="evenodd" d="M23.9173 9.50449L24.5683 9.18323L25.2192 9.50449C25.7225 9.75306 26.2397 9.96384 26.2397 10.5252V29.3136C26.2397 29.8747 25.7018 30.048 25.2192 30.334L24.5683 30.7198L23.9173 30.334C23.4347 30.048 22.8969 29.8747 22.8969 29.3136V10.5252C22.8969 9.96384 23.4141 9.75306 23.9173 9.50449Z" fill="white" stroke="#4D5C6B" stroke-width="0.874641" stroke-miterlimit="22.9256" stroke-linecap="round" stroke-linejoin="round"/>
<path d="M24.5682 9.18323V30.7198" stroke="#AAABA6" stroke-width="0.582978" stroke-miterlimit="22.9256" stroke-linecap="round" stroke-linejoin="round"/>
<path fill-rule="evenodd" clip-rule="evenodd" d="M19.2307 9.60109L19.8817 9.27954L20.5326 9.60109C21.0359 9.84938 21.5531 10.0604 21.5531 10.6216V29.4099C21.5531 29.971 21.0153 30.1446 20.5326 30.4304L19.8817 30.8162L19.2307 30.4304C18.7481 30.1443 18.2103 29.9713 18.2103 29.4099V10.6216C18.2103 10.0602 18.7275 9.84967 19.2307 9.60109Z" fill="white" stroke="#4D5C6B" stroke-width="0.874641" stroke-miterlimit="22.9256" stroke-linecap="round" stroke-linejoin="round"/>
<path d="M19.8817 9.27954V30.8162" stroke="#AAABA6" stroke-width="0.582978" stroke-miterlimit="22.9256" stroke-linecap="round" stroke-linejoin="round"/>
<path fill-rule="evenodd" clip-rule="evenodd" d="M10.0305 11.9095L7.85875 11.9319C7.0508 12.0726 7.18512 13.2472 8.00383 13.2498L10.0331 13.2504C10.1329 13.5519 10.316 13.7804 10.6347 13.831L10.628 14.8137L9.76799 14.8169L9.78079 15.6315C5.67418 15.9251 5.46224 17.6832 5.45526 20.883L9.47028 20.8818C9.48627 20.3199 9.97907 19.8515 10.7152 19.8221L14.9366 19.6541L14.9305 15.6341L14.7509 15.6347L14.3936 15.6353L14.095 15.635L13.7286 15.6364H13.4164L13.0745 15.637L12.7277 15.6362L12.5971 15.628L12.6058 14.8148L11.7374 14.8166L11.738 13.831C12.0662 13.7476 12.2157 13.6391 12.3445 13.251L14.5194 13.2402C15.2759 13.1114 15.1686 12.0165 14.4973 11.9296L12.3288 11.9127C11.8305 10.9577 10.3768 11.024 10.0305 11.9095Z" fill="white" stroke="#E94D11" stroke-width="0.637403" stroke-miterlimit="22.9256" stroke-linecap="round" stroke-linejoin="round"/>
<path d="M10.2819 21.6121H4.30853V23.0175H10.2819V21.6121Z" fill="white" stroke="#4D5C6B" stroke-width="0.637403" stroke-miterlimit="22.9256" stroke-linecap="round" stroke-linejoin="round"/>
<path fill-rule="evenodd" clip-rule="evenodd" d="M8.63058 28.0966C8.63058 28.9505 7.93834 29.6424 7.08446 29.6424C6.23087 29.6424 5.53864 28.9505 5.53864 28.0966C5.53864 27.5887 6.81786 25.5594 7.15191 24.8965C7.44003 25.5195 8.63058 27.6291 8.63058 28.0966Z" fill="white" stroke="#AAABA6" stroke-width="0.637403" stroke-miterlimit="22.9256" stroke-linecap="round" stroke-linejoin="round"/>
</svg>
