<svg width="40" height="40" viewBox="0 0 40 40" fill="none" xmlns="http://www.w3.org/2000/svg">
<path d="M17.1987 14.2965C16.9527 14.2965 16.753 14.097 16.753 13.8514C16.753 13.6057 16.9527 13.4062 17.1987 13.4062V14.2965ZM35.5448 14.2965H17.1987V13.4062H35.5448V14.2965ZM35.5448 13.4062C35.7908 13.4062 35.9905 13.6057 35.9905 13.8514C35.9905 14.097 35.7908 14.2965 35.5448 14.2965V13.4062Z" fill="#AAABA6"/>
<path fill-rule="evenodd" clip-rule="evenodd" d="M22.3522 6.4624H30.1476C31.9548 6.4624 33.4332 7.94107 33.4332 9.74797V18.431C33.4332 21.3601 32.4546 28.0578 28.1073 28.0578H24.3929C20.0453 28.0578 19.0667 21.2229 19.0667 18.5682V9.74797C19.0667 7.94107 20.5453 6.4624 22.3522 6.4624Z" fill="white" stroke="#AAABA6" stroke-width="1.1588" stroke-miterlimit="22.9256" stroke-linecap="round" stroke-linejoin="round"/>
<path d="M18.575 13.0452H18.1404V14.5887H18.575V13.0452Z" fill="white" stroke="#4D5C6B" stroke-width="1.1588" stroke-miterlimit="22.9256" stroke-linecap="round" stroke-linejoin="round"/>
<path d="M34.4741 13.0452H34.0394V14.5887H34.4741V13.0452Z" fill="white" stroke="#4D5C6B" stroke-width="1.1588" stroke-miterlimit="22.9256" stroke-linecap="round" stroke-linejoin="round"/>
<path fill-rule="evenodd" clip-rule="evenodd" d="M22.6662 6.4624H29.834C30.4047 6.4624 30.871 6.92903 30.871 7.49974V25.4292C30.871 26.8748 29.6883 28.0575 28.2428 28.0575H24.2571C22.8116 28.0575 21.6289 26.8748 21.6289 25.4292V7.49974C21.6289 6.92903 22.0955 6.4624 22.6662 6.4624Z" fill="white" stroke="#4D5C6B" stroke-width="1.1588" stroke-miterlimit="22.9256" stroke-linecap="round" stroke-linejoin="round"/>
<path d="M30.0476 13.7827H22.4985V19.1357H30.0476V13.7827Z" fill="white" stroke="#E94D11" stroke-width="0.868913" stroke-miterlimit="22.9256" stroke-linecap="round" stroke-linejoin="round"/>
<path fill-rule="evenodd" clip-rule="evenodd" d="M23.2448 14.4983H29.3013V18.4206H23.2448V14.4983Z" fill="white"/>
<path d="M29.3013 14.721H23.2448V14.2756H29.3013L29.5234 14.4983L29.3013 14.721ZM29.3013 14.2756C29.4237 14.2756 29.5234 14.3754 29.5234 14.4983C29.5234 14.6213 29.4237 14.721 29.3013 14.721V14.2756ZM29.0792 18.4206V14.4983H29.5234V18.4206L29.3013 18.6433L29.0792 18.4206ZM29.5234 18.4206C29.5234 18.5436 29.4237 18.6433 29.3013 18.6433C29.1789 18.6433 29.0792 18.5436 29.0792 18.4206H29.5234ZM23.2448 18.1979H29.3013V18.6433H23.2448L23.0226 18.4206L23.2448 18.1979ZM23.2448 18.6433C23.1224 18.6433 23.0226 18.5436 23.0226 18.4206C23.0226 18.2976 23.1224 18.1979 23.2448 18.1979V18.6433ZM23.4669 14.4983V18.4206H23.0226V14.4983L23.2448 14.2756L23.4669 14.4983ZM23.0226 14.4983C23.0226 14.3754 23.1224 14.2756 23.2448 14.2756C23.3672 14.2756 23.4669 14.3754 23.4669 14.4983H23.0226Z" fill="#FFBD16"/>
<path d="M6.40001 27.7483C6.55846 27.8425 6.6105 28.0481 6.5163 28.2065C6.42211 28.365 6.21656 28.417 6.05811 28.3228L6.40001 27.7483ZM4.20033 24.7677L4.85273 24.9125L4.83122 25.0186L4.81435 25.1227L4.80156 25.2256L4.79342 25.3265L4.78935 25.426L4.78964 25.5234L4.79429 25.6202L4.80302 25.7152L4.8161 25.8089L4.83325 25.9013L4.85477 25.9923L4.88064 26.083L4.91059 26.1723L4.94518 26.2609L4.98414 26.3493L5.02746 26.4363L5.07543 26.5226L5.12805 26.6084L5.18562 26.6938L5.24813 26.7787L5.315 26.8628L5.38739 26.9465L5.46531 27.0299L5.54758 27.1128L5.63538 27.1945L5.72842 27.2759L5.82669 27.3561L5.93077 27.4364L6.03979 27.5157L6.15434 27.594L6.27442 27.6713L6.40001 27.7483L6.05811 28.3228L5.91856 28.2376L5.78453 28.151L5.65486 28.0623L5.53014 27.9719L5.41094 27.88L5.29639 27.7864L5.18707 27.6905L5.08299 27.5931L4.98385 27.4939L4.89024 27.3931L4.80098 27.2901L4.71725 27.1852L4.63904 27.0788L4.56578 26.97L4.49804 26.8599L4.43553 26.7473L4.37884 26.6331L4.32767 26.5174L4.28202 26.4002L4.24219 26.2813L4.2076 26.1609L4.1791 26.0391L4.15614 25.9158L4.13898 25.792L4.12735 25.6667L4.12154 25.5408L4.12067 25.4137L4.1259 25.2858L4.13637 25.157L4.15265 25.0279L4.17358 24.8983L4.20033 24.7677ZM4.20033 24.7677C4.24016 24.5878 4.41896 24.4741 4.59892 24.5139C4.77889 24.5538 4.89256 24.7326 4.85273 24.9125L4.20033 24.7677ZM6.66894 23.4487L6.6858 24.1168L6.54625 24.118L6.41251 24.1148L6.28575 24.1072L6.16568 24.0967L6.05171 24.0839L5.94472 24.0694L5.84413 24.054L5.75022 24.0386L5.66271 24.0235L5.58247 24.0095L5.51008 23.9979L5.4435 23.9883L5.38565 23.9816L5.3368 23.9784L5.29523 23.9778L5.26354 23.9799L5.24028 23.9836L5.22225 23.9883L5.21004 23.9929L5.19899 23.9996L5.18533 24.0098L5.16789 24.027L5.1455 24.0543L5.11962 24.0927L5.09084 24.1441L5.06002 24.2095L5.02717 24.2898L4.99345 24.384L4.95914 24.4933L4.92425 24.6171L4.88907 24.757L4.85273 24.9125L4.20033 24.7677L4.239 24.6L4.27824 24.445L4.31836 24.3026L4.35965 24.1717L4.40268 24.0514L4.44774 23.9409L4.49658 23.8383L4.54979 23.7438L4.60823 23.6566L4.67364 23.5769L4.7469 23.5051L4.82802 23.4432L4.91582 23.3929L5.00769 23.3551L5.0984 23.3301L5.18911 23.3152L5.27778 23.3097L5.36239 23.3103L5.4467 23.3158L5.52898 23.3254L5.61009 23.3368L5.69295 23.3501L5.77668 23.3647L5.86187 23.3792L5.94938 23.394L6.04009 23.4077L6.13428 23.4205L6.23139 23.4315L6.33402 23.4403L6.44042 23.4467L6.55148 23.4493L6.66894 23.4487ZM6.66894 23.4487C6.85326 23.444 7.00677 23.59 7.01142 23.7743C7.01608 23.9586 6.87013 24.1121 6.6858 24.1168L6.66894 23.4487ZM9.44573 22.1767L9.91904 22.6489L9.92137 22.6466L9.842 22.7259L9.76205 22.8038L9.68035 22.88L9.5972 22.9547L9.51289 23.0274L9.4277 23.0978L9.34107 23.1667L9.25239 23.2338L9.16314 23.2984L9.07214 23.3615L8.97969 23.4222L8.88549 23.481L8.78984 23.5374L8.69331 23.5911L8.59504 23.6429L8.49532 23.6923L8.39328 23.7394L8.29007 23.7836L8.18598 23.8255L8.08016 23.8647L7.972 23.9016L7.86298 23.9354L7.7525 23.9665L7.6397 23.9947L7.5266 24.0203L7.41118 24.0432L7.29373 24.063L7.17482 24.0799L7.05532 24.0935L6.9338 24.1043L6.81053 24.1121L6.6858 24.1168L6.66894 23.4487L6.7768 23.4446L6.88263 23.4379L6.98729 23.4283L7.0905 23.4164L7.19139 23.4025L7.29024 23.3856L7.38821 23.3661L7.48503 23.3446L7.57981 23.3205L7.67342 23.294L7.76558 23.2655L7.85571 23.235L7.94526 23.2016L8.03422 23.1661L8.12115 23.1289L8.20633 23.0893L8.29094 23.0475L8.37467 23.0033L8.45782 22.9571L8.53893 22.9094L8.61918 22.8594L8.69826 22.8073L8.77704 22.753L8.85467 22.6966L8.93113 22.6387L9.00672 22.5785L9.08202 22.5163L9.15587 22.4529L9.22855 22.3875L9.30094 22.3195L9.37276 22.2503L9.4434 22.1791L9.44573 22.1767ZM9.4434 22.1791C9.57249 22.0474 9.78443 22.0447 9.91613 22.1738C10.0478 22.3029 10.0505 22.5149 9.92137 22.6466L9.4434 22.1791ZM14.5696 21.6671L14.1789 22.2096L14.2082 22.2285L14.057 22.1445L13.9076 22.0665L13.7588 21.9947L13.6116 21.9284L13.466 21.8688L13.3212 21.8148L13.1782 21.7671L13.0363 21.7255L12.8959 21.69L12.7566 21.6604L12.6188 21.6368L12.483 21.62L12.3478 21.6089L12.2138 21.604L12.0812 21.6051L11.9498 21.6124L11.8193 21.6261L11.689 21.6461L11.5605 21.6723L11.4323 21.7052L11.3044 21.7444L11.177 21.7903L11.0503 21.843L10.9235 21.9026L10.7976 21.9694L10.6712 22.0439L10.545 22.125L10.4197 22.2139L10.2941 22.3108L10.1691 22.4154L10.0438 22.5282L9.91904 22.6489L9.44573 22.1767L9.58732 22.0398L9.73065 21.9107L9.87543 21.7898L10.022 21.6767L10.1705 21.5714L10.3205 21.4746L10.4714 21.3856L10.6247 21.3048L10.7793 21.2318L10.9352 21.167L11.0927 21.11L11.2515 21.0615L11.4111 21.0205L11.5722 20.9879L11.7338 20.9632L11.8963 20.9461L12.0597 20.937L12.2231 20.9353L12.3874 20.9414L12.5516 20.9548L12.7171 20.9757L12.8822 21.0039L13.047 21.0388L13.2125 21.0807L13.3782 21.1292L13.5439 21.1845L13.7096 21.2461L13.8756 21.3144L14.0413 21.3888L14.2076 21.4694L14.3739 21.556L14.5402 21.6482L14.5696 21.6671ZM14.5402 21.6482C14.7004 21.7398 14.756 21.9441 14.6644 22.1043C14.5728 22.2645 14.3684 22.3201 14.2082 22.2285L14.5402 21.6482ZM19.765 21.9534L20.0546 22.5558L20.0589 22.5538L19.8793 22.6407L19.699 22.7233L19.5182 22.8004L19.337 22.8722L19.1553 22.9387L18.9736 22.9995L18.7913 23.055L18.6082 23.1045L18.425 23.1481L18.2416 23.1856L18.0572 23.217L17.8726 23.2417L17.6877 23.26L17.5028 23.2716L17.3176 23.2766L17.1315 23.2742L16.9461 23.2649L16.7603 23.2487L16.5742 23.2248L16.3881 23.1937L16.2027 23.155L16.0169 23.1088L15.8314 23.0545L15.6462 22.9928L15.4613 22.923L15.2767 22.8454L15.0926 22.7599L14.9089 22.6663L14.7257 22.5643L14.5429 22.4544L14.3609 22.3361L14.1789 22.2096L14.5696 21.6671L14.7336 21.7813L14.8976 21.8875L15.0607 21.9857L15.2235 22.0761L15.3857 22.1587L15.5476 22.2343L15.709 22.302L15.8701 22.3631L16.0308 22.4166L16.1913 22.4634L16.3515 22.5032L16.512 22.5367L16.6719 22.5637L16.8318 22.584L16.992 22.598L17.1525 22.6061L17.3124 22.6079L17.4732 22.6035L17.6342 22.5936L17.7953 22.5777L17.9566 22.5558L18.1183 22.5285L18.2808 22.4951L18.4436 22.4567L18.6064 22.4125L18.7701 22.3628L18.9344 22.3079L19.0986 22.2477L19.2635 22.1823L19.4286 22.1116L19.5943 22.036L19.7606 21.9555L19.765 21.9534ZM19.7606 21.9555C19.9258 21.8732 20.1267 21.9404 20.209 22.1055C20.2912 22.2706 20.2241 22.4715 20.0589 22.5538L19.7606 21.9555ZM24.1356 23.492L23.4867 23.6531L23.5073 23.7121L23.4311 23.5531L23.3526 23.4042L23.2721 23.2647L23.1895 23.1344L23.1055 23.0138L23.0195 22.9018L22.9322 22.7989L22.8433 22.7047L22.7532 22.6192L22.6616 22.5416L22.5685 22.4718L22.4743 22.4099L22.3781 22.355L22.281 22.307L22.1816 22.2663L22.0798 22.2317L21.9757 22.2038L21.8693 22.182L21.7603 22.1668L21.6478 22.1578L21.5324 22.1552L21.414 22.159L21.2925 22.1692L21.1672 22.186L21.0387 22.2093L20.9073 22.2389L20.773 22.2753L20.6352 22.3183L20.4945 22.368L20.3502 22.4241L20.204 22.4867L20.0546 22.5558L19.765 21.9534L19.9319 21.8761L20.0973 21.8055L20.2613 21.7412L20.4241 21.6839L20.5857 21.6333L20.7462 21.59L20.9055 21.554L21.0631 21.5255L21.2198 21.5046L21.3751 21.4915L21.5295 21.4865L21.6821 21.4903L21.833 21.5022L21.9821 21.5232L22.1292 21.5531L22.274 21.5921L22.4159 21.64L22.5555 21.6976L22.6915 21.7642L22.8244 21.8401L22.9535 21.9252L23.0785 22.0189L23.1997 22.1215L23.3172 22.2331L23.4306 22.3535L23.5399 22.482L23.6451 22.6189L23.7466 22.7646L23.8443 22.9187L23.9382 23.0815L24.0283 23.253L24.1149 23.433L24.1356 23.492ZM24.1149 23.433C24.192 23.6007 24.1184 23.7993 23.9507 23.8764C23.7829 23.9534 23.5844 23.8798 23.5073 23.7121L24.1149 23.433ZM22.6084 28.774L22.22 28.2298L22.3237 28.1527L22.4246 28.0719L22.5229 27.987L22.6183 27.8981L22.7107 27.805L22.7997 27.7082L22.8849 27.6073L22.9671 27.5024L23.0456 27.3934L23.1201 27.2803L23.1907 27.1628L23.2576 27.0413L23.3198 26.9157L23.3779 26.7854L23.4317 26.6508L23.4806 26.5124L23.5248 26.3688L23.564 26.2214L23.5977 26.0691L23.6265 25.9121L23.6498 25.7501L23.6675 25.5838L23.6791 25.4129L23.6844 25.237L23.6838 25.0562L23.6765 24.8704L23.6629 24.6796L23.6422 24.4846L23.6143 24.284L23.5794 24.0787L23.537 23.8685L23.4867 23.6531L24.1356 23.492L24.19 23.726L24.2365 23.956L24.2749 24.1816L24.3057 24.4032L24.3286 24.6203L24.344 24.8332L24.3519 25.0416L24.3531 25.2457L24.3467 25.446L24.3333 25.6414L24.3132 25.8327L24.2865 26.0196L24.253 26.2016L24.2135 26.3796L24.1673 26.5531L24.1155 26.7218L24.0574 26.8863L23.9937 27.0459L23.9245 27.2006L23.8501 27.3506L23.7704 27.496L23.6858 27.6367L23.5963 27.7725L23.5021 27.9036L23.4035 28.0295L23.3009 28.1507L23.1939 28.2667L23.084 28.3778L22.97 28.4842L22.8526 28.5859L22.7319 28.6825L22.6084 28.774ZM22.6084 28.774C22.4584 28.881 22.249 28.8461 22.142 28.6961C22.035 28.5461 22.0699 28.3368 22.22 28.2298L22.6084 28.774Z" fill="#E94D11"/>
<path fill-rule="evenodd" clip-rule="evenodd" d="M7.68618 25.8101H21.0736C21.512 25.8101 21.8705 26.1685 21.8705 26.6067V26.9157H6.88928V26.6067C6.88928 26.1685 7.24776 25.8101 7.68618 25.8101Z" fill="white"/>
<path d="M21.0736 26.2556H7.6862V25.3643H21.0736V26.2556ZM21.0736 25.3643C21.3195 25.3643 21.5193 25.564 21.5193 25.81C21.5193 26.0559 21.3195 26.2556 21.0736 26.2556V25.3643ZM22.3162 26.6066H21.4248L21.4242 26.5882L21.423 26.5705L21.4207 26.5539L21.4178 26.5365L21.4137 26.5199L21.4088 26.5031L21.4033 26.4862L21.3974 26.4714L21.3908 26.4565L21.3826 26.4411L21.3745 26.4266L21.3646 26.4115L21.355 26.3978L21.3445 26.3847L21.3329 26.3711L21.3213 26.3591L21.3094 26.3475L21.2966 26.3365L21.2823 26.3254L21.2681 26.3152L21.2538 26.3059L21.2393 26.2978L21.2245 26.29L21.2093 26.2833L21.1934 26.2769L21.1774 26.2716L21.1602 26.2667L21.1439 26.2626L21.1265 26.2597L21.1096 26.2574L21.0922 26.2562L21.0736 26.2556V25.3643L21.137 25.366L21.1998 25.3707L21.2626 25.3788L21.3236 25.3898L21.3841 25.4038L21.4425 25.4204L21.5004 25.4401L21.5565 25.4622L21.6123 25.4875L21.6661 25.5151L21.7184 25.5454L21.7687 25.5779L21.8167 25.612L21.8629 25.6486L21.9083 25.6876L21.9516 25.7288L21.9929 25.7722L22.0312 25.8166L22.0685 25.8634L22.1031 25.9126L22.135 25.962L22.1653 26.0143L22.1926 26.0675L22.2179 26.1231L22.2406 26.1803L22.2601 26.2379L22.2766 26.2961L22.2906 26.3568L22.3016 26.4173L22.3098 26.4804L22.3144 26.5435L22.3162 26.6066ZM22.3162 26.6066C22.3162 26.8525 22.1164 27.0523 21.8705 27.0523C21.6245 27.0523 21.4248 26.8525 21.4248 26.6066H22.3162ZM21.4248 26.9156V26.6066H22.3162V26.9156L21.8705 27.3613L21.4248 26.9156ZM22.3162 26.9156C22.3162 27.1616 22.1164 27.3613 21.8705 27.3613C21.6245 27.3613 21.4248 27.1616 21.4248 26.9156H22.3162ZM6.8893 26.4699H21.8705V27.3613H6.8893L6.4436 26.9156L6.8893 26.4699ZM6.8893 27.3613C6.64334 27.3613 6.4436 27.1616 6.4436 26.9156C6.4436 26.6696 6.64334 26.4699 6.8893 26.4699V27.3613ZM7.33499 26.6066V26.9156H6.4436V26.6066H7.33499ZM6.4436 26.6066C6.4436 26.3606 6.64334 26.1609 6.8893 26.1609C7.13526 26.1609 7.33499 26.3606 7.33499 26.6066H6.4436ZM7.6862 25.3643V26.2556L7.66759 26.2562L7.65014 26.2574L7.63328 26.2597L7.61584 26.2626L7.59956 26.2667L7.58241 26.2716L7.56642 26.2769L7.55042 26.2833L7.53531 26.29L7.52048 26.2978L7.50594 26.3059L7.4917 26.3152L7.47745 26.3254L7.4632 26.3365L7.45041 26.3475L7.43849 26.3591L7.42686 26.3711L7.41523 26.3847L7.40477 26.3978L7.39517 26.4115L7.38529 26.4266L7.37715 26.4411L7.36901 26.4565L7.36232 26.4714L7.35651 26.4862L7.35098 26.5031L7.34604 26.5199L7.34197 26.5365L7.33906 26.5539L7.33674 26.5705L7.33557 26.5882L7.33499 26.6066H6.4436L6.44535 26.5435L6.45 26.4804L6.45814 26.4173L6.46919 26.3568L6.48314 26.2961L6.49972 26.2379L6.5192 26.1803L6.54187 26.1231L6.56716 26.0675L6.59449 26.0143L6.62473 25.962L6.65671 25.9126L6.69131 25.8634L6.72852 25.8166L6.7669 25.7722L6.80818 25.7288L6.8515 25.6876L6.89686 25.6486L6.94308 25.612L6.99105 25.5779L7.04135 25.5454L7.09368 25.5151L7.14747 25.4875L7.20329 25.4622L7.2594 25.4401L7.31726 25.4204L7.37569 25.4038L7.43617 25.3898L7.49722 25.3788L7.56002 25.3707L7.62282 25.366L7.6862 25.3643ZM7.6862 25.3643C7.93216 25.3643 8.13189 25.564 8.13189 25.81C8.13189 26.0559 7.93216 26.2556 7.6862 26.2556V25.3643Z" fill="#AAABA6"/>
<path fill-rule="evenodd" clip-rule="evenodd" d="M7.26524 26.9995H13.0738C13.6875 26.9995 14.1896 27.5016 14.1896 28.1153V30.0874C12.1865 31.5073 12.6348 33.4314 11.3204 33.5366H9.97487C7.91473 33.5366 6.22906 31.851 6.22906 29.7908V28.0357C6.22906 27.4658 6.69511 26.9995 7.26524 26.9995Z" fill="white"/>
<path d="M13.0738 27.4451H7.26525V26.5537H13.0738V27.4451ZM13.0738 26.5537C13.3198 26.5537 13.5195 26.7534 13.5195 26.9994C13.5195 27.2454 13.3198 27.4451 13.0738 27.4451V26.5537ZM14.6353 28.1152H13.7439L13.7431 28.0806L13.7405 28.0466L13.7364 28.0132L13.7303 27.9809L13.723 27.9489L13.714 27.9178L13.7035 27.887L13.6913 27.8562L13.6777 27.8262L13.6631 27.798L13.6471 27.7701L13.6288 27.7416L13.6102 27.7152L13.5907 27.6905L13.5689 27.6658L13.5468 27.6422L13.5233 27.6201L13.4986 27.5983L13.4739 27.5788L13.4474 27.5602L13.4189 27.5419L13.391 27.5259L13.3628 27.5114L13.3328 27.4977L13.302 27.4855L13.2712 27.475L13.2401 27.466L13.2081 27.4588L13.1759 27.4527L13.1424 27.4486L13.1084 27.446L13.0738 27.4451V26.5537L13.1538 26.5557L13.2325 26.5618L13.3102 26.5717L13.3878 26.5854L13.4634 26.6031L13.5381 26.6244L13.6108 26.6494L13.6811 26.6773L13.75 26.7084L13.8184 26.7433L13.8835 26.7814L13.9457 26.8212L14.0071 26.8648L14.0667 26.9116L14.1228 26.9602L14.1771 27.0119L14.2289 27.0663L14.2774 27.1224L14.3242 27.182L14.3679 27.2433L14.4077 27.3055L14.4458 27.3707L14.4807 27.439L14.5118 27.5079L14.5397 27.5783L14.5647 27.6509L14.5859 27.7257L14.6036 27.8012L14.6173 27.8789L14.6272 27.9565L14.6333 28.0353L14.6353 28.1152ZM14.6353 28.1152C14.6353 28.3612 14.4356 28.5609 14.1896 28.5609C13.9437 28.5609 13.7439 28.3612 13.7439 28.1152H14.6353ZM13.7439 30.0873V28.1152H14.6353V30.0873L14.4475 30.451L13.7439 30.0873ZM14.6353 30.0873C14.6353 30.3332 14.4356 30.533 14.1896 30.533C13.9437 30.533 13.7439 30.3332 13.7439 30.0873H14.6353ZM11.3204 33.9822V33.0908L11.2849 33.0923L11.3605 33.0827L11.423 33.0682L11.4759 33.0493L11.5222 33.0269L11.5652 32.9995L11.6073 32.9658L11.6501 32.9245L11.694 32.8737L11.7396 32.8126L11.7859 32.7417L11.833 32.6608L11.8812 32.5698L11.9306 32.4698L11.9818 32.3611L12.035 32.2448L12.0905 32.1215L12.1493 31.9916L12.2121 31.8561L12.2795 31.7154L12.3522 31.5706L12.431 31.4217L12.517 31.27L12.6104 31.1156L12.713 30.9592L12.8249 30.8016L12.947 30.6434L13.0802 30.4862L13.2244 30.3292L13.3817 30.1739L13.5512 30.021L13.7346 29.8704L13.9318 29.7236L14.4475 30.451L14.283 30.5734L14.1321 30.6967L13.9934 30.8222L13.8658 30.9484L13.7483 31.0758L13.6402 31.204L13.5407 31.3325L13.4491 31.4616L13.3645 31.5912L13.2857 31.7206L13.2125 31.8503L13.1442 31.9794L13.0796 32.1079L13.0186 32.2358L12.9598 32.3626L12.9029 32.4884L12.8467 32.6129L12.7906 32.7361L12.7336 32.8571L12.6743 32.9769L12.6115 33.0946L12.5441 33.2103L12.47 33.3231L12.3888 33.4319L12.2978 33.5368L12.1958 33.6357L12.0815 33.7264L11.9554 33.806L11.8184 33.8726L11.6713 33.9241L11.5169 33.9601L11.3559 33.9808L11.3204 33.9822ZM11.3559 33.9808C11.1108 34.0003 10.8956 33.8171 10.8762 33.572C10.8567 33.3269 11.0398 33.1118 11.2849 33.0923L11.3559 33.9808ZM9.97488 33.0908H11.3204V33.9822H9.97488V33.0908ZM9.97488 33.9822C9.72892 33.9822 9.52919 33.7825 9.52919 33.5365C9.52919 33.2906 9.72892 33.0908 9.97488 33.0908V33.9822ZM5.78339 29.7907H6.67477L6.67913 29.9599L6.69193 30.1271L6.71286 30.2914L6.74222 30.4533L6.77886 30.6123L6.82363 30.7682L6.87567 30.9214L6.93498 31.0708L7.00127 31.2171L7.07424 31.3592L7.15419 31.4976L7.23996 31.6316L7.33212 31.7607L7.43097 31.886L7.53476 32.0061L7.64466 32.121L7.7595 32.2308L7.87957 32.3346L8.00488 32.4335L8.13396 32.5257L8.26799 32.6114L8.40638 32.6914L8.54855 32.7643L8.69479 32.8306L8.84422 32.8899L8.99744 32.942L9.15327 32.9868L9.3123 33.0234L9.47424 33.0528L9.6385 33.0737L9.80567 33.0865L9.97488 33.0908V33.9822L9.76032 33.9767L9.54838 33.9604L9.33876 33.9337L9.13263 33.8967L8.92999 33.8497L8.73113 33.7927L8.53663 33.7267L8.34591 33.6511L8.16071 33.5668L7.98016 33.474L7.80456 33.3731L7.63448 33.2635L7.46993 33.1464L7.31206 33.0219L7.16001 32.8902L7.01435 32.7513L6.87538 32.6056L6.74368 32.4536L6.61924 32.2957L6.50208 32.1311L6.39247 31.9611L6.29159 31.7854L6.19884 31.6049L6.11453 31.4197L6.03894 31.229L5.97294 31.0345L5.91596 30.8356L5.86886 30.633L5.83194 30.4269L5.80519 30.2172L5.78891 30.0053L5.78339 29.7907ZM5.78339 29.7907C5.78339 29.5448 5.98312 29.345 6.22908 29.345C6.47504 29.345 6.67477 29.5448 6.67477 29.7907H5.78339ZM6.67477 28.0356V29.7907H5.78339V28.0356H6.67477ZM5.78339 28.0356C5.78339 27.7896 5.98312 27.5899 6.22908 27.5899C6.47504 27.5899 6.67477 27.7896 6.67477 28.0356H5.78339ZM7.26525 26.5537V27.4451L7.23414 27.446L7.2042 27.448L7.17658 27.4518L7.1475 27.457L7.11843 27.4637L7.09052 27.4718L7.06348 27.4809L7.03732 27.4913L7.01115 27.5032L6.98527 27.5163L6.96115 27.5303L6.93672 27.5463L6.91346 27.5626L6.89166 27.58L6.86927 27.5992L6.84805 27.6195L6.82799 27.6405L6.80996 27.6611L6.79281 27.6829L6.77624 27.7065L6.76025 27.7312L6.74571 27.7565L6.73263 27.7821L6.721 27.8076L6.71053 27.8338L6.70152 27.8608L6.69338 27.8888L6.68669 27.9178L6.68146 27.9469L6.67768 27.9745L6.67565 28.0045L6.67477 28.0356H5.78339L5.78542 27.9603L5.79095 27.8856L5.80054 27.8097L5.81391 27.737L5.83048 27.6661L5.85025 27.5957L5.8738 27.5268L5.90055 27.4588L5.93079 27.3925L5.96364 27.3291L5.99911 27.2677L6.0372 27.2081L6.07819 27.1503L6.12267 27.0936L6.16977 27.0392L6.2189 26.9881L6.26978 26.9398L6.3224 26.8939L6.3791 26.8491L6.43724 26.8078L6.49655 26.7697L6.55906 26.7337L6.62273 26.7008L6.68844 26.6709L6.75647 26.6441L6.82537 26.6206L6.89573 26.6008L6.96667 26.5842L7.03935 26.5709L7.11523 26.5613L7.18995 26.5557L7.26525 26.5537ZM7.26525 26.5537C7.51121 26.5537 7.71094 26.7534 7.71094 26.9994C7.71094 27.2454 7.51121 27.4451 7.26525 27.4451V26.5537Z" fill="#4D5C6B"/>
<path fill-rule="evenodd" clip-rule="evenodd" d="M21.1672 26.9995H15.3583C14.7446 26.9995 14.2425 27.5016 14.2425 28.1153V30.0874C16.2456 31.5073 15.7973 33.4314 17.1117 33.5366H18.4572C20.5177 33.5366 22.2031 31.851 22.2031 29.7908V28.0357C22.2031 27.4658 21.737 26.9995 21.1672 26.9995Z" fill="white"/>
<path d="M15.3583 27.4451V26.5537H21.1672V27.4451H15.3583ZM15.3583 26.5537V27.4451C15.1124 27.4451 14.9126 27.2454 14.9126 26.9994C14.9126 26.7534 15.1124 26.5537 15.3583 26.5537ZM13.7968 28.1152L13.7988 28.0353L13.805 27.9565L13.8148 27.8789L13.8285 27.8012L13.8462 27.7257L13.8675 27.6509L13.8925 27.5783L13.9204 27.5079L13.9515 27.439L13.9864 27.3707L14.0245 27.3055L14.0643 27.2433L14.1079 27.182L14.1547 27.1224L14.2033 27.0663L14.255 27.0119L14.3094 26.9602L14.3655 26.9116L14.4251 26.8648L14.4864 26.8212L14.5486 26.7814L14.6138 26.7433L14.6821 26.7084L14.751 26.6773L14.8214 26.6494L14.894 26.6244L14.9688 26.6031L15.0443 26.5854L15.122 26.5717L15.1996 26.5618L15.2784 26.5557L15.3583 26.5537V27.4451L15.3237 27.446L15.2897 27.4486L15.2563 27.4527L15.224 27.4588L15.192 27.466L15.1609 27.475L15.1301 27.4855L15.0993 27.4977L15.0694 27.5114L15.0411 27.5259L15.0132 27.5419L14.9847 27.5602L14.9583 27.5788L14.9336 27.5983L14.9089 27.6201L14.8853 27.6422L14.8632 27.6658L14.8414 27.6905L14.8219 27.7152L14.8033 27.7416L14.785 27.7701L14.769 27.798L14.7545 27.8262L14.7408 27.8562L14.7286 27.887L14.7181 27.9178L14.7091 27.9489L14.7019 27.9809L14.6958 28.0132L14.6917 28.0466L14.6891 28.0806L14.6882 28.1152H13.7968ZM13.7968 28.1152H14.6882C14.6882 28.3612 14.4885 28.5609 14.2425 28.5609C13.9965 28.5609 13.7968 28.3612 13.7968 28.1152ZM14.6882 30.0873L13.9846 30.451L13.7968 30.0873V28.1152H14.6882V30.0873ZM13.7968 30.0873H14.6882C14.6882 30.3332 14.4885 30.533 14.2425 30.533C13.9965 30.533 13.7968 30.3332 13.7968 30.0873ZM17.1118 33.9822L17.0763 33.9808L16.9152 33.9601L16.7608 33.9241L16.6137 33.8726L16.4768 33.806L16.3506 33.7264L16.2364 33.6357L16.1343 33.5368L16.0433 33.4319L15.9622 33.3231L15.8881 33.2103L15.8206 33.0946L15.7578 32.9769L15.6985 32.8571L15.6415 32.7361L15.5854 32.6129L15.5293 32.4884L15.4723 32.3626L15.4136 32.2358L15.3525 32.1079L15.288 31.9794L15.2197 31.8503L15.1464 31.7206L15.0676 31.5912L14.983 31.4616L14.8914 31.3325L14.792 31.204L14.6838 31.0758L14.5664 30.9484L14.4388 30.8222L14.3001 30.6967L14.1492 30.5734L13.9846 30.451L14.5004 29.7236L14.6975 29.8704L14.881 30.021L15.0505 30.1739L15.2077 30.3292L15.3519 30.4862L15.4851 30.6434L15.6072 30.8016L15.7191 30.9592L15.8218 31.1156L15.9151 31.27L16.0011 31.4217L16.0799 31.5706L16.1526 31.7154L16.2201 31.8561L16.2829 31.9916L16.3416 32.1215L16.3971 32.2448L16.4503 32.3611L16.5015 32.4698L16.5509 32.5698L16.5992 32.6608L16.6463 32.7417L16.6925 32.8126L16.7382 32.8737L16.7821 32.9245L16.8248 32.9658L16.867 32.9995L16.91 33.0269L16.9562 33.0493L17.0091 33.0682L17.0716 33.0827L17.1472 33.0923L17.1118 33.0908V33.9822ZM17.0763 33.9808L17.1472 33.0923C17.3923 33.1118 17.5755 33.3269 17.556 33.572C17.5365 33.8171 17.3214 34.0003 17.0763 33.9808ZM18.4573 33.0908V33.9822H17.1118V33.0908H18.4573ZM18.4573 33.9822V33.0908C18.7032 33.0908 18.903 33.2906 18.903 33.5365C18.903 33.7825 18.7032 33.9822 18.4573 33.9822ZM22.6488 29.7907L22.6432 30.0053L22.627 30.2172L22.6002 30.4269L22.5633 30.633L22.5162 30.8356L22.4592 31.0345L22.3932 31.229L22.3176 31.4194L22.2336 31.6049L22.1406 31.7857L22.0397 31.9611L21.9301 32.1311L21.8132 32.2954L21.6888 32.4536L21.5568 32.6056L21.4184 32.751L21.2724 32.8902L21.1204 33.0219L20.9619 33.1467L20.7977 33.2635L20.6279 33.3728L20.4523 33.474L20.2714 33.5668L20.0862 33.6511L19.8955 33.7267L19.7013 33.7927L19.5022 33.8497L19.2995 33.8967L19.0934 33.9337L18.8841 33.9604L18.6718 33.9767L18.4573 33.9822V33.0908L18.6265 33.0865L18.7939 33.0737L18.9579 33.0528L19.1198 33.0234L19.2789 32.9868L19.435 32.942L19.5879 32.8899L19.7374 32.8306L19.8836 32.7643L20.0261 32.6914L20.1639 32.6117L20.2982 32.5257L20.4276 32.4332L20.5529 32.3346L20.6729 32.2308L20.7875 32.1212L20.8974 32.0061L21.0015 31.886L21.0997 31.761L21.1922 31.6316L21.278 31.4976L21.3579 31.3589L21.4312 31.2171L21.4972 31.0711L21.5565 30.9214L21.6085 30.7682L21.6533 30.6123L21.6899 30.4533L21.7193 30.2914L21.7402 30.1271L21.753 29.9599L21.7574 29.7907H22.6488ZM22.6488 29.7907H21.7574C21.7574 29.5448 21.9571 29.345 22.2031 29.345C22.449 29.345 22.6488 29.5448 22.6488 29.7907ZM21.7574 28.0356H22.6488V29.7907H21.7574V28.0356ZM22.6488 28.0356H21.7574C21.7574 27.7896 21.9571 27.5899 22.2031 27.5899C22.449 27.5899 22.6488 27.7896 22.6488 28.0356ZM21.1672 26.5537L21.2425 26.5557L21.3172 26.5613L21.3931 26.5709L21.4658 26.5842L21.5367 26.6008L21.6071 26.6206L21.676 26.6441L21.7443 26.6712L21.81 26.7011L21.8731 26.7337L21.935 26.7694L21.9952 26.8078L22.0536 26.8497L22.1092 26.8933L22.1621 26.9392L22.2141 26.9886L22.263 27.0401L22.3095 27.0936L22.354 27.1503L22.3949 27.2081L22.433 27.2677L22.4685 27.3291L22.5014 27.3925L22.5316 27.4588L22.5583 27.5268L22.5819 27.5957L22.6017 27.6661L22.6182 27.737L22.6316 27.8097L22.6412 27.8856L22.6467 27.9603L22.6488 28.0356H21.7574L21.7565 28.0045L21.7545 27.9745L21.7507 27.9469L21.7455 27.9178L21.7388 27.8888L21.7306 27.8608L21.7216 27.8338L21.7111 27.8076L21.6995 27.7821L21.6864 27.7565L21.6719 27.7312L21.6559 27.7065L21.6393 27.6829L21.6222 27.6611L21.6036 27.6396L21.5838 27.619L21.5637 27.5998L21.5411 27.5806L21.5181 27.562L21.4957 27.5463L21.4716 27.5306L21.4469 27.5163L21.4204 27.503L21.3948 27.491L21.369 27.4809L21.3419 27.4718L21.314 27.4637L21.2849 27.457L21.2559 27.4518L21.2282 27.448L21.1983 27.446L21.1672 27.4451V26.5537ZM21.1672 26.5537V27.4451C20.9212 27.4451 20.7215 27.2454 20.7215 26.9994C20.7215 26.7534 20.9212 26.5537 21.1672 26.5537Z" fill="#4D5C6B"/>
</svg>
