<svg width="40" height="40" viewBox="0 0 40 40" fill="none" xmlns="http://www.w3.org/2000/svg">
<path d="M33.4322 5.01782H5.53457C5.38373 5.01998 5.23404 5.04439 5.09034 5.09028C5.04447 5.23396 5.02007 5.38363 5.01794 5.53445V33.4321C5.01794 33.8432 5.18123 34.2374 5.47189 34.528C5.76255 34.8187 6.15676 34.982 6.56781 34.982H34.4655C34.6163 34.9798 34.766 34.9554 34.9096 34.9095C34.9555 34.7658 34.9799 34.6162 34.9821 34.4654V6.56769C34.9821 6.15664 34.8188 5.76243 34.5282 5.47177C34.2375 5.18111 33.8433 5.01782 33.4322 5.01782Z" fill="white"/>
<path d="M20 33.2795C27.3341 33.2795 33.2796 27.334 33.2796 19.9999C33.2796 12.6658 27.3341 6.72034 20 6.72034C12.6659 6.72034 6.72046 12.6658 6.72046 19.9999C6.72046 27.334 12.6659 33.2795 20 33.2795Z" fill="white"/>
<path d="M20 33.2795C27.3341 33.2795 33.2796 27.334 33.2796 19.9999C33.2796 12.6658 27.3341 6.72034 20 6.72034C12.6659 6.72034 6.72046 12.6658 6.72046 19.9999C6.72046 27.334 12.6659 33.2795 20 33.2795Z" fill="white"/>
<path d="M20 31.2365C26.2058 31.2365 31.2366 26.2058 31.2366 20C31.2366 13.7942 26.2058 8.76343 20 8.76343C13.7943 8.76343 8.76349 13.7942 8.76349 20C8.76349 26.2058 13.7943 31.2365 20 31.2365Z" fill="white"/>
<path d="M7.74196 8.76335C8.30613 8.76335 8.76347 8.306 8.76347 7.74184C8.76347 7.17768 8.30613 6.72034 7.74196 6.72034C7.1778 6.72034 6.72046 7.17768 6.72046 7.74184C6.72046 8.306 7.1778 8.76335 7.74196 8.76335Z" fill="white"/>
<path d="M32.2581 8.76335C32.8223 8.76335 33.2796 8.306 33.2796 7.74184C33.2796 7.17768 32.8223 6.72034 32.2581 6.72034C31.694 6.72034 31.2366 7.17768 31.2366 7.74184C31.2366 8.306 31.694 8.76335 32.2581 8.76335Z" fill="white"/>
<path d="M7.74203 33.2796C8.30619 33.2796 8.76353 32.8222 8.76353 32.2581C8.76353 31.6939 8.30619 31.2366 7.74203 31.2366C7.17786 31.2366 6.72052 31.6939 6.72052 32.2581C6.72052 32.8222 7.17786 33.2796 7.74203 33.2796Z" fill="white"/>
<path d="M32.2581 33.2796C32.8223 33.2796 33.2796 32.8222 33.2796 32.2581C33.2796 31.6939 32.8223 31.2366 32.2581 31.2366C31.694 31.2366 31.2366 31.6939 31.2366 32.2581C31.2366 32.8222 31.694 33.2796 32.2581 33.2796Z" fill="white"/>
<path d="M17.4462 20.0001C17.4484 19.3939 17.668 18.8087 18.065 18.3508V18.3335L13.4955 16.8104C13.1884 16.708 12.8613 16.6801 12.5413 16.7289C12.2213 16.7778 11.9175 16.9019 11.6548 17.0912C11.3922 17.2805 11.1784 17.5295 11.0308 17.8177C10.8833 18.1059 10.8064 18.425 10.8065 18.7487V21.2514C10.8065 21.5751 10.8834 21.8942 11.0309 22.1824C11.1784 22.4705 11.3923 22.7195 11.6549 22.9088C11.9175 23.0981 12.2213 23.2222 12.5413 23.271C12.8614 23.3199 13.1884 23.2919 13.4955 23.1896L18.065 21.6664V21.649C17.668 21.1911 17.4485 20.606 17.4462 20.0001Z" fill="white"/>
<path d="M17.4462 20.0001C17.4484 19.3939 17.668 18.8087 18.065 18.3508V18.3335L13.4955 16.8104C13.1884 16.708 12.8613 16.6801 12.5413 16.7289C12.2213 16.7778 11.9175 16.9019 11.6548 17.0912C11.3922 17.2805 11.1784 17.5295 11.0308 17.8177C10.8833 18.1059 10.8064 18.425 10.8065 18.7487V21.2514C10.8065 21.5751 10.8834 21.8942 11.0309 22.1824C11.1784 22.4705 11.3923 22.7195 11.6549 22.9088C11.9175 23.0981 12.2213 23.2222 12.5413 23.271C12.8614 23.3199 13.1884 23.2919 13.4955 23.1896L18.065 21.6664V21.649C17.668 21.1911 17.4485 20.606 17.4462 20.0001Z" fill="white"/>
<path d="M17.4462 19.9999C17.4484 19.3938 17.668 18.8086 18.065 18.3507V18.3334L13.4955 16.8103C13.1884 16.7079 12.8613 16.68 12.5413 16.7288C12.2213 16.7777 11.9175 16.9018 11.6548 17.0911C11.3922 17.2804 11.1784 17.5294 11.0308 17.8176C10.8833 18.1058 10.8064 18.4249 10.8065 18.7486V21.2513C10.8065 21.575 10.8834 21.8941 11.0309 22.1822C11.1784 22.4704 11.3923 22.7194 11.6549 22.9087C11.9175 23.0979 12.2213 23.2221 12.5413 23.2709C12.8614 23.3198 13.1884 23.2918 13.4955 23.1895L18.065 21.6663V21.6489C17.668 21.191 17.4485 20.6059 17.4462 19.9999ZM23.1897 26.5044L21.6663 21.9347H21.6494C21.1925 22.3338 20.6065 22.5537 19.9999 22.5537C19.3933 22.5537 18.8073 22.3338 18.3505 21.9347H18.3337L16.8103 26.5044C16.7079 26.8115 16.68 27.1386 16.7288 27.4586C16.7776 27.7786 16.9018 28.0825 17.0911 28.3451C17.2804 28.6077 17.5294 28.8216 17.8176 28.9691C18.1058 29.1166 18.4249 29.1935 18.7487 29.1935H21.2514C21.5751 29.1935 21.8942 29.1166 22.1824 28.9691C22.4706 28.8216 22.7195 28.6077 22.9088 28.3451C23.0981 28.0825 23.2223 27.7786 23.2711 27.4586C23.32 27.1386 23.292 26.8115 23.1897 26.5044ZM26.5044 16.8103L21.9348 18.3336V18.3507C22.3339 18.8075 22.5538 19.3935 22.5538 20.0001C22.5538 20.6066 22.3339 21.1926 21.9348 21.6494V21.6665L26.5044 23.1896C26.8116 23.292 27.1386 23.3199 27.4586 23.2711C27.7787 23.2223 28.0825 23.0981 28.3452 22.9088C28.6078 22.7195 28.8217 22.4705 28.9692 22.1823C29.1167 21.8941 29.1936 21.575 29.1936 21.2513V18.7486C29.1936 18.4249 29.1167 18.1058 28.9692 17.8176C28.8217 17.5294 28.6078 17.2804 28.3452 17.0911C28.0825 16.9018 27.7787 16.7776 27.4586 16.7288C27.1386 16.68 26.8116 16.7079 26.5044 16.8103ZM21.2514 10.8064H18.7487C18.4249 10.8064 18.1059 10.8833 17.8177 11.0308C17.5295 11.1783 17.2806 11.3922 17.0913 11.6548C16.902 11.9174 16.7778 12.2213 16.729 12.5413C16.6802 12.8613 16.7081 13.1883 16.8105 13.4954L18.3337 18.065H18.3509C18.8077 17.666 19.3937 17.4462 20.0002 17.4462C20.6067 17.4462 21.1927 17.666 21.6495 18.065H21.6667L23.1898 13.4954C23.2922 13.1883 23.3201 12.8612 23.2713 12.5412C23.2224 12.2211 23.0982 11.9173 22.9089 11.6547C22.7196 11.3921 22.4706 11.1782 22.1824 11.0307C21.8942 10.8832 21.5751 10.8063 21.2514 10.8064Z" fill="white"/>
<path fill-rule="evenodd" clip-rule="evenodd" d="M33.7903 4.16663H6.2097C5.66803 4.1672 5.14872 4.38263 4.76571 4.76564C4.38269 5.14866 4.16726 5.66797 4.16669 6.20964V33.7903C4.16726 34.3319 4.38269 34.8513 4.76571 35.2343C5.14872 35.6173 5.66803 35.8327 6.2097 35.8333H10.2957H12.3387H33.7903C34.332 35.8327 34.8513 35.6173 35.2343 35.2343C35.6173 34.8512 35.8328 34.3319 35.8334 33.7903V6.20964C35.8328 5.66798 35.6173 5.14867 35.2343 4.76566C34.8513 4.38265 34.332 4.16722 33.7903 4.16663ZM6.2097 34.8118H10.2957H12.3387H33.7903C34.0612 34.8115 34.3208 34.7037 34.5123 34.5122C34.7038 34.3207 34.8115 34.0611 34.8118 33.7903V6.20964C34.8115 5.93882 34.7038 5.67918 34.5123 5.48768C34.3208 5.29618 34.0612 5.18845 33.7903 5.18813H6.2097C5.93887 5.18844 5.67922 5.29616 5.48772 5.48766C5.29622 5.67916 5.1885 5.93881 5.18819 6.20964V33.7903C5.1885 34.0611 5.29622 34.3208 5.48772 34.5123C5.67922 34.7038 5.93887 34.8115 6.2097 34.8118Z" fill="#4D5C6B"/>
<path d="M20 8.25269C13.5225 8.25269 8.25269 13.5223 8.25269 20C8.25269 26.4777 13.5225 31.7473 20 31.7473C26.4775 31.7473 31.7473 26.4777 31.7473 20C31.7473 13.5223 26.4774 8.25269 20 8.25269ZM27.2061 12.0788L22.6974 16.5876L23.0383 15.5648C23.0595 15.5012 23.068 15.434 23.0632 15.3671C23.0585 15.3002 23.0406 15.2349 23.0106 15.1749C22.9806 15.1149 22.9391 15.0614 22.8884 15.0174C22.8378 14.9734 22.779 14.9399 22.7153 14.9187C22.6517 14.8975 22.5845 14.889 22.5176 14.8937C22.4507 14.8985 22.3854 14.9163 22.3254 14.9463C22.2654 14.9763 22.2119 15.0178 22.1679 15.0685C22.124 15.1192 22.0904 15.178 22.0692 15.2416L21.3918 17.2733C20.9614 17.0513 20.4841 16.9355 19.9998 16.9355C19.5156 16.9355 19.0383 17.0513 18.6079 17.2733L17.2947 13.3341C17.2179 13.1037 17.1969 12.8584 17.2335 12.6184C17.2702 12.3783 17.3633 12.1504 17.5053 11.9534C17.6473 11.7564 17.8341 11.596 18.0503 11.4854C18.2665 11.3748 18.5058 11.3171 18.7487 11.3172H21.2513C21.485 11.3173 21.7155 11.3707 21.9253 11.4735C22.1351 11.5763 22.3186 11.7257 22.4619 11.9102C22.6051 12.0948 22.7043 12.3096 22.7518 12.5384C22.7993 12.7671 22.7939 13.0037 22.736 13.23C22.7175 13.2955 22.7123 13.3639 22.7206 13.4314C22.7289 13.4989 22.7507 13.564 22.7845 13.623C22.8183 13.682 22.8636 13.7336 22.9177 13.7749C22.9717 13.8161 23.0335 13.8461 23.0993 13.8632C23.1651 13.8803 23.2337 13.884 23.3009 13.8743C23.3682 13.8645 23.4329 13.8414 23.4911 13.8063C23.5494 13.7712 23.6 13.7248 23.6401 13.6699C23.6802 13.615 23.7089 13.5526 23.7245 13.4864C23.8216 13.1091 23.8311 12.7146 23.7523 12.333C23.6735 11.9515 23.5084 11.593 23.2697 11.2851C23.031 10.9772 22.7251 10.7279 22.3752 10.5564C22.0254 10.3849 21.641 10.2958 21.2513 10.2957H18.7487C18.344 10.2957 17.9451 10.3918 17.5849 10.5762C17.2247 10.7606 16.9135 11.0279 16.6769 11.3562C16.4403 11.6844 16.2851 12.0642 16.224 12.4643C16.163 12.8643 16.1979 13.2731 16.3258 13.657L17.3026 16.5874L12.7939 12.0786C14.7602 10.2748 17.3316 9.274 20 9.274C22.6684 9.274 25.2398 10.2748 27.2062 12.0786L27.2061 12.0788ZM22.043 20C22.043 20.4041 21.9232 20.7991 21.6987 21.135C21.4742 21.471 21.1551 21.7329 20.7818 21.8875C20.4085 22.0421 19.9977 22.0826 19.6014 22.0038C19.2051 21.9249 18.8411 21.7303 18.5554 21.4446C18.2697 21.1589 18.0751 20.7949 17.9962 20.3986C17.9174 20.0023 17.9579 19.5915 18.1125 19.2182C18.2671 18.8449 18.529 18.5258 18.865 18.3013C19.2009 18.0768 19.5959 17.957 20 17.957C20.5417 17.9576 21.061 18.173 21.444 18.556C21.827 18.939 22.0424 19.4583 22.043 20ZM17.2733 21.3921L13.3342 22.7054C13.1038 22.7822 12.8585 22.8032 12.6184 22.7666C12.3783 22.7299 12.1504 22.6368 11.9534 22.4948C11.7564 22.3527 11.596 22.1659 11.4854 21.9498C11.3748 21.7336 11.3171 21.4942 11.3172 21.2513V18.7487C11.3172 18.5058 11.3748 18.2665 11.4854 18.0503C11.596 17.8342 11.7564 17.6474 11.9534 17.5054C12.1504 17.3634 12.3783 17.2703 12.6183 17.2337C12.8583 17.197 13.1036 17.218 13.334 17.2947L17.2732 18.608C17.0511 19.0385 16.9353 19.5158 16.9353 20.0001C16.9353 20.4845 17.0511 20.9618 17.2732 21.3922L17.2733 21.3921ZM20 23.0645C20.4842 23.0643 20.9614 22.9485 21.3918 22.7267L22.705 26.6659C22.7818 26.8962 22.8028 27.1415 22.7662 27.3816C22.7295 27.6216 22.6364 27.8495 22.4945 28.0465C22.3525 28.2434 22.1657 28.4038 21.9496 28.5145C21.7335 28.6251 21.4941 28.6828 21.2513 28.6828H18.7487C18.5059 28.6828 18.2666 28.6251 18.0505 28.5145C17.8344 28.4039 17.6476 28.2435 17.5057 28.0466C17.3637 27.8496 17.2706 27.6218 17.2339 27.3818C17.1973 27.1418 17.2182 26.8965 17.2949 26.6662L18.6081 22.727C19.0386 22.9487 19.5158 23.0644 20 23.0645ZM22.7266 18.6078L26.6658 17.2946C26.8961 17.2179 27.1415 17.197 27.3815 17.2336C27.6215 17.2703 27.8494 17.3634 28.0464 17.5054C28.2434 17.6474 28.4038 17.8342 28.5144 18.0503C28.6251 18.2665 28.6828 18.5058 28.6828 18.7487V21.2513C28.6828 21.4941 28.625 21.7334 28.5144 21.9496C28.4038 22.1657 28.2434 22.3524 28.0464 22.4944C27.8495 22.6364 27.6216 22.7295 27.3816 22.7662C27.1416 22.8028 26.8963 22.782 26.666 22.7053L22.7268 21.3921C22.9488 20.9616 23.0647 20.4842 23.0647 19.9999C23.0647 19.5155 22.9488 19.0382 22.7268 18.6077L22.7266 18.6078ZM9.27419 20C9.27527 17.3318 10.2759 14.7608 12.0788 12.7938L16.588 17.303L13.6575 16.3262C13.2736 16.198 12.8648 16.1629 12.4647 16.2239C12.0646 16.2848 11.6847 16.4399 11.3563 16.6766C11.0279 16.9132 10.7605 17.2244 10.5761 17.5847C10.3917 17.945 10.2956 18.3439 10.2957 18.7487V21.2513C10.2963 21.9273 10.5644 22.5756 11.0414 23.0546C11.5184 23.5337 12.1655 23.8045 12.8415 23.808C13.1188 23.8076 13.3943 23.7623 13.6572 23.674L16.588 22.6972L12.0788 27.2063C10.2759 25.2393 9.27524 22.6683 9.27419 20ZM12.7938 27.9212L17.3026 23.4124L16.3258 26.3428C16.1978 26.7267 16.1629 27.1356 16.2239 27.5356C16.2849 27.9357 16.4401 28.3155 16.6767 28.6438C16.9134 28.9721 17.2246 29.2394 17.5849 29.4238C17.9451 29.6082 18.344 29.7043 18.7487 29.7043H21.2513C21.656 29.7043 22.0549 29.6082 22.4151 29.4238C22.7753 29.2394 23.0865 28.9721 23.3231 28.6438C23.5597 28.3156 23.7149 27.9358 23.776 27.5357C23.837 27.1357 23.8021 26.7269 23.6742 26.343L22.6973 23.4126L27.2061 27.9214C25.2397 29.7252 22.6683 30.726 19.9999 30.726C17.3315 30.726 14.7601 29.7252 12.7937 27.9214L12.7938 27.9212ZM27.9211 27.2061L23.412 22.697L26.3425 23.6738C26.6054 23.7622 26.8809 23.8075 27.1583 23.8079C27.8343 23.8044 28.4814 23.5336 28.9584 23.0546C29.4355 22.5756 29.7036 21.9274 29.7043 21.2513V18.7487C29.7044 18.344 29.6083 17.945 29.4239 17.5848C29.2395 17.2245 28.9721 16.9133 28.6438 16.6767C28.3155 16.4401 27.9356 16.2849 27.5355 16.2239C27.1354 16.163 26.7266 16.198 26.3427 16.3261L23.4123 17.3029L27.9214 12.7938C29.7253 14.7602 30.7261 17.3316 30.7261 20C30.7261 22.6684 29.7253 25.2398 27.9214 27.2062L27.9211 27.2061Z" fill="#AAABA6"/>
<path d="M20 33.7902C22.419 33.7854 24.7945 33.1467 26.8898 31.9379C28.9851 30.729 30.727 28.9923 31.9421 26.9006C31.9774 26.8425 32.0007 26.7779 32.0108 26.7107C32.0208 26.6434 32.0173 26.5749 32.0005 26.509C31.9837 26.4431 31.9539 26.3813 31.9129 26.3271C31.8718 26.2729 31.8204 26.2274 31.7616 26.1933C31.7027 26.1592 31.6377 26.1373 31.5702 26.1287C31.5028 26.1201 31.4343 26.125 31.3688 26.1432C31.3033 26.1614 31.2421 26.1925 31.1888 26.2347C31.1355 26.2769 31.0911 26.3293 31.0583 26.3888C29.9332 28.3257 28.3202 29.934 26.3799 31.0534C24.4397 32.1728 22.24 32.7642 20 32.7687C12.9592 32.7687 7.23122 27.0407 7.23122 19.9999C7.23122 12.9591 12.9592 7.2311 20 7.2311C27.0409 7.2311 32.7689 12.9591 32.7689 19.9999C32.7711 21.532 32.4966 23.0519 31.9585 24.4864C31.9339 24.5494 31.922 24.6167 31.9235 24.6844C31.9251 24.752 31.9401 24.8187 31.9676 24.8805C31.9952 24.9423 32.0347 24.998 32.084 25.0444C32.1333 25.0908 32.1912 25.127 32.2546 25.1507C32.3179 25.1745 32.3854 25.1855 32.453 25.183C32.5206 25.1805 32.5871 25.1646 32.6485 25.1362C32.7099 25.1078 32.7651 25.0675 32.8108 25.0176C32.8565 24.9677 32.8918 24.9092 32.9147 24.8456C33.496 23.2962 33.7926 21.6547 33.7904 19.9999C33.7904 12.3961 27.6039 6.2096 20 6.2096C12.3962 6.2096 6.20972 12.3961 6.20972 19.9999C6.20972 27.6038 12.3962 33.7902 20 33.7902ZM9.27423 7.74185C9.27423 7.4388 9.18437 7.14255 9.016 6.89058C8.84763 6.6386 8.60833 6.4422 8.32835 6.32623C8.04836 6.21026 7.74028 6.17991 7.44305 6.23904C7.14582 6.29816 6.8728 6.44409 6.65851 6.65838C6.44422 6.87267 6.29828 7.1457 6.23916 7.44292C6.18004 7.74015 6.21038 8.04824 6.32635 8.32822C6.44233 8.60821 6.63872 8.84751 6.8907 9.01588C7.14268 9.18425 7.43892 9.27411 7.74198 9.27411C8.14822 9.27366 8.53769 9.11207 8.82494 8.82482C9.1122 8.53756 9.27378 8.14809 9.27423 7.74185ZM7.23122 7.74185C7.23122 7.64084 7.26118 7.54209 7.3173 7.45809C7.37342 7.3741 7.45319 7.30864 7.54652 7.26998C7.63985 7.23132 7.74254 7.22121 7.84162 7.24091C7.94069 7.26062 8.0317 7.30927 8.10313 7.3807C8.17456 7.45213 8.22321 7.54313 8.24291 7.64221C8.26262 7.74129 8.25251 7.84398 8.21385 7.93731C8.17519 8.03064 8.10973 8.11041 8.02573 8.16653C7.94174 8.22265 7.84299 8.25261 7.74198 8.25261C7.60655 8.25249 7.47671 8.19864 7.38095 8.10288C7.28519 8.00712 7.23134 7.87728 7.23122 7.74185ZM33.7904 7.74185C33.7904 7.4388 33.7005 7.14255 33.5321 6.89058C33.3638 6.6386 33.1245 6.4422 32.8445 6.32623C32.5645 6.21026 32.2564 6.17991 31.9592 6.23904C31.6619 6.29816 31.3889 6.44409 31.1746 6.65838C30.9603 6.87267 30.8144 7.1457 30.7553 7.44292C30.6962 7.74015 30.7265 8.04824 30.8425 8.32822C30.9585 8.60821 31.1548 8.84751 31.4068 9.01588C31.6588 9.18425 31.9551 9.27411 32.2581 9.27411C32.6643 9.27366 33.0538 9.11207 33.3411 8.82482C33.6283 8.53756 33.7899 8.14809 33.7904 7.74185ZM31.7474 7.74185C31.7474 7.64084 31.7773 7.54209 31.8334 7.45809C31.8895 7.3741 31.9693 7.30864 32.0626 7.26998C32.156 7.23132 32.2587 7.22121 32.3577 7.24091C32.4568 7.26062 32.5478 7.30927 32.6193 7.3807C32.6907 7.45213 32.7393 7.54313 32.759 7.64221C32.7787 7.74129 32.7686 7.84398 32.73 7.93731C32.6913 8.03064 32.6259 8.11041 32.5419 8.16653C32.4579 8.22265 32.3591 8.25261 32.2581 8.25261C32.1227 8.25249 31.9928 8.19864 31.8971 8.10288C31.8013 8.00712 31.7475 7.87728 31.7474 7.74185ZM6.20972 32.258C6.20972 32.561 6.29958 32.8573 6.46795 33.1093C6.63632 33.3612 6.87562 33.5576 7.15561 33.6736C7.43559 33.7896 7.74368 33.8199 8.0409 33.7608C8.33813 33.7017 8.61116 33.5557 8.82545 33.3415C9.03974 33.1272 9.18567 32.8541 9.24479 32.5569C9.30391 32.2597 9.27357 31.9516 9.1576 31.6716C9.04162 31.3916 8.84523 31.1523 8.59325 30.984C8.34127 30.8156 8.04503 30.7257 7.74198 30.7257C7.33573 30.7262 6.94625 30.8877 6.65899 31.175C6.37173 31.4623 6.21016 31.8517 6.20972 32.258ZM8.25273 32.258C8.25273 32.359 8.22277 32.4577 8.16665 32.5417C8.11053 32.6257 8.03076 32.6912 7.93743 32.7299C7.8441 32.7685 7.74141 32.7786 7.64233 32.7589C7.54326 32.7392 7.45225 32.6906 7.38082 32.6191C7.30939 32.5477 7.26074 32.4567 7.24104 32.3576C7.22133 32.2585 7.23144 32.1559 7.2701 32.0625C7.30876 31.9692 7.37422 31.8894 7.45822 31.8333C7.54221 31.7772 7.64096 31.7472 7.74198 31.7472C7.87739 31.7474 8.00723 31.8012 8.10298 31.897C8.19874 31.9927 8.25259 32.1226 8.25273 32.258ZM30.7258 32.258C30.7258 32.561 30.8157 32.8573 30.9841 33.1093C31.1524 33.3612 31.3917 33.5576 31.6717 33.6736C31.9517 33.7896 32.2598 33.8199 32.557 33.7608C32.8543 33.7017 33.1273 33.5557 33.3416 33.3415C33.5559 33.1272 33.7018 32.8541 33.7609 32.5569C33.82 32.2597 33.7897 31.9516 33.6737 31.6716C33.5578 31.3916 33.3614 31.1523 33.1094 30.984C32.8574 30.8156 32.5612 30.7257 32.2581 30.7257C31.8519 30.7262 31.4624 30.8877 31.1751 31.175C30.8879 31.4623 30.7263 31.8517 30.7258 32.258ZM32.7689 32.258C32.7689 32.359 32.7389 32.4577 32.6828 32.5417C32.6267 32.6257 32.5469 32.6912 32.4536 32.7299C32.3602 32.7685 32.2575 32.7786 32.1585 32.7589C32.0594 32.7392 31.9684 32.6906 31.8969 32.6191C31.8255 32.5477 31.7769 32.4567 31.7572 32.3576C31.7375 32.2585 31.7476 32.1559 31.7862 32.0625C31.8249 31.9692 31.8904 31.8894 31.9743 31.8333C32.0583 31.7772 32.1571 31.7472 32.2581 31.7472C32.3935 31.7474 32.5234 31.8012 32.6191 31.897C32.7149 31.9927 32.7687 32.1226 32.7689 32.258Z" fill="#E94D11"/>
<path d="M17.4462 19.9999C17.4484 19.3938 17.668 18.8086 18.065 18.3507V18.3334L13.4955 16.8103C13.1884 16.7079 12.8613 16.68 12.5413 16.7288C12.2213 16.7777 11.9175 16.9018 11.6548 17.0911C11.3922 17.2804 11.1784 17.5294 11.0308 17.8176C10.8833 18.1058 10.8064 18.4249 10.8065 18.7486V21.2513C10.8065 21.575 10.8834 21.8941 11.0309 22.1822C11.1784 22.4704 11.3923 22.7194 11.6549 22.9087C11.9175 23.0979 12.2213 23.2221 12.5413 23.2709C12.8614 23.3198 13.1884 23.2918 13.4955 23.1895L18.065 21.6663V21.6489C17.668 21.191 17.4485 20.6059 17.4462 19.9999ZM23.1897 26.5044L21.6663 21.9347H21.6494C21.1925 22.3338 20.6065 22.5537 19.9999 22.5537C19.3933 22.5537 18.8073 22.3338 18.3505 21.9347H18.3337L16.8103 26.5044C16.7079 26.8115 16.68 27.1386 16.7288 27.4586C16.7776 27.7786 16.9018 28.0825 17.0911 28.3451C17.2804 28.6077 17.5294 28.8216 17.8176 28.9691C18.1058 29.1166 18.4249 29.1935 18.7487 29.1935H21.2514C21.5751 29.1935 21.8942 29.1166 22.1824 28.9691C22.4706 28.8216 22.7195 28.6077 22.9088 28.3451C23.0981 28.0825 23.2223 27.7786 23.2711 27.4586C23.32 27.1386 23.292 26.8115 23.1897 26.5044ZM26.5044 16.8103L21.9348 18.3336V18.3507C22.3339 18.8075 22.5538 19.3935 22.5538 20.0001C22.5538 20.6066 22.3339 21.1926 21.9348 21.6494V21.6665L26.5044 23.1896C26.8116 23.292 27.1386 23.3199 27.4586 23.2711C27.7787 23.2223 28.0825 23.0981 28.3452 22.9088C28.6078 22.7195 28.8217 22.4705 28.9692 22.1823C29.1167 21.8941 29.1936 21.575 29.1936 21.2513V18.7486C29.1936 18.4249 29.1167 18.1058 28.9692 17.8176C28.8217 17.5294 28.6078 17.2804 28.3452 17.0911C28.0825 16.9018 27.7787 16.7776 27.4586 16.7288C27.1386 16.68 26.8116 16.7079 26.5044 16.8103ZM21.2514 10.8064H18.7487C18.4249 10.8064 18.1059 10.8833 17.8177 11.0308C17.5295 11.1783 17.2806 11.3922 17.0913 11.6548C16.902 11.9174 16.7778 12.2213 16.729 12.5413C16.6802 12.8613 16.7081 13.1883 16.8105 13.4954L18.3337 18.065H18.3509C18.8077 17.666 19.3937 17.4462 20.0002 17.4462C20.6067 17.4462 21.1927 17.666 21.6495 18.065H21.6667L23.1898 13.4954C23.2922 13.1883 23.3201 12.8612 23.2713 12.5412C23.2224 12.2211 23.0982 11.9173 22.9089 11.6547C22.7196 11.3921 22.4706 11.1782 22.1824 11.0307C21.8942 10.8832 21.5751 10.8063 21.2514 10.8064Z" stroke="#4D5C6B" stroke-width="1.22581"/>
<path d="M20 22.5538C21.4104 22.5538 22.5538 21.4105 22.5538 20.0001C22.5538 18.5896 21.4104 17.4463 20 17.4463C18.5896 17.4463 17.4462 18.5896 17.4462 20.0001C17.4462 21.4105 18.5896 22.5538 20 22.5538Z" stroke="#FFBD16" stroke-width="1.22581"/>
</svg>
