<svg width="40" height="40" viewBox="0 0 40 40" fill="none" xmlns="http://www.w3.org/2000/svg">
<path fill-rule="evenodd" clip-rule="evenodd" d="M16.4855 10.6108V15.1616H8.98431V10.6108L9.0131 10.5762H16.4567L16.4855 10.6108ZM9.0131 10.5762L9.03636 10.5483L11.1971 7.94449H14.2757L16.4567 10.5762H9.0131ZM11.1971 7.94449V7.91658V4.41907H14.2757V7.94449H11.1971Z" fill="white"/>
<path d="M9.0131 10.5762L8.98431 10.6108V15.1616H16.4855V10.6108L16.4567 10.5762M9.0131 10.5762H16.4567M9.0131 10.5762L9.03636 10.5483L11.1971 7.94449M16.4567 10.5762L14.2757 7.94449M11.1971 7.94449H14.2757M11.1971 7.94449V7.91658V4.41907H14.2757V7.94449" stroke="#FFBD16" stroke-width="1.46381" stroke-miterlimit="22.9256" stroke-linecap="round" stroke-linejoin="round"/>
<path fill-rule="evenodd" clip-rule="evenodd" d="M25.7539 4.20218H27.7899V6.23789H25.7539V4.20218ZM18.5542 15.1317L18.5045 11.9979L19.9692 10.4337L20.0181 8.30064L23.0789 8.2675L25.6609 6.33092L25.6164 4.19578C21.0589 3.89226 19.0278 4.72637 18.5106 8.31721L23.0789 8.2675L23.0972 10.4067L25.7292 13.0157L25.8534 15.1317H18.5542Z" fill="white"/>
<path d="M24.7777 7.42466L26.1927 10.3544M19.9692 10.4337L23.0972 10.4067M19.9692 10.4337L18.5045 11.9979L18.5542 15.1317H25.8534L25.7292 13.0157L23.0972 10.4067M19.9692 10.4337L20.0181 8.30064L23.0789 8.2675M23.0972 10.4067L23.0789 8.2675M23.0789 8.2675L25.6609 6.33092L25.6164 4.19578C21.0589 3.89226 19.0278 4.72637 18.5106 8.31721L23.0789 8.2675ZM25.7539 4.20218H27.7899V6.23789H25.7539V4.20218Z" stroke="#E94D11" stroke-width="1.46381" stroke-miterlimit="22.9256" stroke-linecap="round" stroke-linejoin="round"/>
<path fill-rule="evenodd" clip-rule="evenodd" d="M8.13333 17.1671L10.0446 33.3008L24.7853 33.306L26.7033 17.1639L8.13333 17.1671ZM11.143 17.1732L6.55465 17.1639C6.49302 17.1639 6.43604 17.1131 6.43604 17.0511V15.2442C6.43604 15.1823 6.49912 15.1317 6.56105 15.1317H28.2765C28.3384 15.1317 28.389 15.1823 28.389 15.2442V17.0511C28.389 17.1131 28.3384 17.1639 28.2765 17.1639H20.5284L11.143 17.1732Z" fill="white" stroke="#AAABA6" stroke-width="1.46381" stroke-miterlimit="22.9256" stroke-linejoin="round"/>
<path fill-rule="evenodd" clip-rule="evenodd" d="M11.6151 15.1317H20.0065V19.3095L23.3083 20.9731C24.6242 21.959 23.3045 23.5473 22.216 23.0585L20.0065 21.8418V27.0797C20.0065 28.0086 19.2465 28.7688 18.3176 28.7688H13.3039C12.375 28.7688 11.6151 28.0086 11.6151 27.0797V15.1317Z" fill="white"/>
<path d="M15.91 23.4342V28.3746M13.7749 23.4342V28.3746M11.6151 15.1317H20.0065V19.3095L23.3083 20.9731C24.6242 21.959 23.3045 23.5473 22.216 23.0585L20.0065 21.8418V27.0797C20.0065 28.0086 19.2465 28.7688 18.3176 28.7688H13.3039C12.375 28.7688 11.6151 28.0086 11.6151 27.0797V15.1317Z" stroke="#4D5C6B" stroke-width="1.46343" stroke-miterlimit="22.9256" stroke-linecap="round" stroke-linejoin="round"/>
<path d="M17.9491 23.3684L17.9462 28.7688" stroke="#4D5C6B" stroke-width="1.30167" stroke-miterlimit="22.9256" stroke-linecap="round"/>
<path fill-rule="evenodd" clip-rule="evenodd" d="M29.4707 27.2465C31.0892 26.9092 32.2716 27.175 32.897 28.112C33.3694 28.6467 33.5427 29.4316 33.4569 30.1596C33.4098 30.5614 33.2836 30.9458 33.0854 31.2615C32.2966 32.5893 31.0369 32.7495 29.1445 32.1439C28.0013 31.4854 26.8584 31.4348 25.7156 32.0343C24.5393 32.9466 22.2942 32.628 21.4447 31.4232C21.2284 31.0411 21.0976 30.5765 21.074 30.0948C21.0354 29.2979 21.2915 28.4548 21.9448 27.8637C22.8571 26.9749 24.3462 26.8328 25.5481 27.4666C26.9675 28.2036 28.2502 27.9663 29.4707 27.2465Z" fill="white" stroke="#E94D11" stroke-width="1.46343" stroke-miterlimit="22.9256"/>
<path fill-rule="evenodd" clip-rule="evenodd" d="M33.4572 30.1597C33.4349 32.2317 31.4582 33.147 28.8413 32.059C28.0179 31.6293 26.8093 31.4866 25.0082 32.2306C20.8095 33.4906 21.0627 28.3231 21.0944 31.3366L21.0793 33.4002C21.5823 35.1501 22.8414 35.9685 24.6294 35.4859C26.4084 34.6989 28.031 34.7335 29.5451 35.3367C31.1549 36.0363 32.6348 35.1902 33.4183 33.7976L33.4572 30.1597Z" fill="white" stroke="#E94D11" stroke-width="1.46343" stroke-miterlimit="22.9256"/>
</svg>
