<svg width="40" height="40" viewBox="0 0 40 40" fill="none" xmlns="http://www.w3.org/2000/svg">
<path fill-rule="evenodd" clip-rule="evenodd" d="M5.53479 10.9523C6.02119 8.97587 6.83146 7.56669 8.12406 7.0018C9.91323 6.7852 11.6541 6.81776 13.3497 6.98057C14.7065 7.11111 14.6888 7.41522 15.4276 8.54937L16.3355 9.94401L14.7135 10.7159L19.4461 10.9523V31.4155L7.13062 30.4543C6.16597 30.5171 5.6255 30.0255 5.53479 28.9457V10.9523Z" fill="white" stroke="#4D5C6B" stroke-width="0.868913" stroke-miterlimit="22.9256" stroke-linecap="round" stroke-linejoin="round"/>
<path fill-rule="evenodd" clip-rule="evenodd" d="M10.3231 11.4309C11.8262 11.4949 12.3466 11.4821 13.5567 11.5832C14.2079 10.948 14.014 11.0852 14.8507 10.6506C14.3143 9.67197 13.7829 8.61428 12.6237 8.13632C11.4035 7.98979 10.3249 7.9738 9.54193 8.23052C8.83283 9.21552 9.9225 10.4619 10.3231 11.4309Z" fill="white" stroke="#4D5C6B" stroke-width="0.868913" stroke-miterlimit="22.9256" stroke-linecap="round" stroke-linejoin="round"/>
<path d="M9.54198 8.23047C8.94889 8.4648 8.69828 9.01894 8.60931 9.72367L8.6977 12.3571C10.0191 12.604 11.316 12.6566 12.6037 12.6345C13.307 11.9949 13.8597 11.0276 14.79 10.7159" stroke="#AAABA6" stroke-width="0.868913" stroke-miterlimit="22.9256" stroke-linecap="round" stroke-linejoin="round"/>
<path fill-rule="evenodd" clip-rule="evenodd" d="M16.3355 9.94398L21.4617 9.85938C22.4191 10.2097 22.8546 10.8955 22.8712 11.8509L23.2765 28.7506L19.446 31.4155V12.7083C19.3373 11.5927 18.8239 10.9831 17.9089 10.8752L14.7135 10.7159L16.3355 9.94398Z" fill="white" stroke="#AAABA6" stroke-width="0.868913" stroke-miterlimit="22.9256" stroke-linecap="round" stroke-linejoin="round"/>
<path fill-rule="evenodd" clip-rule="evenodd" d="M16.4161 8.82886H21.6327V10.0386C19.902 10.5741 18.1637 10.6285 16.4161 10.0386V8.82886Z" fill="white" stroke="#4D5C6B" stroke-width="0.868913" stroke-miterlimit="22.9256" stroke-linecap="round" stroke-linejoin="round"/>
<path fill-rule="evenodd" clip-rule="evenodd" d="M7.37191 13.8896L16.9193 14.0803C17.4955 14.0917 17.9671 14.3615 17.9671 14.9374V28.6684C17.9671 29.2444 17.4923 29.7779 16.9193 29.7159L7.37191 28.6873C6.79974 28.6257 6.47819 28.1588 6.47645 27.5825L6.43836 14.9374C6.43662 14.3612 6.79567 13.8783 7.37191 13.8896Z" fill="white" stroke="#E94D11" stroke-width="0.868913" stroke-miterlimit="22.9256" stroke-linecap="round" stroke-linejoin="round"/>
<path fill-rule="evenodd" clip-rule="evenodd" d="M8.31307 15.0744L16.0006 15.232C16.4644 15.2416 16.844 15.4648 16.844 15.9416V27.3076C16.844 27.7844 16.4617 28.226 16.0006 28.1748L8.31307 27.3233C7.85255 27.2724 7.59351 26.8857 7.59235 26.4086L7.56153 15.9416C7.56008 15.4646 7.84936 15.0648 8.31307 15.0744Z" fill="white"/>
<path d="M15.9936 15.5651L8.30608 15.4076L8.32004 14.7412L16.0076 14.8988L15.9936 15.5651ZM16.0076 14.8988C16.1919 14.9026 16.3385 15.0552 16.3347 15.2389C16.3309 15.4227 16.178 15.5689 15.9936 15.5651L16.0076 14.8988ZM17.1784 15.9416H16.5097L16.5091 15.9146L16.5074 15.8899L16.5039 15.8663L16.5001 15.8454L16.4954 15.8262L16.4896 15.8079L16.4832 15.791L16.4766 15.7759L16.4696 15.7626L16.4611 15.7489L16.4515 15.7346L16.442 15.7227L16.4321 15.7111L16.4196 15.6989L16.4065 15.687L16.3934 15.6765L16.3786 15.6657L16.3608 15.6544L16.3428 15.6436L16.3245 15.6343L16.3033 15.6247L16.2812 15.6154L16.2591 15.6076L16.2341 15.5997L16.207 15.5925L16.1797 15.5858L16.1512 15.5803L16.1221 15.5756L16.0916 15.5715L16.0588 15.5686L16.0268 15.5663L15.9936 15.5651L16.0076 14.8988L16.0611 14.9005L16.114 14.904L16.1655 14.9093L16.2181 14.9157L16.2704 14.9244L16.3216 14.9345L16.3728 14.9465L16.4219 14.9601L16.4719 14.9755L16.5225 14.9939L16.5707 15.0136L16.6181 15.0354L16.6661 15.0604L16.7115 15.0869L16.7554 15.1151L16.7993 15.1468L16.842 15.1811L16.8818 15.2174L16.9199 15.2558L16.9571 15.2977L16.9911 15.3416L17.0223 15.3866L17.0516 15.4346L17.0784 15.4858L17.1019 15.5381L17.1223 15.5922L17.1391 15.6471L17.1537 15.7041L17.1644 15.7623L17.172 15.8207L17.1766 15.8809L17.1784 15.9416ZM17.1784 15.9416C17.1784 16.1254 17.0286 16.2748 16.844 16.2748C16.6594 16.2748 16.5097 16.1254 16.5097 15.9416H17.1784ZM16.5097 27.3076V15.9416H17.1784V27.3076H16.5097ZM17.1784 27.3076C17.1784 27.4913 17.0286 27.6407 16.844 27.6407C16.6594 27.6407 16.5097 27.4913 16.5097 27.3076H17.1784ZM15.9637 28.506L16.0375 27.8437L16.0596 27.8454L16.0791 27.8457L16.1 27.8445L16.1198 27.8422L16.1402 27.8384L16.1605 27.8335L16.1788 27.8277L16.1983 27.8204L16.2184 27.8114L16.2387 27.8006L16.2579 27.7896L16.2768 27.7768L16.2963 27.762L16.3143 27.7474L16.3326 27.7303L16.3512 27.7117L16.3681 27.6925L16.3847 27.6716L16.401 27.6498L16.4158 27.6277L16.4303 27.6029L16.4437 27.5788L16.4556 27.5538L16.4667 27.5282L16.4763 27.5021L16.4853 27.4739L16.4925 27.4474L16.4986 27.4201L16.5036 27.391L16.5071 27.364L16.5091 27.3358L16.5097 27.3076H17.1784L17.1766 27.3683L17.1723 27.4291L17.1647 27.4898L17.1545 27.5474L17.142 27.6061L17.126 27.664L17.1083 27.7189L17.0877 27.7748L17.0644 27.8288L17.0391 27.8818L17.0112 27.9332L16.9816 27.9824L16.9493 28.0312L16.915 28.078L16.8786 28.1228L16.8391 28.167L16.799 28.2077L16.7562 28.2475L16.7103 28.2859L16.6635 28.3205L16.6138 28.3536L16.5626 28.3839L16.5103 28.4109L16.4553 28.4356L16.3986 28.4574L16.339 28.476L16.2797 28.4903L16.2187 28.5016L16.1559 28.5086L16.0931 28.5121L16.0277 28.5112L15.9637 28.506ZM15.9637 28.506C15.7802 28.4856 15.648 28.3208 15.6683 28.1379C15.6887 27.955 15.8541 27.8233 16.0375 27.8437L15.9637 28.506ZM8.34998 26.9921L16.0375 27.8437L15.9637 28.506L8.27614 27.6544L8.34998 26.9918V26.9921ZM8.27614 27.6544C8.09269 27.6341 7.9604 27.4692 7.98075 27.2863C8.00111 27.1035 8.16653 26.9718 8.34998 26.9921L8.27614 27.6544ZM7.25799 26.4095L7.92668 26.4077L7.92726 26.4412L7.929 26.4737L7.93162 26.5046L7.93569 26.5351L7.94034 26.565L7.94645 26.5941L7.95313 26.6226L7.9604 26.6488L7.96912 26.6743L7.97843 26.6999L7.98831 26.7238L7.99878 26.7459L8.01041 26.7677L8.02233 26.7889L8.03425 26.8069L8.04733 26.8252L8.06129 26.843L8.07495 26.8587L8.08949 26.8735L8.10577 26.8886L8.12147 26.902L8.13804 26.9145L8.15461 26.9258L8.17206 26.9363L8.19124 26.9468L8.21072 26.9561L8.23078 26.9642L8.25143 26.9715L8.27468 26.9782L8.29794 26.9837L8.32324 26.9883L8.34998 26.9918L8.27614 27.6547L8.21799 27.6466L8.16014 27.6361L8.10315 27.6224L8.04849 27.6064L7.99355 27.5875L7.94034 27.5654L7.88946 27.5416L7.84062 27.5154L7.79236 27.4864L7.74613 27.4547L7.70223 27.4212L7.66037 27.3858L7.62141 27.3491L7.58303 27.3099L7.54669 27.268L7.51355 27.2264L7.48186 27.1825L7.45191 27.136L7.42487 27.0898L7.39987 27.0424L7.37719 26.9936L7.35626 26.9441L7.33765 26.8941L7.32079 26.8424L7.30596 26.7895L7.29346 26.7377L7.2827 26.6842L7.27398 26.6304L7.267 26.5761L7.26206 26.5203L7.25915 26.465L7.25799 26.4095ZM7.25799 26.4095C7.2577 26.2257 7.40685 26.0757 7.59146 26.0754C7.77608 26.0751 7.92639 26.224 7.92668 26.4077L7.25799 26.4095ZM7.89586 15.9408L7.92668 26.4077L7.25799 26.4095L7.22717 15.9425L7.89586 15.9408ZM7.22717 15.9425C7.22688 15.7588 7.37603 15.6088 7.56064 15.6085C7.74526 15.6082 7.89557 15.757 7.89586 15.9408L7.22717 15.9425ZM8.32004 14.7412L8.30608 15.4076L8.28137 15.4079L8.25869 15.4093L8.2366 15.4119L8.21567 15.4154L8.19648 15.4201L8.17903 15.4256L8.15984 15.4329L8.1424 15.4401L8.12728 15.448L8.10984 15.4582L8.09414 15.4686L8.07844 15.4803L8.06419 15.4922L8.04995 15.5058L8.03454 15.5215L8.02087 15.5372L8.00837 15.5535L7.995 15.5727L7.9825 15.5922L7.97087 15.6125L7.95982 15.6343L7.94935 15.6573L7.93947 15.682L7.93075 15.707L7.92319 15.7323L7.91592 15.7605L7.90952 15.789L7.90487 15.8166L7.90109 15.8463L7.89789 15.8786L7.89615 15.9091L7.89586 15.9408L7.22717 15.9425L7.22805 15.8852L7.23153 15.828L7.23648 15.773L7.24375 15.7172L7.25363 15.6611L7.26526 15.607L7.27892 15.5538L7.29521 15.5L7.31381 15.4477L7.33416 15.3968L7.35684 15.3465L7.38184 15.2974L7.40917 15.2491L7.43854 15.2029L7.46994 15.1581L7.50453 15.1139L7.54146 15.0715L7.57896 15.0325L7.61995 14.9939L7.66385 14.9575L7.70863 14.9238L7.75631 14.8924L7.80457 14.8642L7.8569 14.8372L7.9104 14.8142L7.96389 14.7941L8.02146 14.777L8.0796 14.763L8.13833 14.7525L8.19764 14.7453L8.25869 14.7415L8.32004 14.7412ZM8.32004 14.7412C8.50436 14.745 8.65089 14.8976 8.64711 15.0814C8.64333 15.2651 8.49041 15.4114 8.30608 15.4076L8.32004 14.7412Z" fill="#FFBD16"/>
<path fill-rule="evenodd" clip-rule="evenodd" d="M19.0274 8.15942C20.4698 8.15942 21.6391 8.4519 21.6391 8.81299C21.6391 9.17408 20.4698 9.46685 19.0274 9.46685C17.5851 9.46685 16.4161 9.17408 16.4161 8.81299C16.4161 8.4519 17.5851 8.15942 19.0274 8.15942Z" fill="white"/>
<path d="M21.8627 8.81289H21.4155L21.4196 8.8565L21.4292 8.88935L21.4362 8.9036L21.4347 8.90156L21.4248 8.89138L21.4062 8.87481L21.3792 8.85475L21.3434 8.83237L21.3004 8.80852L21.2513 8.78439L21.1951 8.75997L21.1335 8.73613L21.0658 8.71229L20.9931 8.68903L20.9155 8.66665L20.8332 8.64484L20.746 8.6242L20.6544 8.60443L20.5593 8.58553L20.4596 8.56809L20.3564 8.55123L20.25 8.53611L20.1395 8.52215L20.0264 8.50907L19.9101 8.49744L19.7912 8.48756L19.6694 8.47912L19.5452 8.47186L19.4188 8.46604L19.29 8.46226L19.1594 8.45965L19.0274 8.45877V7.85986L19.1641 7.86074L19.2987 7.86335L19.4316 7.86771L19.5621 7.87353L19.6909 7.8808L19.8168 7.88981L19.9409 7.90028L20.0619 7.91249L20.1796 7.92557L20.2947 7.94011L20.407 7.95639L20.5154 7.97383L20.6209 7.99244L20.723 8.0125L20.821 8.03401L20.9152 8.0564L21.0056 8.07995L21.0925 8.10524L21.1745 8.13141L21.2527 8.15874L21.3266 8.18781L21.3966 8.21805L21.4626 8.25032L21.5243 8.28463L21.5821 8.32155L21.6371 8.36196L21.6888 8.4076L21.7371 8.46081L21.7816 8.52332L21.8223 8.60269L21.8516 8.70183L21.8627 8.81289ZM21.8627 8.81289C21.8627 8.97802 21.7624 9.11234 21.6391 9.11234C21.5158 9.11234 21.4155 8.97802 21.4155 8.81289H21.8627ZM19.0274 9.7662V9.16729L19.1594 9.16642L19.29 9.1638L19.4188 9.16002L19.5452 9.15421L19.6694 9.14694L19.7912 9.13851L19.9101 9.12862L20.0264 9.11699L20.1395 9.10391L20.2497 9.09025L20.3564 9.07455L20.4596 9.05797L20.559 9.04024L20.6547 9.02134L20.746 9.00186L20.8329 8.98093L20.9157 8.95912L20.9934 8.93703L21.0655 8.91377L21.1332 8.88993L21.1951 8.8658L21.2513 8.84138L21.3004 8.81725L21.3434 8.79341L21.3792 8.77102L21.4062 8.75096L21.4248 8.73439L21.4347 8.72421L21.4362 8.72218L21.4292 8.73642L21.4196 8.76928L21.4155 8.81289H21.8627L21.8516 8.92395L21.8223 9.02309L21.7816 9.10246L21.7371 9.16496L21.6888 9.21817L21.6371 9.26381L21.5821 9.30422L21.5243 9.34115L21.4626 9.37545L21.3966 9.40772L21.3266 9.43796L21.253 9.46674L21.1748 9.49466L21.0922 9.52082L21.0053 9.54582L20.9155 9.56937L20.821 9.59205L20.7227 9.61327L20.6212 9.63333L20.5154 9.65223L20.407 9.66938L20.295 9.68567L20.1796 9.70049L20.0619 9.71358L19.9409 9.72579L19.8168 9.73625L19.6909 9.74527L19.5621 9.75254L19.4316 9.75835L19.2987 9.76271L19.1641 9.76533L19.0274 9.7662ZM19.0274 9.7662C18.9042 9.7662 18.8039 9.63188 18.8039 9.46674C18.8039 9.30161 18.9042 9.16729 19.0274 9.16729V9.7662ZM16.1925 8.81289H16.6397L16.6356 8.76928L16.6263 8.73759L16.6193 8.72305L16.6199 8.72363L16.6298 8.7341L16.649 8.75096L16.676 8.77102L16.7118 8.79341L16.7548 8.81725L16.8042 8.84138L16.8597 8.8658L16.922 8.88993L16.9894 8.91377L17.0618 8.93703L17.1391 8.95912L17.2223 8.98093L17.3092 9.00186L17.4002 9.02134L17.4962 9.04024L17.5953 9.05797L17.6985 9.07455L17.8052 9.09025L17.9151 9.10391L18.0288 9.1167L18.1451 9.12862L18.2637 9.13851L18.3855 9.14694L18.5096 9.15421L18.6361 9.16002L18.7649 9.1638L18.8954 9.16642L19.0274 9.16729V9.7662L18.8908 9.76533L18.7562 9.76271L18.6233 9.75835L18.4928 9.75254L18.364 9.74527L18.2381 9.73625L18.1142 9.72579L17.9933 9.71387L17.8756 9.70049L17.7598 9.68567L17.6479 9.66938L17.5395 9.65223L17.4339 9.63333L17.3322 9.61327L17.2342 9.59205L17.1397 9.56937L17.0496 9.54582L16.9629 9.52082L16.8801 9.49466L16.8022 9.46674L16.7283 9.43796L16.6583 9.40772L16.5926 9.37545L16.5309 9.34115L16.4731 9.30422L16.4181 9.26381L16.3669 9.21846L16.3181 9.16555L16.2727 9.10158L16.2326 9.02192L16.2036 8.92395L16.1925 8.81289ZM16.1925 8.81289C16.1925 8.64775 16.2928 8.51343 16.4161 8.51343C16.5393 8.51343 16.6397 8.64775 16.6397 8.81289H16.1925ZM19.0274 7.85986V8.45877L18.8954 8.45965L18.7649 8.46226L18.6361 8.46604L18.5096 8.47186L18.3855 8.47912L18.2637 8.48756L18.1451 8.49744L18.0288 8.50936L17.9151 8.52215L17.8049 8.53611L17.6985 8.55123L17.5953 8.56809L17.4959 8.58553L17.4005 8.60443L17.3092 8.6242L17.222 8.64484L17.1394 8.66665L17.0621 8.68903L16.9891 8.71229L16.9217 8.73613L16.8597 8.75997L16.8042 8.78439L16.7548 8.80852L16.7118 8.83237L16.676 8.85475L16.649 8.87481L16.6298 8.89167L16.6199 8.90214L16.6193 8.90272L16.6263 8.88819L16.6356 8.8565L16.6397 8.81289H16.1925L16.2036 8.70183L16.2326 8.60385L16.2727 8.52419L16.3181 8.46023L16.3669 8.40731L16.4181 8.36196L16.4731 8.32155L16.5309 8.28463L16.5926 8.25032L16.6583 8.21805L16.7283 8.18781L16.8025 8.15874L16.8804 8.13141L16.9627 8.10524L17.0493 8.07995L17.14 8.0564L17.2342 8.03401L17.3319 8.0125L17.4342 7.99244L17.5395 7.97383L17.6479 7.95639L17.7601 7.94011L17.8756 7.92557L17.9933 7.91219L18.1142 7.90028L18.2381 7.88981L18.364 7.8808L18.4928 7.87353L18.6233 7.86771L18.7562 7.86335L18.8908 7.86074L19.0274 7.85986ZM19.0274 7.85986C19.1507 7.85986 19.251 7.99418 19.251 8.15932C19.251 8.32445 19.1507 8.45877 19.0274 8.45877V7.85986Z" fill="#4D5C6B"/>
<path fill-rule="evenodd" clip-rule="evenodd" d="M16.6995 6.45996H21.2105V8.63988C20.3674 9.25448 17.9924 9.40247 16.6995 8.60586V6.45996Z" fill="white" stroke="#E94D11" stroke-width="0.579402" stroke-miterlimit="22.9256" stroke-linecap="round" stroke-linejoin="round"/>
<path fill-rule="evenodd" clip-rule="evenodd" d="M17.1758 6.65894C17.3307 6.72086 17.4002 6.72522 17.5825 6.72842L17.5805 8.93596C17.4058 8.90892 17.3493 8.89874 17.1871 8.8467L17.1758 6.65894Z" fill="white" stroke="#E94D11" stroke-width="0.579402" stroke-miterlimit="22.9256" stroke-linecap="round" stroke-linejoin="round"/>
<path fill-rule="evenodd" clip-rule="evenodd" d="M21.2716 6.49976C21.1277 6.58901 20.9477 6.68205 20.7654 6.68495L20.7675 8.8669C20.9393 8.82882 21.1533 8.69944 21.2731 8.57791L21.2716 6.49976Z" fill="white" stroke="#E94D11" stroke-width="0.579402" stroke-miterlimit="22.9256" stroke-linecap="round" stroke-linejoin="round"/>
<path fill-rule="evenodd" clip-rule="evenodd" d="M20.0084 6.78174C19.8409 6.81488 19.6767 6.80122 19.4944 6.80412L19.5028 9.08347C19.6714 9.07329 19.8476 9.09713 20.0101 9.0448L20.0084 6.78174Z" fill="white" stroke="#E94D11" stroke-width="0.579402" stroke-miterlimit="22.9256" stroke-linecap="round" stroke-linejoin="round"/>
<path fill-rule="evenodd" clip-rule="evenodd" d="M18.2573 6.80054C18.4251 6.83368 18.589 6.82002 18.7713 6.82292L18.7629 9.10227C18.5943 9.09209 18.4181 9.11593 18.2559 9.0636L18.2573 6.80054Z" fill="white" stroke="#E94D11" stroke-width="0.579402" stroke-miterlimit="22.9256" stroke-linecap="round" stroke-linejoin="round"/>
<path d="M18.9928 6.81283C20.2594 6.81283 21.2861 6.65481 21.2861 6.45988C21.2861 6.26495 20.2594 6.10693 18.9928 6.10693C17.7263 6.10693 16.6995 6.26495 16.6995 6.45988C16.6995 6.65481 17.7263 6.81283 18.9928 6.81283Z" fill="white" stroke="#E94D11" stroke-width="0.579402" stroke-miterlimit="22.9256" stroke-linecap="round" stroke-linejoin="round"/>
<path fill-rule="evenodd" clip-rule="evenodd" d="M31.324 8.98779V9.64311C33.4341 10.6176 34.3046 12.1295 34.3985 13.9776C34.388 14.1175 34.1034 14.0335 34.1211 14.1794L34.0833 28.9472C32.3758 29.9054 27.7729 30.1104 25.3764 29.0103V14.2928C25.3974 14.0849 25.1412 14.1858 25.1372 14.0282C25.1055 11.7233 26.4112 10.4691 28.262 9.64311L28.2117 8.98779H31.324Z" fill="white" stroke="#AAABA6" stroke-width="0.868913" stroke-miterlimit="22.9256" stroke-linecap="round" stroke-linejoin="round"/>
<path fill-rule="evenodd" clip-rule="evenodd" d="M25.3764 15.011C28.2559 15.846 31.1696 15.8623 34.1191 15.0334C34.586 14.9945 34.5735 15.8233 34.1165 16.0193C31.1705 16.5667 28.2553 16.5554 25.3764 15.8931C24.9377 15.753 24.9581 15.0043 25.3764 15.011Z" fill="white" stroke="#4D5C6B" stroke-width="0.579402" stroke-miterlimit="22.9256" stroke-linecap="round" stroke-linejoin="round"/>
<path d="M31.3432 7.9231H28.1678V8.79268H31.3432V7.9231Z" fill="white" stroke="#4D5C6B" stroke-width="0.579402" stroke-miterlimit="22.9256" stroke-linecap="round" stroke-linejoin="round"/>
<path fill-rule="evenodd" clip-rule="evenodd" d="M28.8411 6.00781H30.6579C31.0248 6.00781 31.3245 6.30756 31.3245 6.67446V7.92316H28.1744V6.67446C28.1744 6.30756 28.4742 6.00781 28.8411 6.00781Z" fill="white" stroke="#E94D11" stroke-width="0.579402" stroke-miterlimit="22.9256" stroke-linecap="round" stroke-linejoin="round"/>
<path d="M28.885 6.05859V7.96726" stroke="#E94D11" stroke-width="0.579402" stroke-miterlimit="22.9256" stroke-linecap="round" stroke-linejoin="round"/>
<path d="M29.4813 6.0271V7.93576" stroke="#E94D11" stroke-width="0.579402" stroke-miterlimit="22.9256" stroke-linecap="round" stroke-linejoin="round"/>
<path d="M29.8421 6.02846C29.8421 5.90867 29.943 5.81128 30.0671 5.81128C30.1913 5.81128 30.2922 5.90867 30.2922 6.02846H29.8421ZM29.8421 7.87112V6.02846H30.2922V7.87112H29.8421ZM30.2922 7.87112C30.2922 7.9909 30.1913 8.0883 30.0671 8.0883C29.943 8.0883 29.8421 7.9909 29.8421 7.87112H30.2922Z" fill="#E94D11"/>
<path fill-rule="evenodd" clip-rule="evenodd" d="M26.5937 20.1668C27.0537 20.4933 32.7802 20.4276 32.9038 20.1145L32.9125 23.9766C31.9531 24.37 27.7945 24.4711 26.585 24.0028L26.5937 20.1668Z" fill="white" stroke="#E94D11" stroke-width="0.868913" stroke-miterlimit="22.9256" stroke-linecap="round" stroke-linejoin="round"/>
<path d="M30.4282 6.02235C30.4282 5.90257 30.5291 5.80518 30.6533 5.80518C30.7774 5.80518 30.8783 5.90257 30.8783 6.02235H30.4282ZM30.4282 7.86502V6.02235H30.8783V7.86502H30.4282ZM30.8783 7.86502C30.8783 7.9848 30.7774 8.0822 30.6533 8.0822C30.5291 8.0822 30.4282 7.9848 30.4282 7.86502H30.8783Z" fill="#E94D11"/>
<path fill-rule="evenodd" clip-rule="evenodd" d="M28.1338 8.62866H31.4528C31.5484 8.62866 31.6266 8.70687 31.6266 8.80252V8.80281C31.6266 8.89846 31.5484 8.97667 31.4528 8.97667H28.1338C28.0381 8.97667 27.9599 8.89846 27.9599 8.80281V8.80252C27.9599 8.70687 28.0381 8.62866 28.1338 8.62866Z" fill="white"/>
<path d="M31.4528 8.85141H28.1338V8.40601H31.4528V8.85141ZM31.4528 8.40601C31.5551 8.40601 31.6383 8.50573 31.6383 8.62871C31.6383 8.75169 31.5551 8.85141 31.4528 8.85141V8.40601ZM31.8121 8.80256H31.4411V8.80663L31.4414 8.81129L31.442 8.81623L31.4432 8.82146L31.4443 8.8264V8.82757L31.4461 8.83222L31.4478 8.83658L31.4487 8.83862L31.4507 8.84269L31.4533 8.84647L31.4551 8.84908L31.4548 8.84879L31.4574 8.8517L31.4568 8.85112L31.4563 8.85024L31.4586 8.85228L31.4574 8.85141L31.4583 8.85228L31.4586 8.85257H31.4589L31.4563 8.85199V8.8517H31.456H31.4551H31.4542L31.4528 8.85141V8.40601L31.4693 8.4063L31.4859 8.40746L31.5025 8.40979L31.5191 8.41269L31.5359 8.41647L31.5496 8.42054L31.5662 8.42578L31.5821 8.43246L31.597 8.43886L31.6124 8.447L31.6258 8.45456L31.6415 8.46444L31.6557 8.4752L31.6679 8.48479L31.683 8.49788L31.6941 8.50863L31.7051 8.51968L31.7188 8.53538L31.729 8.54846L31.7406 8.56445L31.7519 8.58219L31.7607 8.59731L31.7702 8.61591L31.7781 8.63365L31.7862 8.65371L31.7932 8.67464L31.7979 8.69209L31.8031 8.71389L31.8072 8.73599L31.8101 8.75837L31.8115 8.78047L31.8121 8.80256ZM31.8121 8.80256C31.8121 8.92554 31.729 9.02527 31.6266 9.02527C31.5243 9.02527 31.4411 8.92554 31.4411 8.80256H31.8121ZM31.4411 8.80286V8.80256H31.8121V8.80286H31.4411ZM31.8121 8.80286C31.8121 8.92584 31.729 9.02556 31.6266 9.02556C31.5243 9.02556 31.4411 8.92584 31.4411 8.80286H31.8121ZM31.4528 9.19942V8.75401L31.4542 8.75372H31.4551H31.456H31.4563V8.75343L31.4589 8.75285H31.4586L31.4583 8.75314L31.4574 8.75401L31.4586 8.75314L31.4563 8.75517L31.4568 8.7543L31.4574 8.75372L31.4548 8.75663L31.4551 8.75634L31.4533 8.75895L31.4507 8.76273L31.4487 8.7668L31.4478 8.76884L31.4461 8.7732L31.4443 8.77785V8.77901L31.4432 8.78396L31.442 8.78919L31.4414 8.79413L31.4411 8.79878V8.80286H31.8121L31.8115 8.82495L31.8101 8.84705L31.8072 8.86943L31.8031 8.89153L31.7979 8.91333L31.7932 8.93078L31.7862 8.95171L31.7781 8.97177L31.7702 8.98951L31.7607 9.00811L31.7519 9.02323L31.7406 9.04097L31.729 9.05696L31.7188 9.07004L31.7051 9.08574L31.6941 9.09679L31.683 9.10754L31.6679 9.12063L31.6557 9.13022L31.6415 9.14098L31.6258 9.15086L31.6124 9.15842L31.597 9.16656L31.5821 9.17296L31.5662 9.17965L31.5496 9.18488L31.5359 9.18895L31.5191 9.19273L31.5025 9.19564L31.4859 9.19796L31.4693 9.19912L31.4528 9.19942ZM31.4528 9.19942C31.3504 9.19942 31.2673 9.09969 31.2673 8.97671C31.2673 8.85373 31.3504 8.75401 31.4528 8.75401V9.19942ZM28.1338 8.75401H31.4528V9.19942H28.1338V8.75401ZM28.1338 9.19942C28.0314 9.19942 27.9483 9.09969 27.9483 8.97671C27.9483 8.85373 28.0314 8.75401 28.1338 8.75401V9.19942ZM27.7744 8.80286H28.1454V8.79878L28.1451 8.79413L28.1445 8.78919L28.1434 8.78396L28.1422 8.77901V8.77785L28.1404 8.7732L28.1387 8.76884L28.1378 8.7668L28.1358 8.76273L28.1332 8.75895L28.1314 8.75634L28.1317 8.75663L28.1291 8.75372L28.1297 8.7543L28.1303 8.75517L28.1279 8.75314L28.1291 8.75401L28.1282 8.75314L28.1279 8.75285H28.1277L28.1303 8.75343V8.75372H28.1306H28.1314H28.1323L28.1338 8.75401V9.19942L28.1172 9.19912L28.1006 9.19796L28.084 9.19564L28.0675 9.19273L28.0506 9.18895L28.0369 9.18488L28.0204 9.17965L28.0044 9.17296L27.9896 9.16656L27.9741 9.15842L27.9608 9.15086L27.9451 9.14098L27.9308 9.13022L27.9186 9.12063L27.9035 9.10754L27.8924 9.09679L27.8814 9.08574L27.8677 9.07004L27.8576 9.05696L27.8459 9.04097L27.8346 9.02323L27.8259 9.00811L27.8163 8.98951L27.8084 8.97177L27.8003 8.95171L27.7933 8.93078L27.7887 8.91333L27.7834 8.89153L27.7794 8.86943L27.7764 8.84705L27.775 8.82495L27.7744 8.80286ZM27.7744 8.80286C27.7744 8.67988 27.8576 8.58015 27.9599 8.58015C28.0622 8.58015 28.1454 8.67988 28.1454 8.80286H27.7744ZM28.1454 8.80256V8.80286H27.7744V8.80256H28.1454ZM27.7744 8.80256C27.7744 8.67958 27.8576 8.57986 27.9599 8.57986C28.0622 8.57986 28.1454 8.67958 28.1454 8.80256H27.7744ZM28.1338 8.40601V8.85141L28.1323 8.8517H28.1314H28.1306H28.1303V8.85199L28.1277 8.85257H28.1279L28.1282 8.85228L28.1291 8.85141L28.1279 8.85228L28.1303 8.85024L28.1297 8.85112L28.1291 8.8517L28.1317 8.84879L28.1314 8.84908L28.1332 8.84647L28.1358 8.84269L28.1378 8.83862L28.1387 8.83658L28.1404 8.83222L28.1422 8.82757V8.8264L28.1434 8.82146L28.1445 8.81623L28.1451 8.81129L28.1454 8.80663V8.80256H27.7744L27.775 8.78047L27.7764 8.75837L27.7794 8.73599L27.7834 8.71389L27.7887 8.69209L27.7933 8.67464L27.8003 8.65371L27.8084 8.63365L27.8163 8.61591L27.8259 8.59731L27.8346 8.58219L27.8459 8.56445L27.8576 8.54846L27.8677 8.53538L27.8814 8.51968L27.8924 8.50863L27.9035 8.49788L27.9186 8.48479L27.9308 8.4752L27.9451 8.46444L27.9608 8.45456L27.9741 8.447L27.9896 8.43886L28.0044 8.43246L28.0204 8.42578L28.0369 8.42054L28.0506 8.41647L28.0675 8.41269L28.084 8.40979L28.1006 8.40746L28.1172 8.4063L28.1338 8.40601ZM28.1338 8.40601C28.2361 8.40601 28.3192 8.50573 28.3192 8.62871C28.3192 8.75169 28.2361 8.85141 28.1338 8.85141V8.40601Z" fill="#AAABA6"/>
<path fill-rule="evenodd" clip-rule="evenodd" d="M20.4523 23.8054C21.6443 25.1498 28.8012 25.0826 29.1719 23.8054V33.0289C26.8903 34.2035 23.4648 34.4178 20.4523 33.0289V23.8054Z" fill="white" stroke="#4D5C6B" stroke-width="0.868913" stroke-miterlimit="22.9256" stroke-linecap="round" stroke-linejoin="round"/>
<path fill-rule="evenodd" clip-rule="evenodd" d="M21.7452 25.8825C22.3333 26.3 27.948 26.2163 28.1058 25.8157L28.1169 30.7541C26.8903 31.257 23.2805 31.3864 21.7338 30.7875L21.7452 25.8825Z" fill="white" stroke="#E94D11" stroke-width="0.769512" stroke-miterlimit="22.9256" stroke-linecap="round" stroke-linejoin="round"/>
<path fill-rule="evenodd" clip-rule="evenodd" d="M26.5132 19.0423L29.1719 23.8054C28.7021 25.0697 21.7367 25.1378 20.4523 23.8054L23.3125 18.9667L24.999 17.3647L26.5132 19.0423Z" fill="white" stroke="#4D5C6B" stroke-width="0.868913" stroke-miterlimit="22.9256" stroke-linecap="round" stroke-linejoin="round"/>
<path fill-rule="evenodd" clip-rule="evenodd" d="M23.2875 17.3647H26.5132V18.8518C25.4677 19.181 24.3999 19.2618 23.2875 18.8518V17.3647Z" fill="white" stroke="#AAABA6" stroke-width="0.579402" stroke-miterlimit="22.9256" stroke-linecap="round" stroke-linejoin="round"/>
<path fill-rule="evenodd" clip-rule="evenodd" d="M24.9002 17.0371C25.791 17.0371 26.5132 17.1726 26.5132 17.3398C26.5132 17.5066 25.791 17.6421 24.9002 17.6421C24.0094 17.6421 23.2875 17.5066 23.2875 17.3398C23.2875 17.1726 24.0094 17.0371 24.9002 17.0371Z" fill="white"/>
<path d="M26.7359 17.3398H26.2905L26.2963 17.3825L26.3088 17.4148L26.321 17.4331L26.33 17.443L26.3254 17.4398L26.314 17.4337L26.296 17.4252L26.2733 17.4156L26.2451 17.4055L26.2137 17.395L26.178 17.3848L26.1384 17.3741L26.0954 17.3639L26.0489 17.354L25.9995 17.3441L25.9471 17.3348L25.8925 17.3261L25.834 17.3174L25.7739 17.3092L25.7114 17.302L25.6462 17.295L25.5791 17.2883L25.5102 17.2825L25.4395 17.2773L25.3671 17.2726L25.2924 17.2688L25.2165 17.2653L25.1395 17.2627L25.0607 17.2607L24.981 17.2598L24.9002 17.2595V16.8147L24.9851 16.815L25.0694 16.8164L25.1523 16.8185L25.234 16.8211L25.3145 16.8246L25.3927 16.8289L25.4703 16.8336L25.5462 16.8394L25.6198 16.8458L25.6916 16.8525L25.7619 16.86L25.8303 16.8685L25.8963 16.8772L25.9599 16.8865L26.0222 16.8964L26.082 16.9074L26.1396 16.9185L26.1943 16.9307L26.2472 16.9432L26.2972 16.9563L26.3457 16.9705L26.3917 16.9856L26.435 17.0016L26.4769 17.0188L26.5164 17.0377L26.5562 17.0595L26.5946 17.0854L26.6307 17.1144L26.6682 17.154L26.7007 17.2031L26.726 17.2656L26.7359 17.3398ZM26.7359 17.3398C26.7359 17.4624 26.6362 17.5622 26.5132 17.5622C26.3902 17.5622 26.2905 17.4624 26.2905 17.3398H26.7359ZM24.9002 17.8645V17.4197L24.981 17.4194L25.0607 17.4185L25.1395 17.4165L25.2165 17.4139L25.2924 17.4104L25.3671 17.4066L25.4395 17.402L25.5102 17.3967L25.5791 17.3909L25.6462 17.3842L25.7114 17.3773L25.7739 17.37L25.834 17.3619L25.8925 17.3531L25.9471 17.3444L25.9995 17.3351L26.0489 17.3252L26.0954 17.3153L26.1384 17.3052L26.178 17.2944L26.2143 17.2839L26.2457 17.2738L26.2733 17.2639L26.2952 17.2546L26.3132 17.2459L26.3263 17.2389L26.33 17.2365L26.3295 17.2371L26.3216 17.2456L26.3088 17.2648L26.2963 17.2967L26.2905 17.3398H26.7359L26.726 17.4136L26.7007 17.4764L26.6676 17.5258L26.6312 17.5639L26.5946 17.5942L26.5554 17.6203L26.5173 17.6412L26.4777 17.6604L26.435 17.6779L26.3911 17.6942L26.3452 17.709L26.2972 17.7229L26.2472 17.736L26.1943 17.7485L26.1396 17.7607L26.082 17.7718L26.0222 17.7828L25.9599 17.7927L25.8963 17.802L25.8303 17.8107L25.7619 17.8192L25.6916 17.8267L25.6198 17.8334L25.5462 17.8398L25.4703 17.8456L25.3927 17.8503L25.3145 17.8546L25.234 17.8581L25.1523 17.8608L25.0694 17.8628L24.9851 17.8642L24.9002 17.8645ZM24.9002 17.8645C24.7772 17.8645 24.6775 17.7648 24.6775 17.6421C24.6775 17.5194 24.7772 17.4197 24.9002 17.4197V17.8645ZM23.0648 17.3398H23.5102L23.5044 17.2967L23.4919 17.2648L23.4791 17.2456L23.4713 17.2371L23.4707 17.2365L23.4745 17.2389L23.4875 17.2459L23.5056 17.2546L23.5277 17.2639L23.5547 17.2738L23.5864 17.2839L23.6224 17.2944L23.662 17.3049L23.7053 17.3153L23.7518 17.3252L23.8015 17.3351L23.8533 17.3444L23.9079 17.3531L23.9664 17.3619L24.0266 17.37L24.0891 17.3773L24.1542 17.3842L24.2211 17.3909L24.2905 17.3967L24.3612 17.402L24.4333 17.4066L24.5083 17.4104L24.5839 17.4139L24.6609 17.4165L24.7397 17.4185L24.8194 17.4194L24.9002 17.4197V17.8645L24.8153 17.8642L24.731 17.8628L24.6481 17.8608L24.5665 17.8581L24.4862 17.8546L24.4077 17.8503L24.3304 17.8456L24.2545 17.8398L24.1809 17.8334L24.1088 17.8267L24.0385 17.8192L23.9702 17.8107L23.9042 17.802L23.8405 17.7927L23.7783 17.7828L23.7184 17.7718L23.6611 17.7607L23.6065 17.7485L23.5538 17.7363L23.5032 17.7229L23.4556 17.709L23.4093 17.6942L23.3654 17.6779L23.323 17.6604L23.2834 17.6412L23.2454 17.6203L23.2061 17.5942L23.1695 17.5639L23.1331 17.5258L23.1 17.4764L23.0747 17.4136L23.0648 17.3398ZM23.0648 17.3398C23.0648 17.2171 23.1645 17.1173 23.2875 17.1173C23.4105 17.1173 23.5102 17.2171 23.5102 17.3398H23.0648ZM24.9002 16.8147V17.2595L24.8194 17.2598L24.7397 17.2607L24.6609 17.2627L24.5839 17.2653L24.5083 17.2688L24.4333 17.2726L24.3612 17.2773L24.2905 17.2825L24.2211 17.2883L24.1542 17.295L24.0891 17.302L24.0266 17.3092L23.9664 17.3174L23.9079 17.3261L23.8533 17.3348L23.8015 17.3441L23.7518 17.354L23.7053 17.3639L23.662 17.3744L23.6224 17.3848L23.587 17.395L23.5553 17.4055L23.5277 17.4156L23.5047 17.4252L23.4867 17.4337L23.4753 17.4398L23.4707 17.443L23.4797 17.4331L23.4919 17.4148L23.5044 17.3825L23.5102 17.3398H23.0648L23.0747 17.2656L23.1 17.2031L23.1326 17.154L23.1701 17.1144L23.2061 17.0854L23.2445 17.0595L23.2843 17.0377L23.3239 17.0188L23.3654 17.0016L23.4088 16.9856L23.455 16.9705L23.5032 16.9563L23.5538 16.9429L23.6065 16.9307L23.6611 16.9185L23.7184 16.9074L23.7783 16.8964L23.8405 16.8865L23.9042 16.8772L23.9702 16.8685L24.0385 16.86L24.1088 16.8525L24.1809 16.8458L24.2545 16.8394L24.3304 16.8336L24.4077 16.8289L24.4862 16.8246L24.5665 16.8211L24.6481 16.8185L24.731 16.8164L24.8153 16.815L24.9002 16.8147ZM24.9002 16.8147C25.0232 16.8147 25.1229 16.9144 25.1229 17.0371C25.1229 17.1598 25.0232 17.2595 24.9002 17.2595V16.8147Z" fill="#AAABA6"/>
<path d="M23.6221 17.5242L23.6265 18.9621" stroke="#AAABA6" stroke-width="0.579402" stroke-miterlimit="22.9256" stroke-linecap="round" stroke-linejoin="round"/>
<path d="M24.033 17.6692C24.0327 17.5518 24.1321 17.4561 24.2551 17.4558C24.3781 17.4555 24.4781 17.5506 24.4784 17.668L24.033 17.6692ZM24.037 19.0421L24.033 17.6692L24.4784 17.668L24.4824 19.0409L24.037 19.0421ZM24.4824 19.0409C24.4827 19.1583 24.3833 19.254 24.2603 19.2543C24.1373 19.2546 24.0373 19.1595 24.037 19.0421L24.4824 19.0409Z" fill="#AAABA6"/>
<path d="M24.9738 17.679L24.9781 19.1169" stroke="#AAABA6" stroke-width="0.579402" stroke-miterlimit="22.9256" stroke-linecap="round" stroke-linejoin="round"/>
<path d="M25.6669 17.616L25.6712 19.0542" stroke="#AAABA6" stroke-width="0.579402" stroke-miterlimit="22.9256" stroke-linecap="round" stroke-linejoin="round"/>
<path d="M25.9335 17.541C25.9332 17.4288 26.0338 17.3372 26.1576 17.3369C26.2815 17.3366 26.3827 17.4276 26.3829 17.5398L25.9335 17.541ZM25.9378 18.8441L25.9335 17.541L26.3829 17.5398L26.3873 18.8429L25.9378 18.8441ZM26.3873 18.8429C26.3876 18.9551 26.287 19.0467 26.1632 19.047C26.0393 19.0473 25.9381 18.9563 25.9378 18.8441L26.3873 18.8429Z" fill="#AAABA6"/>
<path fill-rule="evenodd" clip-rule="evenodd" d="M22.3813 26.85C22.7523 27.1134 27.37 27.0605 27.4694 26.8079L27.4764 29.9219C26.7031 30.2394 23.3497 30.3208 22.3743 29.9431L22.3813 26.85Z" fill="white" stroke="#4D5C6B" stroke-width="0.700724" stroke-miterlimit="22.9256" stroke-linecap="round" stroke-linejoin="round"/>
</svg>
