<svg width="40" height="40" viewBox="0 0 40 40" fill="none" xmlns="http://www.w3.org/2000/svg">
<path fill-rule="evenodd" clip-rule="evenodd" d="M27.9613 10.3145H31.0262C31.5475 10.3145 31.9737 10.7407 31.9737 11.262V11.4888C31.9737 12.0101 31.5475 12.4363 31.0262 12.4363H27.9613V10.3145Z" fill="white" stroke="#4D5C6B" stroke-width="1.1588" stroke-miterlimit="22.9256" stroke-linecap="round" stroke-linejoin="round"/>
<path fill-rule="evenodd" clip-rule="evenodd" d="M31.9736 11.1992H35.2354C35.3354 11.1992 35.4168 11.2806 35.4168 11.3806V11.4385C35.4168 11.5385 35.3354 11.6199 35.2354 11.6199H31.9736V11.1992Z" fill="white"/>
<path d="M35.2354 11.4769H31.9737V10.9216H35.2354V11.4769ZM35.2354 10.9216C35.4811 10.9216 35.6805 11.046 35.6805 11.1992C35.6805 11.3524 35.4811 11.4769 35.2354 11.4769V10.9216ZM35.8619 11.3806H34.9717V11.3795V11.3786L34.972 11.3809L34.9717 11.3806L34.9714 11.3789L34.9717 11.3795L34.9726 11.3818V11.3821L34.9723 11.3812L34.9752 11.3862L34.9761 11.3876L34.9775 11.3899L34.9796 11.3923L34.9825 11.3958L34.986 11.3992L34.9903 11.4033L34.9956 11.408L35.0017 11.4129L35.0089 11.4179L35.0168 11.4231L35.0339 11.433L35.0418 11.437L35.054 11.4423L35.0741 11.4504L35.0909 11.4559L35.1127 11.462L35.1281 11.4658L35.1517 11.4699L35.1869 11.4745L35.2113 11.4763L35.2354 11.4769V10.9216L35.2781 10.9227L35.3212 10.9256L35.3744 10.9326L35.416 10.9402L35.4488 10.948L35.4875 10.9588L35.5212 10.9701L35.5581 10.9847L35.586 10.9975L35.6096 11.0091L35.6419 11.0277L35.6648 11.0428L35.686 11.0576L35.7061 11.0736L35.7241 11.0893L35.7413 11.1056L35.757 11.1219L35.7709 11.1382L35.784 11.1544L35.7954 11.1707L35.8061 11.1873L35.8177 11.2074L35.825 11.2222L35.8326 11.2382L35.8398 11.2574L35.8457 11.2742L35.8506 11.2917L35.8544 11.3074L35.8576 11.3251L35.8602 11.3455L35.8614 11.3632L35.8619 11.3806ZM35.8619 11.3806C35.8619 11.5339 35.6625 11.6583 35.4168 11.6583C35.1712 11.6583 34.9717 11.5339 34.9717 11.3806H35.8619ZM34.9717 11.4385V11.3806H35.8619V11.4385H34.9717ZM35.8619 11.4385C35.8619 11.5917 35.6625 11.7161 35.4168 11.7161C35.1712 11.7161 34.9717 11.5917 34.9717 11.4385H35.8619ZM35.2354 11.8976V11.3423L35.2113 11.3428L35.1869 11.3446L35.1517 11.3492L35.1281 11.3533L35.1127 11.3571L35.0909 11.3632L35.0741 11.3687L35.054 11.3769L35.0418 11.3821L35.0339 11.3862L35.0168 11.396L35.0089 11.4013L35.0017 11.4062L34.9956 11.4112L34.9903 11.4158L34.986 11.4199L34.9825 11.4234L34.9796 11.4269L34.9775 11.4292L34.9761 11.4315L34.9752 11.433L34.9723 11.4379L34.9726 11.437V11.4373L34.9717 11.4397L34.9714 11.4402L34.9717 11.4385L34.972 11.4382L34.9717 11.4405V11.4397V11.4385H35.8619L35.8614 11.4559L35.8602 11.4737L35.8576 11.494L35.8544 11.5118L35.8506 11.5275L35.8457 11.5449L35.8398 11.5618L35.8326 11.581L35.825 11.5969L35.8177 11.6118L35.8061 11.6318L35.7954 11.6484L35.784 11.6647L35.7709 11.681L35.757 11.6972L35.7413 11.7135L35.7241 11.7298L35.7061 11.7455L35.686 11.7615L35.6648 11.7763L35.6419 11.7914L35.6096 11.81L35.586 11.8217L35.5581 11.8345L35.5212 11.849L35.4875 11.8603L35.4488 11.8711L35.416 11.879L35.3744 11.8865L35.3212 11.8935L35.2781 11.8964L35.2354 11.8976ZM35.2354 11.8976C34.9897 11.8976 34.7903 11.7731 34.7903 11.6199C34.7903 11.4667 34.9897 11.3423 35.2354 11.3423V11.8976ZM31.9737 11.3423H35.2354V11.8976H31.9737L31.5286 11.6199L31.9737 11.3423ZM31.9737 11.8976C31.728 11.8976 31.5286 11.7731 31.5286 11.6199C31.5286 11.4667 31.728 11.3423 31.9737 11.3423V11.8976ZM32.4188 11.1992V11.6199H31.5286V11.1992L31.9737 10.9216L32.4188 11.1992ZM31.5286 11.1992C31.5286 11.046 31.728 10.9216 31.9737 10.9216C32.2193 10.9216 32.4188 11.046 32.4188 11.1992H31.5286Z" fill="#4D5C6B"/>
<path fill-rule="evenodd" clip-rule="evenodd" d="M20.3179 16.219C20.1243 17.3462 20.1644 18.3195 20.3566 19.1894H17.9647L18.7363 16.219H20.3179Z" fill="white" stroke="#AAABA6" stroke-width="1.1588" stroke-miterlimit="22.9256" stroke-linecap="round" stroke-linejoin="round"/>
<path fill-rule="evenodd" clip-rule="evenodd" d="M9.10675 28.3702C9.68909 27.9867 10.1548 27.3826 10.4127 26.3845L12.4961 18.9001C12.7461 17.8029 12.3749 16.9045 11.3387 16.219H18.7364L16.0067 25.9987C15.5837 27.2142 15.593 28.2021 16.817 28.41H17.5432C17.6715 28.41 17.7764 28.515 17.7764 28.6432V33.7322C17.7764 33.8604 17.6715 33.9653 17.5432 33.9653H8.82794C8.69944 33.9653 8.59448 33.8604 8.59448 33.7322V28.6432C8.59448 28.515 8.69944 28.41 8.82794 28.41H14.3806L9.10675 28.3702Z" fill="white" stroke="#4D5C6B" stroke-width="1.1588" stroke-miterlimit="22.9256" stroke-linecap="round" stroke-linejoin="round"/>
<path fill-rule="evenodd" clip-rule="evenodd" d="M22.2516 7.49994H26.9408C27.5022 7.49994 27.9613 7.95901 27.9613 8.52041V13.6553C27.9613 14.2167 27.5022 14.6758 26.9408 14.6758H22.2516V7.49994Z" fill="white" stroke="#AAABA6" stroke-width="1.1588" stroke-miterlimit="22.9256" stroke-linecap="round" stroke-linejoin="round"/>
<path d="M26.4521 7.49994V8.7152" stroke="#AAABA6" stroke-width="1.1588" stroke-miterlimit="22.9256" stroke-linecap="round" stroke-linejoin="round"/>
<path d="M26.4521 10.2049V14.6758" stroke="#AAABA6" stroke-width="1.1588" stroke-miterlimit="22.9256" stroke-linecap="round" stroke-linejoin="round"/>
<path fill-rule="evenodd" clip-rule="evenodd" d="M21.3767 6.03406H9.53985C6.81307 6.03406 4.58228 8.26485 4.58228 10.9916V11.2614C4.58228 13.9882 6.81307 16.219 9.53985 16.219H21.3767C21.8579 16.219 22.2516 15.8254 22.2516 15.3442V6.90887C22.2516 6.42771 21.8579 6.03406 21.3767 6.03406Z" fill="white" stroke="#E94D11" stroke-width="1.1588" stroke-miterlimit="22.9256" stroke-linecap="round" stroke-linejoin="round"/>
<path d="M8.01123 9.58276H10.9433" stroke="#AAABA6" stroke-width="1.1588" stroke-miterlimit="22.9256" stroke-linecap="round" stroke-linejoin="round"/>
<path d="M8.0304 12.6503H10.9624" stroke="#AAABA6" stroke-width="1.1588" stroke-miterlimit="22.9256" stroke-linecap="round" stroke-linejoin="round"/>
<path d="M6.9308 11.5914C6.68484 11.5914 6.48511 11.3917 6.48511 11.1457C6.48511 10.8997 6.68484 10.7 6.9308 10.7V11.5914ZM11.9849 11.5914H6.9308V10.7H11.9849V11.5914ZM11.9849 10.7C12.2309 10.7 12.4306 10.8997 12.4306 11.1457C12.4306 11.3917 12.2309 11.5914 11.9849 11.5914V10.7Z" fill="#AAABA6"/>
</svg>
