<svg width="40" height="40" viewBox="0 0 40 40" fill="none" xmlns="http://www.w3.org/2000/svg">
<path d="M14.9871 29.8308C14.9376 33.704 15.7694 34.2901 18.0392 34.3703H25.9989C27.6461 34.4046 28.6358 33.4717 28.9466 31.5403" stroke="#E94D11" stroke-width="1.1588" stroke-miterlimit="22.9256" stroke-linecap="round" stroke-linejoin="round"/>
<path d="M11.7444 28.4745L18.2301 28.4155" stroke="#4D5C6B" stroke-width="1.1588" stroke-miterlimit="22.9256" stroke-linecap="round" stroke-linejoin="round"/>
<path d="M18.3753 23.7285H11.7184C11.5215 23.7285 11.3619 23.8881 11.3619 24.085V26.4379C11.3619 26.6347 11.5215 26.7943 11.7184 26.7943H18.3753C18.5721 26.7943 18.7317 26.6347 18.7317 26.4379V24.085C18.7317 23.8881 18.5721 23.7285 18.3753 23.7285Z" fill="white" stroke="#4D5C6B" stroke-width="1.1588" stroke-miterlimit="22.9256" stroke-linecap="round" stroke-linejoin="round"/>
<path fill-rule="evenodd" clip-rule="evenodd" d="M12.5411 23.7284C12.5216 19.8764 8.9052 18.7365 8.76768 15.3564C8.20628 6.8397 21.6294 5.8672 21.1491 15.828C20.9724 18.6972 17.3167 20.0928 17.4347 23.7284H12.5411Z" fill="white" stroke="#AAABA6" stroke-width="1.1588" stroke-miterlimit="22.9256" stroke-linecap="round" stroke-linejoin="round"/>
<path d="M12.7178 15.0616L15.0172 17.4197M15.0172 17.4197L17.6114 14.8845M15.0172 17.4197L14.9879 23.7283" stroke="#E94D11" stroke-width="1.1588" stroke-miterlimit="22.9256" stroke-linecap="round" stroke-linejoin="round"/>
<path d="M5.58386 15.1204H7.35268" stroke="#E94D11" stroke-width="1.1588" stroke-miterlimit="22.9256" stroke-linecap="round" stroke-linejoin="round"/>
<path d="M6.24231 11.3997L7.84454 12.1489" stroke="#E94D11" stroke-width="1.1588" stroke-miterlimit="22.9256" stroke-linecap="round" stroke-linejoin="round"/>
<path d="M8.36969 8.22437L9.63729 9.45824" stroke="#E94D11" stroke-width="1.1588" stroke-miterlimit="22.9256" stroke-linecap="round" stroke-linejoin="round"/>
<path d="M11.4968 6.16455L11.9933 7.86214" stroke="#E94D11" stroke-width="1.1588" stroke-miterlimit="22.9256" stroke-linecap="round" stroke-linejoin="round"/>
<path d="M15.0745 5.62793L15.078 7.39675" stroke="#E94D11" stroke-width="1.1588" stroke-miterlimit="22.9256" stroke-linecap="round" stroke-linejoin="round"/>
<path d="M18.6115 6.16602L17.9359 7.80052" stroke="#E94D11" stroke-width="1.1588" stroke-miterlimit="22.9256" stroke-linecap="round" stroke-linejoin="round"/>
<path d="M21.7567 8.37793L20.4236 9.54028" stroke="#E94D11" stroke-width="1.1588" stroke-miterlimit="22.9256" stroke-linecap="round" stroke-linejoin="round"/>
<path d="M23.811 11.3623L22.1428 11.9502" stroke="#E94D11" stroke-width="1.1588" stroke-miterlimit="22.9256" stroke-linecap="round" stroke-linejoin="round"/>
<path d="M24.5097 14.9717L22.7411 14.9743" stroke="#E94D11" stroke-width="1.1588" stroke-miterlimit="22.9256" stroke-linecap="round" stroke-linejoin="round"/>
<path d="M16.2963 26.7944H13.4715C13.2746 26.7944 13.1151 26.954 13.1151 27.1509V29.4744C13.1151 29.6713 13.2746 29.8309 13.4715 29.8309H16.2963C16.4931 29.8309 16.6527 29.6713 16.6527 29.4744V27.1509C16.6527 26.954 16.4931 26.7944 16.2963 26.7944Z" fill="white" stroke="#4D5C6B" stroke-width="1.1588" stroke-miterlimit="22.9256" stroke-linecap="round" stroke-linejoin="round"/>
<path fill-rule="evenodd" clip-rule="evenodd" d="M25.6451 22.0775H27.2371V18.7352C27.2371 18.2872 26.8708 17.9209 26.4228 17.9209H26.4225C25.9948 17.9209 25.6451 18.2706 25.6451 18.6983V22.0775Z" fill="white" stroke="#FFBD16" stroke-width="0.868913" stroke-miterlimit="22.9256" stroke-linecap="round" stroke-linejoin="round"/>
<path fill-rule="evenodd" clip-rule="evenodd" d="M30.6122 22.0621H32.2043V18.7199C32.2043 18.2718 31.838 17.9055 31.39 17.9055H31.3897C30.962 17.9055 30.6122 18.2553 30.6122 18.6829V22.0621Z" fill="white" stroke="#FFBD16" stroke-width="0.868913" stroke-miterlimit="22.9256" stroke-linecap="round" stroke-linejoin="round"/>
<path fill-rule="evenodd" clip-rule="evenodd" d="M24.8783 24.5244H33.0147V28.5546C33.0147 30.1969 31.6716 31.5404 30.0289 31.5404H27.8644C26.2221 31.5404 24.8783 30.1969 24.8783 28.5546V24.5244Z" fill="white" stroke="#4D5C6B" stroke-width="1.1588" stroke-miterlimit="22.9256" stroke-linecap="round" stroke-linejoin="round"/>
<path fill-rule="evenodd" clip-rule="evenodd" d="M24.5265 22.0774H33.3816C33.9503 22.0774 34.4152 22.5423 34.4152 23.1109V23.4906C34.4152 24.0593 33.9503 24.5242 33.3816 24.5242H24.5265C23.9578 24.5242 23.4929 24.0593 23.4929 23.4906V23.1109C23.4929 22.5423 23.9578 22.0774 24.5265 22.0774Z" fill="white"/>
<path d="M33.3817 22.5232H24.5265V21.6318H33.3817V22.5232ZM33.3817 21.6318C33.6265 21.6318 33.8253 21.8316 33.8253 22.0775C33.8253 22.3235 33.6265 22.5232 33.3817 22.5232V21.6318ZM34.8589 23.1111H33.9716L33.9707 23.0803L33.9687 23.0506L33.9649 23.0233L33.9594 22.9933L33.953 22.9646L33.9457 22.9393L33.9358 22.9108L33.9256 22.884L33.9143 22.8599L33.9003 22.8329L33.8864 22.8084L33.8713 22.7846L33.8547 22.7613L33.8375 22.7398L33.8184 22.7177L33.7986 22.6968L33.7779 22.6773L33.7558 22.6578L33.734 22.6407L33.7108 22.6244L33.6869 22.609L33.6622 22.595L33.6352 22.5808L33.6111 22.5697L33.5837 22.5593L33.5552 22.5494L33.5297 22.5421L33.5006 22.5354L33.4703 22.5299L33.4427 22.5261L33.4128 22.5241L33.3817 22.5232V21.6318L33.4564 21.6339L33.5311 21.6394L33.607 21.649L33.6779 21.6621L33.7489 21.6781L33.821 21.6987L33.8884 21.722L33.9553 21.7481L34.0224 21.7789L34.0844 21.8106L34.1463 21.8461L34.2062 21.8848L34.2643 21.9261L34.3204 21.9705L34.3734 22.0162L34.4248 22.0653L34.4737 22.1165L34.5196 22.1694L34.5641 22.2258L34.6051 22.284L34.644 22.3438L34.6795 22.4061L34.7115 22.468L34.742 22.5351L34.7685 22.6026L34.7917 22.67L34.8124 22.7424L34.8287 22.8137L34.8417 22.8849L34.8513 22.9611L34.8569 23.0361L34.8589 23.1111ZM34.8589 23.1111C34.8589 23.357 34.66 23.5568 34.4152 23.5568C34.1704 23.5568 33.9716 23.357 33.9716 23.1111H34.8589ZM33.9716 23.4908V23.1111H34.8589V23.4908H33.9716ZM34.8589 23.4908C34.8589 23.7367 34.66 23.9365 34.4152 23.9365C34.1704 23.9365 33.9716 23.7367 33.9716 23.4908H34.8589ZM33.3817 24.97V24.0786L33.4128 24.0778L33.4427 24.0757L33.4703 24.072L33.5006 24.0664L33.5297 24.0597L33.5552 24.0525L33.5837 24.0426L33.6111 24.0321L33.6352 24.0211L33.6622 24.0068L33.6869 23.9929L33.7108 23.9775L33.734 23.9612L33.7558 23.944L33.7779 23.9246L33.7986 23.9051L33.8184 23.8841L33.8375 23.862L33.8547 23.8405L33.8713 23.8173L33.8864 23.7934L33.9003 23.769L33.9143 23.742L33.9256 23.7178L33.9358 23.6911L33.9457 23.6626L33.953 23.6373L33.9594 23.6085L33.9649 23.5786L33.9687 23.5513L33.9707 23.5216L33.9716 23.4908H34.8589L34.8569 23.5658L34.8513 23.6408L34.8417 23.717L34.8287 23.7882L34.8124 23.8594L34.7917 23.9318L34.7685 23.9993L34.742 24.0667L34.7115 24.1339L34.6795 24.1958L34.644 24.258L34.6051 24.3179L34.5641 24.3761L34.5196 24.4325L34.4737 24.4854L34.4248 24.5365L34.3734 24.5857L34.3204 24.6313L34.2643 24.6758L34.2062 24.7171L34.1463 24.7558L34.0844 24.7912L34.0224 24.8229L33.9553 24.8537L33.8884 24.8799L33.821 24.9032L33.7489 24.9238L33.6779 24.9398L33.607 24.9529L33.5311 24.9625L33.4564 24.968L33.3817 24.97ZM33.3817 24.97C33.1369 24.97 32.938 24.7703 32.938 24.5243C32.938 24.2784 33.1369 24.0786 33.3817 24.0786V24.97ZM24.5265 24.0786H33.3817V24.97H24.5265V24.0786ZM24.5265 24.97C24.2817 24.97 24.0829 24.7703 24.0829 24.5243C24.0829 24.2784 24.2817 24.0786 24.5265 24.0786V24.97ZM23.0493 23.4908H23.9366L23.9375 23.5216L23.9395 23.5513L23.9433 23.5786L23.9488 23.6085L23.9552 23.6373L23.9625 23.6626L23.9724 23.6911L23.9826 23.7178L23.9939 23.742L24.0079 23.769L24.0218 23.7934L24.0369 23.8173L24.0535 23.8405L24.0707 23.862L24.0899 23.8841L24.1096 23.9051L24.1303 23.9246L24.1524 23.944L24.1742 23.9612L24.1974 23.9775L24.2213 23.9929L24.246 24.0068L24.273 24.0211L24.2971 24.0321L24.3245 24.0426L24.353 24.0525L24.3785 24.0597L24.4076 24.0664L24.4379 24.072L24.4655 24.0757L24.4954 24.0778L24.5265 24.0786V24.97L24.4518 24.968L24.3771 24.9625L24.3012 24.9529L24.2303 24.9398L24.1593 24.9238L24.0872 24.9032L24.0198 24.8799L23.9529 24.8537L23.8858 24.8229L23.8238 24.7912L23.7619 24.7558L23.702 24.7171L23.6439 24.6758L23.5878 24.6313L23.5348 24.5857L23.4834 24.5365L23.4345 24.4854L23.3886 24.4325L23.3441 24.3761L23.3031 24.3179L23.2642 24.258L23.2287 24.1958L23.1967 24.1339L23.1662 24.0667L23.1397 23.9993L23.1165 23.9318L23.0958 23.8594L23.0796 23.7882L23.0665 23.717L23.0569 23.6408L23.0513 23.5658L23.0493 23.4908ZM23.0493 23.4908C23.0493 23.2448 23.2482 23.0451 23.493 23.0451C23.7378 23.0451 23.9366 23.2448 23.9366 23.4908H23.0493ZM23.9366 23.1111V23.4908H23.0493V23.1111H23.9366ZM23.0493 23.1111C23.0493 22.8651 23.2482 22.6654 23.493 22.6654C23.7378 22.6654 23.9366 22.8651 23.9366 23.1111H23.0493ZM24.5265 21.6318V22.5232L24.4954 22.5241L24.4655 22.5261L24.4379 22.5299L24.4076 22.5354L24.3785 22.5421L24.353 22.5494L24.3245 22.5593L24.2971 22.5697L24.273 22.5808L24.246 22.595L24.2213 22.609L24.1974 22.6244L24.1742 22.6407L24.1524 22.6578L24.1303 22.6773L24.1096 22.6968L24.0899 22.7177L24.0707 22.7398L24.0535 22.7613L24.0369 22.7846L24.0218 22.8084L24.0079 22.8329L23.9939 22.8599L23.9826 22.884L23.9724 22.9108L23.9625 22.9393L23.9552 22.9646L23.9488 22.9933L23.9433 23.0233L23.9395 23.0506L23.9375 23.0803L23.9366 23.1111H23.0493L23.0513 23.0361L23.0569 22.9611L23.0665 22.8849L23.0796 22.8137L23.0958 22.7424L23.1165 22.67L23.1397 22.6026L23.1662 22.5351L23.1967 22.468L23.2287 22.4061L23.2642 22.3438L23.3031 22.284L23.3441 22.2258L23.3886 22.1694L23.4345 22.1165L23.4834 22.0653L23.5348 22.0162L23.5878 21.9705L23.6439 21.9261L23.702 21.8848L23.7619 21.8461L23.8238 21.8106L23.8858 21.7789L23.9529 21.7481L24.0198 21.722L24.0872 21.6987L24.1593 21.6781L24.2303 21.6621L24.3012 21.649L24.3771 21.6394L24.4518 21.6339L24.5265 21.6318ZM24.5265 21.6318C24.7713 21.6318 24.9702 21.8316 24.9702 22.0775C24.9702 22.3235 24.7713 22.5232 24.5265 22.5232V21.6318Z" fill="#AAABA6"/>
</svg>
