<svg width="40" height="40" viewBox="0 0 40 40" fill="none" xmlns="http://www.w3.org/2000/svg">
<path d="M17.6188 6.4928H5.4505V33.5065H17.6188V6.4928Z" fill="white" stroke="#4D5C6B" stroke-width="1.07981" stroke-miterlimit="22.9256" stroke-linecap="round" stroke-linejoin="round"/>
<path d="M34.3086 7.70923H20.7145V24.8808H34.3086V7.70923Z" fill="white" stroke="#E94D11" stroke-width="1.07981" stroke-miterlimit="22.9256" stroke-linecap="round" stroke-linejoin="round"/>
<path fill-rule="evenodd" clip-rule="evenodd" d="M7.09949 8.21423H16.0756V33.5065H7.09949V8.21423Z" fill="white"/>
<path d="M16.0756 8.63051H7.09949V7.79785H16.0756L16.4907 8.21418L16.0756 8.63051ZM16.0756 7.79785C16.3047 7.79785 16.4907 7.9845 16.4907 8.21418C16.4907 8.44386 16.3047 8.63051 16.0756 8.63051V7.79785ZM15.6604 33.5065V8.21418H16.4907V33.5065L16.0756 33.9228L15.6604 33.5065ZM16.4907 33.5065C16.4907 33.7362 16.3047 33.9228 16.0756 33.9228C15.8465 33.9228 15.6604 33.7362 15.6604 33.5065H16.4907ZM7.09949 33.0902H16.0756V33.9228H7.09949L6.68433 33.5065L7.09949 33.0902ZM7.09949 33.9228C6.8704 33.9228 6.68433 33.7362 6.68433 33.5065C6.68433 33.2768 6.8704 33.0902 7.09949 33.0902V33.9228ZM7.51466 8.21418V33.5065H6.68433V8.21418L7.09949 7.79785L7.51466 8.21418ZM6.68433 8.21418C6.68433 7.9845 6.8704 7.79785 7.09949 7.79785C7.32859 7.79785 7.51466 7.9845 7.51466 8.21418H6.68433Z" fill="#AAABA6"/>
<path d="M9.06282 21.6103C9.42972 21.6103 9.72715 21.3128 9.72715 20.9459C9.72715 20.579 9.42972 20.2816 9.06282 20.2816C8.69593 20.2816 8.3985 20.579 8.3985 20.9459C8.3985 21.3128 8.69593 21.6103 9.06282 21.6103Z" fill="white" stroke="#E94D11" stroke-width="0.809575" stroke-miterlimit="22.9256" stroke-linecap="round" stroke-linejoin="round"/>
<path fill-rule="evenodd" clip-rule="evenodd" d="M28.2526 9.01086H32.9959V23.7054H28.2526V9.01086Z" fill="white"/>
<path d="M32.9959 9.32221H28.2526V8.69946H32.9959L33.3064 9.01084L32.9959 9.32221ZM32.9959 8.69946C33.1672 8.69946 33.3064 8.83902 33.3064 9.01084C33.3064 9.18266 33.1672 9.32221 32.9959 9.32221V8.69946ZM32.6854 23.7053V9.01084H33.3064V23.7053L32.9959 24.0167L32.6854 23.7053ZM33.3064 23.7053C33.3064 23.8772 33.1672 24.0167 32.9959 24.0167C32.8247 24.0167 32.6854 23.8772 32.6854 23.7053H33.3064ZM28.2526 23.394H32.9959V24.0167H28.2526L27.9421 23.7053L28.2526 23.394ZM28.2526 24.0167C28.0814 24.0167 27.9421 23.8772 27.9421 23.7053C27.9421 23.5335 28.0814 23.394 28.2526 23.394V24.0167ZM28.5631 9.01084V23.7053H27.9421V9.01084L28.2526 8.69946L28.5631 9.01084ZM27.9421 9.01084C27.9421 8.83902 28.0814 8.69946 28.2526 8.69946C28.4239 8.69946 28.5631 8.83902 28.5631 9.01084H27.9421Z" fill="#FFBD16"/>
<path fill-rule="evenodd" clip-rule="evenodd" d="M22.1755 9.01086H26.9188V23.7054H22.1755V9.01086Z" fill="white"/>
<path d="M26.9188 9.32221H22.1755V8.69946H26.9188L27.2293 9.01084L26.9188 9.32221ZM26.9188 8.69946C27.09 8.69946 27.2293 8.83902 27.2293 9.01084C27.2293 9.18266 27.09 9.32221 26.9188 9.32221V8.69946ZM26.6083 23.7053V9.01084H27.2293V23.7053L26.9188 24.0167L26.6083 23.7053ZM27.2293 23.7053C27.2293 23.8772 27.09 24.0167 26.9188 24.0167C26.7476 24.0167 26.6083 23.8772 26.6083 23.7053H27.2293ZM22.1755 23.394H26.9188V24.0167H22.1755L21.865 23.7053L22.1755 23.394ZM22.1755 24.0167C22.0042 24.0167 21.865 23.8772 21.865 23.7053C21.865 23.5335 22.0042 23.394 22.1755 23.394V24.0167ZM22.486 9.01084V23.7053H21.865V9.01084L22.1755 8.69946L22.486 9.01084ZM21.865 9.01084C21.865 8.83902 22.0042 8.69946 22.1755 8.69946C22.3467 8.69946 22.486 8.83902 22.486 9.01084H21.865Z" fill="#FFBD16"/>
<path d="M3.85028 33.5051H36.149" stroke="#4D5C6B" stroke-width="1.07981" stroke-miterlimit="22.9256" stroke-linecap="round" stroke-linejoin="round"/>
</svg>
