<svg width="40" height="40" viewBox="0 0 40 40" fill="none" xmlns="http://www.w3.org/2000/svg">
<path fill-rule="evenodd" clip-rule="evenodd" d="M28.6148 31.031C28.6264 31.7852 29.6568 31.7218 29.687 31.0078L29.6716 11.5548L28.6104 11.5432L28.6148 31.031Z" fill="white"/>
<path d="M29.2564 31.008L30.1176 31.0075L30.117 31.0258L30.108 31.1293L30.0897 31.2299L30.0617 31.3281L30.0251 31.4206L29.9806 31.5078L29.9277 31.5892L29.869 31.6631L29.8033 31.7308L29.7332 31.7901L29.6597 31.8422L29.5817 31.8866L29.5018 31.9239L29.4178 31.9541L29.3332 31.9762L29.2489 31.9904L29.1619 31.998L29.0741 31.9977L28.9881 31.9898L28.8997 31.9739L28.8139 31.9494L28.7299 31.9169L28.6459 31.8741L28.5671 31.8227L28.4941 31.7634L28.4258 31.695L28.3639 31.6171L28.3104 31.5325L28.2665 31.4424L28.2316 31.3467L28.2063 31.2464L28.1906 31.1432L28.1842 31.0377L29.0453 31.0243L29.0471 31.0554L29.0506 31.0796L29.0549 31.0967L29.0596 31.1092L29.064 31.1179L29.0669 31.1229L29.0695 31.1258L29.0721 31.1284L29.0759 31.1313L29.0791 31.1333L29.0817 31.1348L29.0884 31.1371L29.0962 31.1395L29.1038 31.1409L29.1154 31.1418L29.1259 31.1421L29.1372 31.1409L29.1512 31.1383L29.1631 31.1354L29.1733 31.1319L29.1846 31.1267L29.1951 31.1206L29.2047 31.1139L29.2137 31.1063L29.2207 31.099L29.2276 31.0903L29.234 31.0804L29.2401 31.0688L29.2459 31.0543L29.2506 31.038L29.2544 31.0165L29.257 30.9897L29.2564 31.008ZM29.257 30.9897C29.2669 30.7537 29.4678 30.5699 29.705 30.5798C29.9423 30.5897 30.1269 30.7897 30.117 31.0258L29.257 30.9897ZM30.1022 11.5545L30.1176 31.0075L29.2564 31.008L29.241 11.5551L29.6762 11.1263L30.1022 11.5545ZM29.241 11.5551C29.241 11.3184 29.4338 11.1263 29.6713 11.1263C29.9088 11.1263 30.1022 11.3179 30.1022 11.5545L29.241 11.5551ZM28.6151 11.1146L29.6762 11.1263L29.6669 11.9834L28.6058 11.9717L28.1798 11.5432L28.6151 11.1146ZM28.6058 11.9717C28.3682 11.9694 28.1775 11.7752 28.1798 11.5385C28.1822 11.3019 28.3775 11.1123 28.6151 11.1146L28.6058 11.9717ZM28.1842 31.031L28.1798 11.5432H29.041L29.0453 31.031L28.1842 31.0377V31.031ZM29.0453 31.031C29.0453 31.2677 28.8523 31.4596 28.6148 31.4596C28.3772 31.4596 28.1842 31.2677 28.1842 31.031H29.0453Z" fill="#E94D11"/>
<path fill-rule="evenodd" clip-rule="evenodd" d="M22.1084 10.355L28.7028 10.368L28.6103 11.6115L29.6715 11.5996L29.5642 10.4047L30.7542 10.3669L32.6213 10.3663L34.5183 10.3654L35.9877 10.368L35.6885 7.76627H35.2222L34.9393 9.20627L33.895 9.22458L33.5848 7.76568H33.0978L32.7946 9.22662L31.7805 9.24028L31.484 7.76539L31.0025 7.76568L30.6527 9.24493L29.6305 9.22109L29.3171 7.76394L28.8188 7.76539L28.5385 9.22981L27.5216 9.23854L27.2128 7.76598L26.7008 7.76714L26.3891 9.23737L25.3777 9.23505L25.0634 7.7651L24.5648 7.76336L24.2746 9.22545L23.2257 9.22226L23.0068 7.76074L22.3459 7.76394L22.1084 10.355Z" fill="white"/>
<path d="M28.702 10.7965L22.1075 10.7835L22.1093 9.92638L28.7037 9.93946L29.1322 10.3997L28.702 10.7965ZM28.7037 9.93946C28.9412 9.93976 29.1337 10.1322 29.1334 10.3689C29.1331 10.6055 28.9395 10.7968 28.702 10.7965L28.7037 9.93946ZM28.181 11.5798L28.2734 10.3363L29.1322 10.3997L29.0398 11.6432L28.6153 12.04L28.181 11.5798ZM29.0398 11.6432C29.0223 11.8789 28.8156 12.0563 28.5787 12.0388C28.3417 12.0214 28.1635 11.8156 28.181 11.5798L29.0398 11.6432ZM29.6765 12.0281L28.6153 12.04L28.6054 11.1829L29.6666 11.171L30.1004 11.5615L29.6765 12.0281ZM29.6666 11.171C29.9041 11.1684 30.0995 11.358 30.1021 11.5946C30.1047 11.8313 29.914 12.0255 29.6765 12.0281L29.6666 11.171ZM29.9931 10.3666L30.1004 11.5615L29.2427 11.6376L29.1354 10.4427L29.5506 9.97639L29.9931 10.3666ZM29.1354 10.4427C29.1145 10.2072 29.2892 9.99877 29.5259 9.97784C29.7625 9.95691 29.9722 10.1311 29.9931 10.3666L29.1354 10.4427ZM30.7679 10.7951L29.5779 10.8329L29.5506 9.97639L30.7406 9.93859L30.7542 9.9383L30.7679 10.7951ZM30.7406 9.93859C30.9781 9.93132 31.1773 10.1168 31.1845 10.3532C31.1918 10.5895 31.0054 10.7878 30.7679 10.7951L30.7406 9.93859ZM32.6213 10.7948L30.7542 10.7954V9.9383L32.6213 9.93772L32.6216 10.7948H32.6213ZM32.6213 9.93772C32.8589 9.93772 33.0519 10.1296 33.0519 10.3663C33.0519 10.6029 32.8589 10.7948 32.6213 10.7948V9.93772ZM34.5186 10.7939L32.6216 10.7948L32.621 9.93772L34.5181 9.93685H34.5192L34.5186 10.7939ZM34.5181 9.93685C34.7556 9.93685 34.9489 10.1284 34.9489 10.3651C34.9489 10.6018 34.7562 10.7939 34.5186 10.7939L34.5181 9.93685ZM35.9868 10.7965L34.5175 10.7939L34.5192 9.93685L35.9886 9.93946L36.4154 10.3192L35.9868 10.7965ZM35.9886 9.93946C36.2261 9.93976 36.4186 10.1322 36.4183 10.3689C36.418 10.6055 36.2244 10.7968 35.9868 10.7965L35.9886 9.93946ZM36.1162 7.71739L36.4154 10.3192L35.56 10.4168L35.2609 7.81508L35.6886 7.33769L36.1162 7.71739ZM35.2609 7.81508C35.2341 7.58017 35.4036 7.36735 35.6397 7.3406C35.8758 7.31386 36.0895 7.48248 36.1162 7.71739L35.2609 7.81508ZM35.2222 7.33769H35.6886V8.19478H35.2222L34.7998 7.68396L35.2222 7.33769ZM35.2222 8.19478C34.9847 8.19478 34.7916 8.00289 34.7916 7.76624C34.7916 7.52958 34.9847 7.33769 35.2222 7.33769V8.19478ZM34.5169 9.12396L34.7998 7.68396L35.6447 7.84851L35.3618 9.28851L34.9469 9.63478L34.5169 9.12396ZM35.3618 9.28851C35.3164 9.52052 35.0899 9.67199 34.8568 9.62664C34.6236 9.58128 34.4715 9.35596 34.5169 9.12396L35.3618 9.28851ZM33.8875 8.79601L34.9318 8.7777L34.9469 9.63478L33.9026 9.65309L33.4737 9.31322L33.8875 8.79601ZM33.9026 9.65309C33.6651 9.65716 33.4685 9.46877 33.4644 9.23211C33.4604 8.99545 33.6499 8.80008 33.8875 8.79601L33.9026 9.65309ZM34.0061 7.67698L34.3163 9.13588L33.4737 9.31322L33.1635 7.85433L33.5848 7.33711L34.0061 7.67698ZM33.1635 7.85433C33.1144 7.6229 33.263 7.39526 33.4956 7.34642C33.7281 7.29757 33.9569 7.44556 34.0061 7.67698L33.1635 7.85433ZM33.0978 7.33711H33.5848V8.19419H33.0978L32.6763 7.67902L33.0978 7.33711ZM33.0978 8.19419C32.8603 8.19419 32.6673 8.00231 32.6673 7.76565C32.6673 7.529 32.8603 7.33711 33.0978 7.33711V8.19419ZM32.373 9.13995L32.6763 7.67902L33.5194 7.85229L33.2162 9.31322L32.8004 9.65513L32.373 9.13995ZM33.2162 9.31322C33.1682 9.54465 32.94 9.69379 32.7074 9.64611C32.4748 9.59843 32.3251 9.37137 32.373 9.13995L33.2162 9.31322ZM31.7747 8.81171L32.7888 8.79805L32.8004 9.65513L31.7863 9.66879L31.3584 9.32427L31.7747 8.81171ZM31.7863 9.66879C31.5488 9.67199 31.3531 9.48272 31.3499 9.24607C31.3467 9.00941 31.5372 8.81491 31.7747 8.81171L31.7863 9.66879ZM31.9061 7.68134L32.2027 9.15623L31.3584 9.32427L31.0618 7.84939L31.4837 7.33682L31.9061 7.68134ZM31.0618 7.84939C31.0153 7.61738 31.1665 7.39148 31.3994 7.34525C31.6322 7.29903 31.8596 7.44934 31.9061 7.68134L31.0618 7.84939ZM31.0022 7.33711L31.4837 7.33682L31.4843 8.1939L31.0028 8.19419L30.5836 7.66739L31.0022 7.33711ZM31.0028 8.19419C30.7653 8.19419 30.5719 8.0026 30.5719 7.76595C30.5719 7.52929 30.7647 7.33711 31.0022 7.33711L31.0028 8.19419ZM30.2338 9.14664L30.5836 7.66739L31.4215 7.86392L31.0717 9.34317L30.6426 9.67315L30.2338 9.14664ZM31.0717 9.34317C31.0173 9.57343 30.7853 9.71618 30.5542 9.6621C30.3231 9.60803 30.1795 9.3769 30.2338 9.14664L31.0717 9.34317ZM29.6407 8.79281L30.6629 8.81665L30.6426 9.67315L29.6204 9.64931L29.2096 9.31061L29.6407 8.79281ZM29.6204 9.64931C29.3828 9.64379 29.1947 9.44725 29.2003 9.21089C29.2058 8.97452 29.4032 8.78729 29.6407 8.79281L29.6204 9.64931ZM29.7381 7.67436L30.0515 9.13152L29.2096 9.31061L28.8962 7.85346L29.316 7.33537L29.7381 7.67436ZM28.8962 7.85346C28.8464 7.62232 28.9947 7.39439 29.227 7.34496C29.4593 7.29554 29.6884 7.44323 29.7381 7.67436L28.8962 7.85346ZM28.8177 7.33682L29.316 7.33537L29.3183 8.19245L28.82 8.1939L28.3958 7.68512L28.8177 7.33682ZM28.82 8.1939C28.5825 8.19448 28.3888 8.00318 28.3883 7.76653C28.3877 7.52987 28.5801 7.3374 28.8177 7.33682L28.82 8.1939ZM28.1155 9.14954L28.3958 7.68512L29.2418 7.84561L28.9616 9.31003L28.5423 9.65832L28.1155 9.14954ZM28.9616 9.31003C28.9174 9.54232 28.6915 9.69496 28.458 9.65077C28.2246 9.60658 28.0714 9.38184 28.1155 9.14954L28.9616 9.31003ZM27.5178 8.80997L28.5348 8.80124L28.5423 9.65832L27.5254 9.66705L27.1 9.32602L27.5178 8.80997ZM27.5254 9.66705C27.2878 9.66908 27.093 9.47894 27.091 9.24229C27.089 9.00563 27.2803 8.812 27.5178 8.80997L27.5254 9.66705ZM27.6344 7.67843L27.9431 9.151L27.1 9.32602L26.7913 7.85346L27.2119 7.33741L27.6344 7.67843ZM26.7913 7.85346C26.743 7.62203 26.8924 7.39468 27.125 7.34642C27.3576 7.29816 27.5861 7.44701 27.6344 7.67843L26.7913 7.85346ZM26.7 7.33857L27.2119 7.33741L27.2137 8.19449L26.7017 8.19565L26.2796 7.67873L26.7 7.33857ZM26.7017 8.19565C26.4642 8.19594 26.2706 8.00464 26.2703 7.76798C26.27 7.53132 26.4624 7.33886 26.7 7.33857L26.7017 8.19565ZM25.9679 9.14896L26.2796 7.67873L27.1221 7.85549L26.8104 9.32573L26.3883 9.66588L25.9679 9.14896ZM26.8104 9.32573C26.7616 9.55715 26.5328 9.70513 26.3002 9.65658C26.0676 9.60803 25.9191 9.38039 25.9679 9.14896L26.8104 9.32573ZM25.3786 8.80648L26.39 8.8088L26.3883 9.66588L25.3768 9.66356L24.9567 9.32427L25.3786 8.80648ZM25.3768 9.66356C25.1393 9.66327 24.9468 9.4708 24.9471 9.23415C24.9474 8.99749 25.1411 8.80619 25.3786 8.80648L25.3768 9.66356ZM25.4844 7.67582L25.7987 9.14576L24.9567 9.32427L24.6424 7.85433L25.0649 7.33653L25.4844 7.67582ZM24.6424 7.85433C24.593 7.62319 24.7416 7.39526 24.9739 7.34613C25.2062 7.29699 25.435 7.44468 25.4844 7.67582L24.6424 7.85433ZM24.5663 7.33479L25.0649 7.33653L25.062 8.19361L24.5634 8.19187L24.1424 7.68018L24.5663 7.33479ZM24.5634 8.19187C24.3258 8.19129 24.1337 7.99853 24.1342 7.76187C24.1348 7.52522 24.3287 7.33421 24.5663 7.33479L24.5634 8.19187ZM23.8522 9.14227L24.1424 7.68018L24.9873 7.84648L24.6971 9.30857L24.2732 9.65396L23.8522 9.14227ZM24.6971 9.30857C24.6512 9.54058 24.4244 9.69147 24.1912 9.64582C23.9581 9.60018 23.8063 9.37428 23.8522 9.14227L24.6971 9.30857ZM23.2272 8.79369L24.2761 8.79688L24.2732 9.65396L23.2243 9.65077L22.7998 9.28532L23.2272 8.79369ZM23.2243 9.65077C22.9867 9.65019 22.7946 9.45743 22.7951 9.22077C22.7957 8.98412 22.9896 8.7931 23.2272 8.79369L23.2243 9.65077ZM23.4327 7.69762L23.6516 9.15914L22.7998 9.28532L22.5809 7.8238L23.0047 7.33217L23.4327 7.69762ZM22.5809 7.8238C22.546 7.58976 22.7082 7.37142 22.9434 7.33682C23.1786 7.30223 23.3978 7.46358 23.4327 7.69762L22.5809 7.8238ZM22.3439 7.33537L23.0047 7.33217L23.0088 8.18925L22.348 8.19245L21.9171 7.72495L22.3439 7.33537ZM22.348 8.19245C22.1105 8.19332 21.9162 8.0026 21.9154 7.76595C21.9145 7.52929 22.1064 7.33624 22.3439 7.33537L22.348 8.19245ZM21.6796 10.316L21.9171 7.72495L22.7748 7.80287L22.5373 10.3939L22.1075 10.7835L21.6796 10.316ZM22.5373 10.3939C22.5157 10.6294 22.3058 10.8032 22.0692 10.7817C21.8325 10.7602 21.6581 10.5515 21.6796 10.316L22.5373 10.3939Z" fill="#AAABA6"/>
<path fill-rule="evenodd" clip-rule="evenodd" d="M6.10882 7.75195C4.27633 10.1575 7.50317 11.7199 7.68255 12.5947L7.68285 24.6386C7.68285 25.3692 7.60028 26.5464 8.28495 26.9828C8.89985 26.3911 8.84287 25.4922 8.81031 24.5299L8.8135 12.5976C9.22838 11.8745 10.202 11.1971 10.6512 10.2857C11.0774 9.42047 10.9626 8.59944 10.384 7.75195H6.10882ZM6.71034 9.05793L9.72146 9.05444C9.63221 10.3002 8.72163 10.7541 8.22128 11.0253C7.75727 10.7567 6.75948 10.1275 6.71034 9.05793Z" fill="white" stroke="#E94D11" stroke-width="1.11912" stroke-miterlimit="22.9256" stroke-linecap="round" stroke-linejoin="round"/>
<path fill-rule="evenodd" clip-rule="evenodd" d="M15.8638 21.0399H24.4261V22.7788H15.8638V21.0399Z" fill="white"/>
<path d="M24.4261 21.3412H15.8638V20.7388H24.4261L24.7262 21.04L24.4261 21.3412ZM24.4261 20.7388C24.5916 20.7388 24.7262 20.8737 24.7262 21.04C24.7262 21.2063 24.5916 21.3412 24.4261 21.3412V20.7388ZM24.1261 22.7788V21.04H24.7262V22.7788L24.4261 23.08L24.1261 22.7788ZM24.7262 22.7788C24.7262 22.9451 24.5916 23.08 24.4261 23.08C24.2607 23.08 24.1261 22.9451 24.1261 22.7788H24.7262ZM15.8638 22.4776H24.4261V23.08H15.8638L15.5637 22.7788L15.8638 22.4776ZM15.8638 23.08C15.6983 23.08 15.5637 22.9451 15.5637 22.7788C15.5637 22.6125 15.6983 22.4776 15.8638 22.4776V23.08ZM16.1638 21.04V22.7788H15.5637V21.04L15.8638 20.7388L16.1638 21.04ZM15.5637 21.04C15.5637 20.8737 15.6983 20.7388 15.8638 20.7388C16.0292 20.7388 16.1638 20.8737 16.1638 21.04H15.5637Z" fill="#E94D11"/>
<path fill-rule="evenodd" clip-rule="evenodd" d="M15.3873 27.7986H24.903V29.5378H15.3873V27.7986Z" fill="white"/>
<path d="M24.903 28.0998H15.3873V27.4974H24.903L25.2036 27.7986L24.903 28.0998ZM24.903 27.4974C25.069 27.4974 25.2036 27.6323 25.2036 27.7986C25.2036 27.9649 25.069 28.0998 24.903 28.0998V27.4974ZM24.6024 29.5378V27.7986H25.2036V29.5378L24.903 29.839L24.6024 29.5378ZM25.2036 29.5378C25.2036 29.7041 25.069 29.839 24.903 29.839C24.737 29.839 24.6024 29.7041 24.6024 29.5378H25.2036ZM15.3873 29.2366H24.903V29.839H15.3873L15.0867 29.5378L15.3873 29.2366ZM15.3873 29.839C15.2213 29.839 15.0867 29.7041 15.0867 29.5378C15.0867 29.3715 15.2213 29.2366 15.3873 29.2366V29.839ZM15.6879 27.7986V29.5378H15.0867V27.7986L15.3873 27.4974L15.6879 27.7986ZM15.0867 27.7986C15.0867 27.6323 15.2213 27.4974 15.3873 27.4974C15.5533 27.4974 15.6879 27.6323 15.6879 27.7986H15.0867Z" fill="#E94D11"/>
<path fill-rule="evenodd" clip-rule="evenodd" d="M16.6799 31.2828H13.8607L13.8822 18.6071L15.2704 17.2189L16.6587 18.6071L16.6799 31.2828Z" fill="white" stroke="#FFBD16" stroke-width="1.11912" stroke-miterlimit="22.9256" stroke-linecap="round" stroke-linejoin="round"/>
<path fill-rule="evenodd" clip-rule="evenodd" d="M26.4322 31.2828H23.613L23.6345 18.6071L25.0227 17.2189L26.411 18.6071L26.4322 31.2828Z" fill="white" stroke="#FFBD16" stroke-width="1.11912" stroke-miterlimit="22.9256" stroke-linecap="round" stroke-linejoin="round"/>
<path fill-rule="evenodd" clip-rule="evenodd" d="M21.5529 31.2828H18.7333L18.7549 18.6071L20.1431 17.2189L21.5314 18.6071L21.5529 31.2828Z" fill="white" stroke="#FFBD16" stroke-width="1.11912" stroke-miterlimit="22.9256" stroke-linecap="round" stroke-linejoin="round"/>
<path fill-rule="evenodd" clip-rule="evenodd" d="M12.38 24.4523L9.87296 24.4537C9.84563 25.68 9.94274 27.3829 8.21957 27.8544C6.2923 27.3003 6.68566 25.5806 6.56471 24.4569L4.01499 24.4485C3.93533 27.3642 5.61314 32.1811 8.17218 32.2465C8.24864 32.2486 8.32539 32.2462 8.40331 32.2395C11.7694 31.9514 12.1154 26.3903 12.38 24.4523Z" fill="white"/>
<path d="M9.87265 24.1086L12.3796 24.1072L12.3802 24.7974L9.87324 24.7988L9.44063 24.4476L9.87265 24.1086ZM9.87324 24.7988C9.63454 24.7988 9.44063 24.6444 9.44063 24.454C9.44063 24.2636 9.63396 24.1086 9.87265 24.1086L9.87324 24.7988ZM8.07302 28.1792L8.36608 27.5297L8.07941 27.5279L8.20734 27.489L8.32363 27.4454L8.4312 27.3968L8.53034 27.3439L8.62192 27.2863L8.70653 27.2247L8.78444 27.1584L8.85712 27.0875L8.92428 27.0119L8.9865 26.9314L9.04378 26.8462L9.09669 26.756L9.14466 26.6618L9.18827 26.5636L9.22752 26.4609L9.26241 26.3554L9.29293 26.2461L9.31997 26.1336L9.34323 26.0187L9.363 25.9019L9.37986 25.783L9.39353 25.6626L9.40458 25.5408L9.41359 25.4181L9.42057 25.2954L9.4258 25.1724L9.42987 25.0494L9.43249 24.9273L9.43655 24.6843L9.44063 24.4476L10.3053 24.4598L10.3012 24.6936L10.2971 24.9378L10.2939 25.0646L10.2899 25.1928L10.2846 25.3227L10.2771 25.4541L10.2675 25.5861L10.2553 25.719L10.2399 25.8527L10.2212 25.9868L10.1986 26.1205L10.1712 26.2539L10.1395 26.3868L10.102 26.5188L10.059 26.6499L10.0093 26.7793L9.9529 26.9072L9.88865 27.0328L9.81654 27.1561L9.73543 27.2762L9.6453 27.3927L9.545 27.5056L9.43452 27.6137L9.31299 27.7166L9.18071 27.8131L9.03796 27.9027L8.88416 27.9847L8.72019 28.0588L8.54459 28.1245L8.35968 28.1809L8.07302 28.1792ZM8.35968 28.1809C8.13407 28.2426 7.88811 28.1466 7.81078 27.9664C7.73344 27.7861 7.85381 27.5896 8.07941 27.5279L8.35968 28.1809ZM6.56295 24.802L6.56644 24.1118L6.99527 24.4273L7.00603 24.5418L7.01388 24.6584L7.0194 24.7759L7.02347 24.8951L7.02958 25.1335L7.03539 25.3759L7.03975 25.4957L7.04557 25.6152L7.05371 25.7338L7.06418 25.8516L7.07755 25.9676L7.09412 26.0818L7.11447 26.1935L7.13889 26.3025L7.16738 26.4083L7.20082 26.511L7.2392 26.6095L7.28281 26.7049L7.33165 26.7959L7.38602 26.8828L7.4462 26.9648L7.51336 27.0433L7.5872 27.1177L7.66803 27.1881L7.75728 27.2546L7.85613 27.3174L7.96516 27.3765L8.08581 27.432L8.21926 27.4832L8.36608 27.5297L8.07302 28.1792L7.87212 28.1152L7.68344 28.0425L7.50754 27.962L7.34386 27.8733L7.19326 27.7774L7.05516 27.6748L6.92957 27.566L6.81676 27.4521L6.71588 27.334L6.62604 27.2119L6.54725 27.0866L6.47922 26.9596L6.41991 26.8305L6.36932 26.6999L6.32659 26.5682L6.29054 26.4362L6.26088 26.3034L6.23704 26.1714L6.21756 26.0391L6.20244 25.9074L6.19081 25.7769L6.18209 25.6472L6.1757 25.519L6.17133 25.3916L6.16494 25.1468L6.15941 24.9108L6.15534 24.7985L6.1504 24.6898L6.14313 24.586L6.13412 24.4866L6.56295 24.802ZM6.13412 24.4866C6.11377 24.2967 6.29024 24.1293 6.52777 24.113C6.7653 24.0967 6.97492 24.2374 6.99527 24.4273L6.13412 24.4866ZM4.01671 24.1034L6.56644 24.1118L6.56295 24.802L4.01322 24.7936L3.58294 24.4409L4.01671 24.1034ZM4.01322 24.7936C3.77453 24.793 3.58178 24.6375 3.58265 24.447C3.58352 24.2566 3.77802 24.1028 4.01671 24.1034L4.01322 24.7936ZM8.18669 31.9017L8.15762 32.5913H8.1582L7.85962 32.5666L7.57005 32.5085L7.2924 32.4207L7.02812 32.3058L6.77751 32.1672L6.53911 32.007L6.31205 31.8264L6.09662 31.6281L5.89107 31.4136L5.69453 31.183L5.5073 30.9382L5.3285 30.6801L5.15842 30.4094L4.99677 30.128L4.84385 29.8364L4.69848 29.5363L4.56184 29.2279L4.43362 28.9127L4.31355 28.592L4.20249 28.2673L4.09986 27.939L4.00596 27.6091L3.92077 27.2776L3.84518 26.9465L3.77831 26.6168L3.72104 26.2894L3.67336 25.9658L3.63498 25.6469L3.60678 25.3338L3.58846 25.0276L3.58032 24.7299L3.58294 24.4409L4.447 24.4561L4.44496 24.7247L4.45252 25.0038L4.46968 25.2925L4.49671 25.5893L4.53276 25.8926L4.5787 26.201L4.63307 26.5139L4.69703 26.829L4.76971 27.1462L4.85083 27.4631L4.94066 27.7791L5.03864 28.0928L5.14505 28.4025L5.25872 28.7074L5.38054 29.0057L5.50963 29.2968L5.64569 29.5788L5.78873 29.8506L5.93817 30.1111L6.09371 30.3585L6.25506 30.5917L6.42137 30.8092L6.59232 31.01L6.76705 31.1926L6.94468 31.356L7.12348 31.4982L7.30374 31.6194L7.48283 31.7186L7.66047 31.7962L7.83578 31.852L8.01022 31.8869L8.18611 31.9017H8.18669ZM8.18611 31.9017C8.42452 31.9075 8.61175 32.0672 8.60419 32.2576C8.59663 32.448 8.3966 32.5972 8.1582 32.5913L8.18611 31.9017ZM8.35735 31.8965L8.44923 32.5826H8.44952L8.43178 32.5841L8.41201 32.5855L8.39195 32.587L8.37742 32.5879L8.36288 32.5887L8.34311 32.5899L8.31782 32.5908L8.30357 32.5911L8.28903 32.5916L8.26374 32.5922H8.24397H8.22943H8.21519H8.19542L8.17536 32.5919L8.15762 32.5913L8.18669 31.9017H8.19745L8.20646 31.902H8.21519H8.22943H8.24397H8.25269H8.25647L8.27101 31.9014L8.28525 31.9011L8.28903 31.9009L8.29834 31.9003L8.31287 31.8994L8.32741 31.8985L8.33642 31.8982L8.34573 31.8974L8.35707 31.8965H8.35735ZM8.35707 31.8965C8.5943 31.8761 8.8077 32.0134 8.83299 32.2026C8.85829 32.3919 8.68676 32.5623 8.44952 32.5826L8.35707 31.8965ZM12.3802 24.7974L12.3796 24.1072L12.8096 24.4898L12.7849 24.6793L12.7591 24.8895L12.7311 25.1186L12.7015 25.3652L12.6686 25.6271L12.6329 25.9025L12.5933 26.19L12.5494 26.488L12.5006 26.7947L12.4459 27.1087L12.386 27.4276L12.3189 27.7509L12.2447 28.0766L12.1628 28.4028L12.0726 28.7281L11.9729 29.0514L11.8642 29.37L11.745 29.684L11.6141 29.991L11.4717 30.2893L11.3164 30.5783L11.1472 30.8554L10.9638 31.1197L10.7635 31.3694L10.5463 31.6031L10.3099 31.8186L10.0535 32.0137L9.77526 32.1858L9.47522 32.3317L9.15338 32.4486L8.81032 32.5332L8.44923 32.5826L8.35735 31.8965L8.60971 31.8616L8.84637 31.8032L9.07052 31.7218L9.2845 31.6177L9.48889 31.4909L9.68542 31.3412L9.87295 31.1699L10.0517 30.9781L10.2207 30.7667L10.3803 30.5367L10.5303 30.2911L10.6704 30.0306L10.8007 29.7573L10.9216 29.4729L11.0333 29.1793L11.1362 28.8781L11.2307 28.5711L11.3167 28.2603L11.3958 27.9469L11.467 27.6329L11.5319 27.3201L11.5906 27.0099L11.6435 26.704L11.6912 26.4043L11.7345 26.1121L11.7735 25.8292L11.8086 25.5574L11.8409 25.2977L11.8706 25.0523L11.8985 24.8221L11.9249 24.6096L11.9502 24.4148L12.3802 24.7974ZM11.9502 24.4148C11.9758 24.2255 12.1895 24.0886 12.4267 24.1092C12.664 24.1299 12.8352 24.3005 12.8096 24.4898L11.9502 24.4148Z" fill="#E94D11"/>
</svg>
