<svg width="40" height="40" viewBox="0 0 40 40" fill="none" xmlns="http://www.w3.org/2000/svg">
<path d="M13.6487 8.09912V21.9178C13.6487 23.244 12.5735 24.3191 11.2473 24.3191H9.92332C8.59709 24.3191 7.52197 23.244 7.52197 21.9178V8.09912H13.6487Z" fill="white"/>
<path d="M13.6487 8.09912V21.9178C13.6487 23.244 12.5735 24.3191 11.2473 24.3191H9.92332C8.59709 24.3191 7.52197 23.244 7.52197 21.9178V8.09912H13.6487Z" fill="white"/>
<path d="M13.6487 8.09921V21.9179C13.6487 23.2441 12.5735 24.3192 11.2473 24.3192H9.92332C8.59709 24.3192 7.52197 23.2441 7.52197 21.9179V8.09921H13.6487ZM6.05417 5.625C5.37185 5.625 4.79394 6.16377 4.78528 6.84602C4.78297 7.01115 4.81385 7.17506 4.87609 7.32803C4.93832 7.481 5.03065 7.61991 5.14759 7.73652C5.37148 7.96042 5.68073 8.09896 6.02213 8.09896H13.6487V5.625H6.05417ZM13.6487 5.625L13.6488 27.4363C14.0466 27.3066 14.4624 27.2409 14.8808 27.2415C15.3144 27.2415 15.7319 27.3107 16.1227 27.4394V8.09896C16.1227 6.73265 15.015 5.625 13.6487 5.625Z" fill="white"/>
<path d="M13.6487 5.625L13.6488 27.4363C14.0466 27.3066 14.4624 27.2409 14.8808 27.2415C15.3144 27.2415 15.7319 27.3107 16.1228 27.4394V8.09896C16.1228 6.73265 15.0151 5.625 13.6487 5.625Z" fill="white"/>
<path d="M6.05417 5.625C5.37185 5.625 4.79394 6.16377 4.78528 6.84602C4.78297 7.01115 4.81385 7.17506 4.87609 7.32803C4.93832 7.481 5.03065 7.61991 5.14759 7.73652C5.37148 7.96042 5.68073 8.09896 6.02213 8.09896L13.6487 8.09921L13.6487 5.625H6.05417Z" fill="white"/>
<path d="M32.5381 16.532L31.444 26.0209C31.3506 26.8292 30.6659 27.439 29.8526 27.439H22.8513C22.0374 27.439 21.3533 26.8292 21.2599 26.0209L20.1658 16.532H22.4573V17.0243C22.4573 17.4356 22.7907 17.769 23.2014 17.769H24.5095C24.9208 17.769 25.2541 18.1023 25.2541 18.5136V20.4946C25.2541 20.7841 25.4886 21.0179 25.7774 21.0179H27.4485C27.7374 21.0179 27.9718 20.7841 27.9718 20.4946V16.532H32.5381Z" fill="white"/>
<path d="M32.7495 6.06706C32.7495 6.1161 32.7463 6.16577 32.7407 6.21543L31.8233 14.1311H29.2409L30.1923 5.91998C30.274 5.21639 30.9103 4.71213 31.6139 4.79384C32.2678 4.86929 32.7495 5.42451 32.7495 6.06706Z" fill="white"/>
<path d="M19.9073 14.1311H22.4982C22.4716 14.2171 22.4574 14.308 22.4574 14.402V16.5321H19.9073C19.2443 16.5321 18.7068 15.9946 18.7068 15.3316C18.7068 14.6686 19.2443 14.1311 19.9073 14.1311ZM33.9334 15.3316C33.9334 15.9946 33.396 16.5321 32.733 16.5321H27.9718V14.402C27.9718 14.308 27.9576 14.2171 27.931 14.1311H32.733C33.0645 14.1311 33.3644 14.2653 33.5821 14.483C33.6937 14.5943 33.7822 14.7266 33.8425 14.8722C33.9028 15.0179 33.9337 15.174 33.9334 15.3316Z" fill="white"/>
<path d="M30.6936 33.1571C30.564 31.8497 31.6417 30.6838 32.9493 30.6838C34.2005 30.6838 35.2148 31.6981 35.2148 32.9493V27.4392H16.1214C17.5569 27.9086 18.6325 29.171 18.8329 30.7085C18.9423 31.5373 18.7729 32.431 18.3696 33.1571H30.6936Z" fill="white"/>
<path d="M23.2016 17.7691H24.5096C24.9208 17.7691 25.2541 18.1024 25.2541 18.5136V20.4948C25.2541 20.6336 25.3093 20.7667 25.4074 20.8648C25.5055 20.9629 25.6386 21.0181 25.7774 21.0181H27.4484C27.5871 21.0181 27.7202 20.9629 27.8184 20.8648C27.9165 20.7667 27.9716 20.6336 27.9716 20.4948V14.4018C27.9716 13.8928 27.559 13.4802 27.05 13.4802H23.3787C22.8697 13.4802 22.4571 13.8929 22.4571 14.4018V17.0246C22.457 17.4358 22.7904 17.7691 23.2016 17.7691Z" fill="white"/>
<path d="M25.254 16.0207L25.2541 18.5136Z" fill="white"/>
<path d="M32.9492 35.2149C34.2005 35.2149 35.2149 34.2005 35.2149 32.9492C35.2149 31.698 34.2005 30.6836 32.9492 30.6836C31.698 30.6836 30.6836 31.698 30.6836 32.9492C30.6836 34.2005 31.698 35.2149 32.9492 35.2149Z" fill="white"/>
<path d="M14.8807 35.2148C17.0824 35.2148 18.8672 33.4299 18.8672 31.2282C18.8672 29.0265 17.0824 27.2417 14.8807 27.2417C12.679 27.2417 10.8942 29.0265 10.8942 31.2282C10.8942 33.4299 12.679 35.2148 14.8807 35.2148Z" fill="white"/>
<path d="M14.8807 32.6643C15.6737 32.6643 16.3166 32.0214 16.3166 31.2284C16.3166 30.4353 15.6737 29.7925 14.8807 29.7925C14.0877 29.7925 13.4448 30.4353 13.4448 31.2284C13.4448 32.0214 14.0877 32.6643 14.8807 32.6643Z" fill="white"/>
<path d="M13.6487 8.09912V21.9178C13.6487 23.244 12.5735 24.3191 11.2473 24.3191H9.92332C8.59709 24.3191 7.52197 23.244 7.52197 21.9178V8.09912H13.6487Z" stroke="#28272D" stroke-width="1.12" stroke-miterlimit="10" stroke-linecap="round" stroke-linejoin="round"/>
<path d="M13.6487 8.09912V21.9178C13.6487 23.244 12.5735 24.3191 11.2473 24.3191H9.92332C8.59709 24.3191 7.52197 23.244 7.52197 21.9178V8.09912H13.6487Z" stroke="#28272D" stroke-width="1.12" stroke-miterlimit="10" stroke-linecap="round" stroke-linejoin="round"/>
<path d="M13.6487 5.625V8.09896H6.02213C5.68073 8.09896 5.37148 7.96042 5.14759 7.73652C5.03065 7.61991 4.93832 7.481 4.87609 7.32803C4.81385 7.17506 4.78297 7.01115 4.78528 6.84602C4.79394 6.16377 5.37185 5.625 6.05417 5.625H13.6487ZM13.6487 5.625L13.6488 27.4363C14.0466 27.3066 14.4624 27.2409 14.8808 27.2415C15.3144 27.2415 15.7319 27.3107 16.1227 27.4394V8.09896C16.1227 6.73265 15.015 5.625 13.6487 5.625ZM13.6487 8.09921V21.9179C13.6487 23.2441 12.5735 24.3192 11.2473 24.3192H9.92332C8.59709 24.3192 7.52197 23.2441 7.52197 21.9179V8.09921H13.6487Z" stroke="#FFBD16" stroke-width="1.12" stroke-miterlimit="10" stroke-linecap="round" stroke-linejoin="round"/>
<path d="M13.6487 21.9179V8.09921L13.6487 5.625M13.6487 5.625L13.6488 27.4363C14.0466 27.3066 14.4624 27.2409 14.8808 27.2415C15.3144 27.2415 15.7319 27.3107 16.1228 27.4394V8.09896C16.1228 6.73265 15.0151 5.625 13.6487 5.625Z" stroke="#AAABA6" stroke-width="1.12" stroke-miterlimit="10" stroke-linecap="round" stroke-linejoin="round"/>
<path d="M13.6487 8.09921H7.52197M13.6487 8.09921L6.02213 8.09896C5.68073 8.09896 5.37148 7.96042 5.14759 7.73652C5.03065 7.61991 4.93832 7.481 4.87609 7.32803C4.81385 7.17506 4.78297 7.01115 4.78528 6.84602C4.79394 6.16377 5.37185 5.625 6.05417 5.625H13.6487L13.6487 8.09921Z" stroke="#4D5C6B" stroke-width="1.12" stroke-miterlimit="10" stroke-linecap="round" stroke-linejoin="round"/>
<path d="M32.5381 16.532L31.444 26.0209C31.3506 26.8292 30.6659 27.439 29.8526 27.439H22.8513C22.0374 27.439 21.3533 26.8292 21.2599 26.0209L20.1658 16.532H22.4573V17.0243C22.4573 17.4356 22.7907 17.769 23.2014 17.769H24.5095C24.9208 17.769 25.2541 18.1023 25.2541 18.5136V20.4946C25.2541 20.7841 25.4886 21.0179 25.7774 21.0179H27.4485C27.7374 21.0179 27.9718 20.7841 27.9718 20.4946V16.532H32.5381Z" stroke="#AAABA6" stroke-width="1.12" stroke-miterlimit="10" stroke-linecap="round" stroke-linejoin="round"/>
<path d="M32.7494 6.06706C32.7494 6.1161 32.7463 6.16577 32.7406 6.21543L31.8232 14.1311H29.2408L30.1922 5.91998C30.274 5.21639 30.9103 4.71213 31.6139 4.79384C32.2677 4.86929 32.7494 5.42451 32.7494 6.06706Z" stroke="#E94D11" stroke-width="1.12" stroke-miterlimit="10" stroke-linecap="round" stroke-linejoin="round"/>
<path d="M19.9073 14.1311H22.4981C22.4715 14.2171 22.4573 14.308 22.4573 14.402V16.5321H19.9073C19.2443 16.5321 18.7068 15.9946 18.7068 15.3316C18.7068 14.6686 19.2443 14.1311 19.9073 14.1311ZM33.9334 15.3316C33.9334 15.9946 33.3959 16.5321 32.7329 16.5321H27.9718V14.402C27.9718 14.308 27.9575 14.2171 27.9309 14.1311H32.7329C33.0644 14.1311 33.3644 14.2653 33.5821 14.483C33.6937 14.5943 33.7821 14.7266 33.8424 14.8722C33.9027 15.0179 33.9336 15.174 33.9334 15.3316Z" stroke="#AAABA6" stroke-width="1.12" stroke-miterlimit="10" stroke-linecap="round" stroke-linejoin="round"/>
<path d="M30.6936 33.1571C30.564 31.8497 31.6417 30.6838 32.9493 30.6838C34.2005 30.6838 35.2148 31.6981 35.2148 32.9493V27.4392H16.1214C17.5569 27.9086 18.6325 29.171 18.8329 30.7085C18.9423 31.5373 18.7729 32.431 18.3696 33.1571H30.6936Z" stroke="#4D5C6B" stroke-width="1.12" stroke-miterlimit="10" stroke-linecap="round" stroke-linejoin="round"/>
<path d="M25.2542 18.5136C25.2542 18.1024 24.9208 17.7691 24.5097 17.7691H23.2016C22.7905 17.7691 22.4571 17.4358 22.4572 17.0246V14.4018C22.4572 13.8929 22.8697 13.4802 23.3788 13.4802H27.0501C27.559 13.4802 27.9717 13.8928 27.9717 14.4018V20.4948C27.9717 20.6336 27.9165 20.7667 27.8184 20.8648C27.7203 20.9629 27.5872 21.0181 27.4484 21.0181H25.7775C25.6387 21.0181 25.5056 20.9629 25.4075 20.8648C25.3093 20.7667 25.2542 20.6336 25.2542 20.4948V18.5136ZM25.2542 18.5136L25.2541 16.0207" stroke="#4D5C6B" stroke-width="1.12" stroke-miterlimit="10" stroke-linecap="round" stroke-linejoin="round"/>
<path d="M32.9492 35.2149C34.2005 35.2149 35.2149 34.2005 35.2149 32.9492C35.2149 31.698 34.2005 30.6836 32.9492 30.6836C31.698 30.6836 30.6836 31.698 30.6836 32.9492C30.6836 34.2005 31.698 35.2149 32.9492 35.2149Z" stroke="#AAABA6" stroke-width="1.12" stroke-miterlimit="10" stroke-linecap="round" stroke-linejoin="round"/>
<path d="M14.8808 35.2148C17.0825 35.2148 18.8673 33.4299 18.8673 31.2282C18.8673 29.0265 17.0825 27.2417 14.8808 27.2417C12.6791 27.2417 10.8942 29.0265 10.8942 31.2282C10.8942 33.4299 12.6791 35.2148 14.8808 35.2148Z" stroke="#E94D11" stroke-width="1.12" stroke-miterlimit="10" stroke-linecap="round" stroke-linejoin="round"/>
<path d="M14.8808 32.6643C15.6738 32.6643 16.3167 32.0214 16.3167 31.2284C16.3167 30.4353 15.6738 29.7925 14.8808 29.7925C14.0878 29.7925 13.4449 30.4353 13.4449 31.2284C13.4449 32.0214 14.0878 32.6643 14.8808 32.6643Z" stroke="#E94D11" stroke-width="1.12" stroke-miterlimit="10" stroke-linecap="round" stroke-linejoin="round"/>
</svg>
