<svg width="15" height="14" viewBox="0 0 15 14" fill="none" xmlns="http://www.w3.org/2000/svg">
<path d="M13.1846 6.34377L11.9386 4.27702C11.8474 4.12695 11.7193 4.00277 11.5664 3.91637C11.4135 3.82997 11.241 3.78423 11.0654 3.78352H10.0871V3.63827C10.0872 3.42851 10.0457 3.22082 9.96525 3.02711C9.88477 2.83341 9.76681 2.65751 9.61814 2.50952C9.31763 2.21007 8.91072 2.04186 8.48648 2.04169H2.66306C2.34611 2.03959 2.03575 2.13212 1.77169 2.30743C1.50764 2.48274 1.3019 2.73286 1.18081 3.02577C1.1007 3.21996 1.06024 3.42822 1.06181 3.63827V8.86377C1.06214 9.10919 1.15138 9.34618 1.313 9.53086C1.47462 9.71554 1.69769 9.83541 1.9409 9.86827C1.93817 9.92077 1.93817 9.97308 1.9409 10.0252C1.93882 10.2726 1.98673 10.5179 2.08176 10.7463C2.17678 10.9748 2.31696 11.1817 2.4939 11.3546C2.66751 11.5353 2.87533 11.6797 3.10527 11.7793C3.3352 11.879 3.58265 11.9319 3.83323 11.935C4.33334 11.9305 4.8118 11.7303 5.16615 11.3774C5.52017 11.025 5.72132 10.5474 5.72615 10.0479C5.72914 9.99977 5.72914 9.95145 5.72615 9.90327H8.93973C8.93674 9.95145 8.93674 9.99977 8.93973 10.0479C8.93758 10.2954 8.98545 10.5408 9.08048 10.7694C9.1755 10.9979 9.31573 11.2049 9.49273 11.3779C9.66648 11.5588 9.87449 11.7032 10.1046 11.8029C10.3348 11.9025 10.5825 11.9554 10.8332 11.9584C11.3333 11.9538 11.8118 11.7536 12.1661 11.4007C12.52 11.0482 12.7209 10.5707 12.7256 10.0713C12.7286 10.0229 12.7286 9.97439 12.7256 9.92602H13.1666C13.2816 9.92438 13.3915 9.87806 13.4731 9.79685C13.5546 9.71564 13.6014 9.60591 13.6035 9.49086V7.81319C13.6035 7.29402 13.4582 6.78536 13.1846 6.34377ZM4.84648 10.0246C4.84665 10.158 4.81993 10.29 4.76791 10.4127C4.71589 10.5355 4.63964 10.6466 4.54373 10.7392C4.34966 10.9236 4.09218 11.0264 3.82448 11.0264C3.55677 11.0264 3.29929 10.9236 3.10523 10.7392C3.01064 10.6448 2.93573 10.5326 2.88486 10.409C2.83399 10.2854 2.80817 10.153 2.8089 10.0194C2.80615 9.88138 2.83405 9.74451 2.89056 9.61861C2.96756 9.43602 3.09998 9.28202 3.26856 9.17702C3.44099 9.06306 3.64409 9.00445 3.85073 9.00902C4.0479 9.00902 4.2404 9.06736 4.40373 9.17702C4.57115 9.28377 4.70298 9.43719 4.7829 9.61861C4.84006 9.74402 4.8704 9.88111 4.86981 10.0194L4.84648 10.0246ZM6.73881 7.12194H3.82798C3.67387 7.12179 3.52609 7.06066 3.4169 6.95191C3.30772 6.84316 3.246 6.69563 3.24523 6.54152C3.24507 6.46508 3.26004 6.38937 3.28925 6.31873C3.31847 6.2481 3.36136 6.18393 3.41547 6.12994C3.46957 6.07594 3.53382 6.03317 3.60452 6.0041C3.67521 5.97503 3.75096 5.96022 3.8274 5.96052H6.73881C6.89292 5.96083 7.04064 6.02211 7.14971 6.13096C7.25879 6.23982 7.32036 6.38742 7.32098 6.54152C7.32106 6.61791 7.30604 6.69357 7.27679 6.76414C7.24754 6.83471 7.20463 6.8988 7.15053 6.95273C7.09643 7.00667 7.03221 7.04938 6.96156 7.07842C6.8909 7.10746 6.8152 7.12225 6.73881 7.12194ZM6.73881 5.12461H3.82798C3.67387 5.12446 3.52609 5.06333 3.4169 4.95458C3.30772 4.84583 3.246 4.69829 3.24523 4.54419C3.24515 4.4678 3.26017 4.39215 3.28942 4.32158C3.31867 4.25101 3.36158 4.18692 3.41568 4.13298C3.46977 4.07905 3.53399 4.03633 3.60465 4.0073C3.67531 3.97826 3.75101 3.96347 3.8274 3.96377H6.73881C6.89282 3.96408 7.04045 4.02527 7.14951 4.13401C7.25857 4.24274 7.32021 4.39019 7.32098 4.54419C7.32106 4.62058 7.30604 4.69623 7.27679 4.7668C7.24754 4.83737 7.20463 4.90146 7.15053 4.9554C7.09643 5.00933 7.03221 5.05205 6.96156 5.08109C6.8909 5.11013 6.8152 5.12492 6.73881 5.12461ZM11.8336 10.0246C11.8337 10.158 11.8069 10.29 11.7548 10.4128C11.7027 10.5356 11.6263 10.6466 11.5303 10.7392C11.3363 10.9234 11.0789 11.0261 10.8114 11.0261C10.5438 11.0261 10.2864 10.9234 10.0924 10.7392C9.9977 10.6449 9.92268 10.5326 9.87171 10.4091C9.82074 10.2855 9.79483 10.153 9.79548 10.0194C9.793 9.80784 9.8607 9.60147 9.98798 9.43252C10.1315 9.24177 10.3374 9.10586 10.5701 9.04927H10.716C10.7426 9.04293 10.7704 9.04293 10.7971 9.04927H10.9137C11.0905 9.06969 11.2591 9.13561 11.4026 9.24119C11.5466 9.34677 11.6592 9.48911 11.7286 9.65361C11.7864 9.77902 11.8161 9.91611 11.8161 10.0538L11.8336 10.0246Z" fill="#E94D11"/>
<path d="M10.8099 9.00321C10.7831 8.99677 10.7551 8.99677 10.7283 9.00321H10.8099Z" fill="#E94D11"/>
</svg>
